{"glyphs":{"0":{"ha":935,"x_min":28,"x_max":940,"o":"m 385 -14 q 119 69 211 -14 q 28 307 28 151 q 44 447 28 371 q 219 794 93 679 q 582 908 344 908 q 849 826 757 908 q 940 589 940 744 q 924 447 940 525 q 749 100 874 214 q 385 -14 625 -14 m 439 240 q 554 290 513 240 q 618 447 596 340 q 633 557 633 517 q 609 631 633 608 q 528 654 585 654 q 413 603 454 654 q 349 447 371 553 q 335 342 335 378 q 359 265 335 289 q 439 240 383 240 z "},"1":{"ha":532,"x_min":75,"x_max":592,"o":"m 231 617 l 75 594 l 129 843 l 592 908 l 399 0 l 100 0 l 231 617 z "},"2":{"ha":733,"x_min":-50,"x_max":758,"o":"m -22 133 q 89 252 28 197 q 240 375 150 307 l 264 393 q 394 498 360 465 q 436 572 428 531 q 439 593 439 586 q 342 654 439 654 q 106 604 229 654 l 158 856 q 306 894 222 881 q 474 908 390 908 q 683 847 608 908 q 758 682 758 785 q 751 618 758 656 q 691 476 732 531 q 561 354 650 421 l 535 335 q 460 279 497 308 q 403 228 422 250 l 675 228 l 628 0 l -50 0 l -22 133 z "},"3":{"ha":753,"x_min":-43,"x_max":771,"o":"m 251 -14 q 97 1 188 -14 q -43 38 6 15 l 7 268 q 124 228 58 242 q 251 215 190 215 q 358 232 322 215 q 403 290 393 249 q 404 303 404 294 q 314 353 404 353 l 157 353 l 217 546 l 347 546 q 423 562 397 546 q 456 613 449 578 q 457 625 457 617 q 342 678 457 678 q 213 663 279 678 q 94 625 146 649 l 143 856 q 450 908 289 908 q 622 880 549 908 q 733 801 694 851 q 771 688 771 750 q 767 644 771 668 q 722 532 754 583 q 642 449 689 481 q 691 397 674 431 q 708 318 708 363 q 703 267 708 290 q 560 54 674 122 q 251 -14 447 -14 z "},"4":{"ha":769,"x_min":-44,"x_max":803,"o":"m 349 158 l -44 158 l -4 350 l 546 894 l 803 894 l 699 399 l 776 399 l 725 158 l 647 158 l 614 0 l 315 0 l 349 158 m 451 386 l 490 572 l 292 386 l 451 386 z "},"5":{"ha":735,"x_min":-39,"x_max":765,"o":"m 243 -14 q 92 -1 174 -14 q -39 36 11 11 l 11 268 q 124 233 51 247 q 244 218 196 218 q 349 237 318 218 q 388 299 379 256 q 390 322 390 315 q 370 362 390 350 q 303 374 350 374 l 29 374 l 56 499 l 163 894 l 765 894 l 699 667 l 371 667 l 344 574 l 429 574 q 626 514 556 574 q 696 353 696 454 q 689 288 696 325 q 550 63 660 139 q 243 -14 440 -14 z "},"6":{"ha":828,"x_min":14,"x_max":817,"o":"m 335 -14 q 99 58 183 -14 q 14 260 14 131 q 25 354 14 301 l 60 517 q 231 811 103 714 q 579 908 360 908 q 711 898 649 908 q 817 868 774 888 l 769 646 q 676 676 725 667 q 563 686 626 686 q 415 658 471 686 q 350 579 358 629 l 347 563 q 433 592 381 581 q 531 604 486 604 q 726 545 657 604 q 794 382 794 486 q 786 306 794 347 q 651 69 754 153 q 335 -14 547 -14 m 381 193 q 476 217 446 193 q 519 294 507 242 q 524 326 524 311 q 426 397 524 397 q 304 364 363 397 l 293 308 q 288 261 288 272 q 309 208 288 224 q 381 193 331 193 z "},"7":{"ha":696,"x_min":-15,"x_max":793,"o":"m 408 667 l 78 667 l 125 894 l 793 894 l 758 726 l 296 0 l -15 0 l 408 667 z "},"8":{"ha":860,"x_min":-1,"x_max":872,"o":"m 346 -14 q 88 45 176 -14 q -1 207 -1 104 q 6 265 -1 233 q 58 380 18 325 q 150 463 97 435 q 113 520 126 486 q 100 590 100 554 q 104 629 100 611 q 238 836 133 764 q 543 908 342 908 q 786 849 700 908 q 872 686 872 789 q 865 629 872 661 q 823 533 854 579 q 746 457 792 486 q 797 395 779 433 q 814 311 814 357 q 810 265 814 289 q 672 54 779 122 q 346 -14 565 -14 m 497 536 q 554 569 535 550 q 581 622 574 589 q 583 644 583 639 q 563 685 583 672 q 497 699 543 699 q 420 680 446 699 q 386 622 394 661 q 383 603 383 608 q 395 568 383 582 q 429 550 407 554 l 497 536 m 390 194 q 488 214 456 194 q 528 272 519 233 q 531 290 531 286 q 465 350 531 335 l 382 368 q 314 329 339 358 q 289 256 289 300 q 313 210 289 225 q 390 194 336 194 z "},"9":{"ha":828,"x_min":44,"x_max":847,"o":"m 282 -14 q 44 22 150 -14 l 92 244 q 299 207 171 207 q 449 236 396 207 q 511 314 503 265 l 514 331 q 331 289 435 289 q 138 351 208 289 q 67 518 67 413 q 74 588 67 558 q 215 822 104 736 q 526 908 325 908 q 767 838 686 908 q 847 642 847 768 q 836 540 847 599 l 801 378 q 629 83 758 179 q 282 -14 500 -14 m 432 496 q 557 531 488 496 l 568 585 q 574 628 574 606 q 551 683 574 665 q 479 700 528 700 q 385 675 418 700 q 342 599 353 650 q 338 561 338 578 q 360 511 338 526 q 432 496 382 496 z "},"\r":{"ha":556,"x_min":0,"x_max":0,"o":""}," ":{"ha":444,"x_min":0,"x_max":0,"o":""},"A":{"ha":1056,"x_min":-50,"x_max":950,"o":"m 482 894 l 794 894 l 950 0 l 651 0 l 619 178 l 376 178 l 271 0 l -50 0 l 482 894 m 625 386 l 586 603 l 457 386 l 625 386 z "},"Á":{"ha":1056,"x_min":-50,"x_max":960,"o":"m 729 1256 l 960 1256 l 756 956 l 538 956 l 729 1256 m 482 894 l 794 894 l 950 0 l 651 0 l 619 178 l 376 178 l 271 0 l -50 0 l 482 894 m 625 386 l 586 603 l 457 386 l 625 386 z "},"Ă":{"ha":1056,"x_min":-50,"x_max":996,"o":"m 650 956 q 481 1008 542 956 q 419 1160 419 1061 q 428 1239 419 1197 l 611 1239 q 606 1190 606 1215 q 622 1138 606 1157 q 678 1119 639 1119 q 758 1151 733 1119 q 796 1239 783 1182 l 996 1239 q 878 1028 967 1101 q 650 956 789 956 m 482 894 l 794 894 l 950 0 l 651 0 l 619 178 l 376 178 l 271 0 l -50 0 l 482 894 m 625 386 l 586 603 l 457 386 l 625 386 z "},"Ắ":{"ha":1056,"x_min":-50,"x_max":969,"o":"m 760 1444 l 956 1444 l 800 1239 l 622 1239 l 760 1444 m 653 956 q 494 1003 553 956 q 435 1142 435 1050 q 442 1206 435 1167 l 604 1206 q 599 1164 599 1175 q 618 1115 599 1131 q 679 1100 638 1100 q 800 1206 782 1100 l 969 1206 q 653 956 918 956 m 482 894 l 794 894 l 950 0 l 651 0 l 619 178 l 376 178 l 271 0 l -50 0 l 482 894 m 625 386 l 586 603 l 457 386 l 625 386 z "},"Ặ":{"ha":1056,"x_min":-50,"x_max":997,"o":"m 651 956 q 482 1008 543 956 q 421 1160 421 1061 q 429 1239 421 1197 l 613 1239 q 607 1190 607 1215 q 624 1138 607 1157 q 679 1119 640 1119 q 760 1151 735 1119 q 797 1239 785 1182 l 997 1239 q 879 1028 968 1101 q 651 956 790 956 m 482 894 l 794 894 l 950 0 l 651 0 l 619 178 l 376 178 l 271 0 l -50 0 l 482 894 m 625 386 l 586 603 l 457 386 l 625 386 m 338 -64 l 536 -64 l 497 -244 l 299 -244 l 338 -64 z "},"Ằ":{"ha":1056,"x_min":-50,"x_max":968,"o":"m 557 1444 l 753 1444 l 801 1239 l 624 1239 l 557 1444 m 651 956 q 492 1003 551 956 q 433 1142 433 1050 q 440 1206 433 1167 l 603 1206 q 597 1164 597 1175 q 617 1115 597 1131 q 678 1100 636 1100 q 799 1206 781 1100 l 968 1206 q 651 956 917 956 m 482 894 l 794 894 l 950 0 l 651 0 l 619 178 l 376 178 l 271 0 l -50 0 l 482 894 m 625 386 l 586 603 l 457 386 l 625 386 z "},"Ẳ":{"ha":1056,"x_min":-50,"x_max":968,"o":"m 633 1310 q 744 1364 744 1314 q 731 1385 744 1379 q 689 1390 718 1390 q 621 1376 657 1390 l 643 1476 q 711 1490 671 1485 q 790 1494 751 1494 q 895 1467 858 1494 q 932 1397 932 1440 q 929 1375 932 1389 q 892 1303 919 1329 q 808 1264 864 1278 l 800 1225 l 615 1225 l 633 1310 m 651 956 q 492 1003 551 956 q 433 1142 433 1050 q 440 1206 433 1167 l 603 1206 q 597 1164 597 1175 q 617 1115 597 1131 q 678 1100 636 1100 q 799 1206 781 1100 l 968 1206 q 651 956 917 956 m 482 894 l 794 894 l 950 0 l 651 0 l 619 178 l 376 178 l 271 0 l -50 0 l 482 894 m 625 386 l 586 603 l 457 386 l 625 386 z "},"Ẵ":{"ha":1056,"x_min":-50,"x_max":1000,"o":"m 842 1235 q 783 1242 811 1235 q 715 1265 756 1250 q 658 1285 682 1278 q 608 1292 633 1292 q 465 1239 526 1292 l 497 1385 q 557 1417 519 1404 q 633 1429 594 1429 q 690 1422 664 1429 q 754 1400 717 1414 q 815 1379 790 1386 q 867 1372 840 1372 q 944 1387 908 1372 q 1000 1426 979 1401 l 969 1279 q 916 1248 951 1261 q 842 1235 881 1235 m 651 956 q 492 1003 551 956 q 433 1142 433 1050 q 440 1206 433 1167 l 603 1206 q 597 1164 597 1175 q 617 1115 597 1131 q 678 1100 636 1100 q 799 1206 781 1100 l 968 1206 q 651 956 917 956 m 482 894 l 794 894 l 950 0 l 651 0 l 619 178 l 376 178 l 271 0 l -50 0 l 482 894 m 625 386 l 586 603 l 457 386 l 625 386 z "},"Ǎ":{"ha":1056,"x_min":-50,"x_max":1029,"o":"m 396 1244 l 603 1244 l 672 1094 l 810 1244 l 1029 1244 l 739 956 l 564 956 l 396 1244 m 482 894 l 794 894 l 950 0 l 651 0 l 619 178 l 376 178 l 271 0 l -50 0 l 482 894 m 625 386 l 586 603 l 457 386 l 625 386 z "},"Â":{"ha":1056,"x_min":-50,"x_max":968,"o":"m 624 1244 l 800 1244 l 968 956 l 765 956 l 692 1106 l 560 956 l 335 956 l 624 1244 m 482 894 l 794 894 l 950 0 l 651 0 l 619 178 l 376 178 l 271 0 l -50 0 l 482 894 m 625 386 l 586 603 l 457 386 l 625 386 z "},"Ấ":{"ha":1056,"x_min":-50,"x_max":1236,"o":"m 1018 1361 l 1236 1361 l 1076 1133 l 869 1133 l 1018 1361 m 586 1178 l 803 1178 l 963 956 l 736 956 l 676 1063 l 575 956 l 331 956 l 586 1178 m 482 894 l 794 894 l 950 0 l 651 0 l 619 178 l 376 178 l 271 0 l -50 0 l 482 894 m 625 386 l 586 603 l 457 386 l 625 386 z "},"Ậ":{"ha":1060,"x_min":-46,"x_max":974,"o":"m 629 1244 l 806 1244 l 974 956 l 771 956 l 697 1106 l 565 956 l 340 956 l 629 1244 m 486 894 l 799 894 l 954 0 l 656 0 l 624 178 l 381 178 l 275 0 l -46 0 l 486 894 m 629 386 l 590 603 l 461 386 l 629 386 m 342 -64 l 540 -64 l 501 -244 l 303 -244 l 342 -64 z "},"Ầ":{"ha":1056,"x_min":-50,"x_max":972,"o":"m 238 1361 l 457 1361 l 510 1133 l 301 1133 l 238 1361 m 594 1178 l 813 1178 l 972 956 l 742 956 l 683 1063 l 579 956 l 339 956 l 594 1178 m 482 894 l 794 894 l 950 0 l 651 0 l 619 178 l 376 178 l 271 0 l -50 0 l 482 894 m 625 386 l 586 603 l 457 386 l 625 386 z "},"Ẩ":{"ha":1056,"x_min":-50,"x_max":1211,"o":"m 903 1208 q 983 1221 961 1210 q 1004 1251 1004 1232 q 992 1267 1004 1263 q 957 1271 981 1271 q 886 1260 928 1271 l 911 1374 q 1063 1390 974 1390 q 1173 1364 1135 1390 q 1211 1292 1211 1338 q 1208 1267 1211 1283 q 1085 1146 1186 1164 l 1075 1101 l 881 1101 l 903 1208 m 589 1178 l 807 1178 l 967 956 l 740 956 l 681 1063 l 578 956 l 333 956 l 589 1178 m 482 894 l 794 894 l 950 0 l 651 0 l 619 178 l 376 178 l 271 0 l -50 0 l 482 894 m 625 386 l 586 603 l 457 386 l 625 386 z "},"Ẫ":{"ha":1056,"x_min":-50,"x_max":990,"o":"m 832 1192 q 774 1199 801 1192 q 706 1222 746 1207 q 648 1242 672 1235 q 599 1249 624 1249 q 456 1196 517 1249 l 488 1342 q 548 1374 511 1361 q 624 1386 585 1386 q 681 1378 654 1386 q 744 1357 707 1371 q 806 1336 781 1343 q 857 1329 831 1329 q 933 1344 899 1329 q 990 1383 968 1358 l 960 1236 q 906 1205 942 1218 q 832 1192 871 1192 m 592 1178 l 810 1178 l 969 956 l 736 956 l 676 1063 l 574 956 l 336 956 l 592 1178 m 482 894 l 794 894 l 950 0 l 651 0 l 619 178 l 376 178 l 271 0 l -50 0 l 482 894 m 625 386 l 586 603 l 457 386 l 625 386 z "},"Ä":{"ha":1056,"x_min":-50,"x_max":953,"o":"m 442 1175 l 640 1175 l 603 993 l 404 993 l 442 1175 m 754 1175 l 953 1175 l 915 993 l 717 993 l 754 1175 m 482 894 l 794 894 l 950 0 l 651 0 l 619 178 l 376 178 l 271 0 l -50 0 l 482 894 m 625 386 l 586 603 l 457 386 l 625 386 z "},"Ạ":{"ha":1056,"x_min":-50,"x_max":950,"o":"m 482 894 l 794 894 l 950 0 l 651 0 l 619 178 l 376 178 l 271 0 l -50 0 l 482 894 m 625 386 l 586 603 l 457 386 l 625 386 m 338 -64 l 536 -64 l 497 -244 l 299 -244 l 338 -64 z "},"À":{"ha":1056,"x_min":-50,"x_max":950,"o":"m 463 1256 l 694 1256 l 758 956 l 539 956 l 463 1256 m 482 894 l 794 894 l 950 0 l 651 0 l 619 178 l 376 178 l 271 0 l -50 0 l 482 894 m 625 386 l 586 603 l 457 386 l 625 386 z "},"Ả":{"ha":1056,"x_min":-50,"x_max":950,"o":"m 567 1068 q 671 1089 640 1072 q 701 1135 701 1106 q 633 1168 701 1168 q 550 1156 593 1168 l 575 1275 q 750 1294 644 1294 q 880 1263 835 1294 q 925 1178 925 1231 q 922 1150 925 1160 q 875 1058 910 1090 q 776 1008 840 1026 l 765 956 l 543 956 l 567 1068 m 482 894 l 794 894 l 950 0 l 651 0 l 619 178 l 376 178 l 271 0 l -50 0 l 482 894 m 625 386 l 586 603 l 457 386 l 625 386 z "},"Ā":{"ha":1056,"x_min":-50,"x_max":950,"o":"m 457 1146 l 926 1146 l 889 971 l 419 971 l 457 1146 m 482 894 l 794 894 l 950 0 l 651 0 l 619 178 l 376 178 l 271 0 l -50 0 l 482 894 m 625 386 l 586 603 l 457 386 l 625 386 z "},"Ą":{"ha":1056,"x_min":-50,"x_max":950,"o":"m 694 -306 q 570 -279 615 -306 q 525 -199 525 -253 q 562 -89 525 -139 q 651 0 599 -39 l 619 178 l 376 178 l 271 0 l -50 0 l 482 894 l 794 894 l 950 0 l 854 0 q 757 -115 771 -54 q 756 -129 756 -121 q 807 -164 756 -164 q 881 -149 850 -164 l 851 -282 q 782 -299 825 -292 q 694 -306 739 -306 m 625 386 l 586 603 l 457 386 l 625 386 z "},"Å":{"ha":1056,"x_min":-50,"x_max":950,"o":"m 476 885 q 456 965 456 918 q 460 1008 456 986 q 540 1147 478 1094 q 703 1200 603 1200 q 827 1160 783 1200 q 871 1054 871 1119 q 865 1008 871 1039 q 796 881 847 928 l 950 0 l 651 0 l 619 178 l 376 178 l 271 0 l -50 0 l 476 885 m 646 936 q 715 964 689 936 q 740 1029 740 992 q 678 1082 740 1082 q 609 1053 636 1082 q 582 989 582 1025 q 646 936 582 936 m 625 386 l 586 603 l 457 386 l 625 386 z "},"Ǻ":{"ha":1056,"x_min":-50,"x_max":1036,"o":"m 806 1494 l 1036 1494 l 832 1240 l 614 1240 l 806 1494 m 476 885 q 456 965 456 918 q 460 1008 456 986 q 540 1147 478 1094 q 703 1200 603 1200 q 827 1160 783 1200 q 871 1054 871 1119 q 865 1008 871 1039 q 796 881 847 928 l 950 0 l 651 0 l 619 178 l 376 178 l 271 0 l -50 0 l 476 885 m 646 936 q 715 964 689 936 q 740 1029 740 992 q 678 1082 740 1082 q 609 1053 636 1082 q 582 989 582 1025 q 646 936 582 936 m 625 386 l 586 603 l 457 386 l 625 386 z "},"Ã":{"ha":1056,"x_min":-50,"x_max":968,"o":"m 793 961 q 731 969 760 961 q 656 993 701 976 q 591 1014 615 1007 q 540 1021 567 1021 q 388 965 457 1021 l 426 1144 q 492 1178 451 1164 q 572 1192 532 1192 q 634 1184 606 1192 q 703 1161 663 1176 q 767 1140 740 1147 q 825 1132 794 1132 q 907 1148 869 1132 q 968 1189 944 1164 l 929 1008 q 873 975 911 989 q 793 961 835 961 m 482 894 l 794 894 l 950 0 l 651 0 l 619 178 l 376 178 l 271 0 l -50 0 l 482 894 m 625 386 l 586 603 l 457 386 l 625 386 z "},"Æ":{"ha":1203,"x_min":-50,"x_max":1286,"o":"m 482 894 l 1286 894 l 1240 674 l 914 674 l 889 560 l 1164 560 l 1117 333 l 842 333 l 817 221 l 1143 221 l 1097 0 l 482 0 l 519 179 l 369 179 l 263 0 l -50 0 l 482 894 m 565 394 l 625 674 l 617 674 l 458 394 l 565 394 z "},"Ǽ":{"ha":1203,"x_min":-50,"x_max":1286,"o":"m 889 1256 l 1119 1256 l 915 956 l 697 956 l 889 1256 m 482 894 l 1286 894 l 1240 674 l 914 674 l 889 560 l 1164 560 l 1117 333 l 842 333 l 817 221 l 1143 221 l 1097 0 l 482 0 l 519 179 l 369 179 l 263 0 l -50 0 l 482 894 m 565 394 l 625 674 l 617 674 l 458 394 l 565 394 z "},"B":{"ha":908,"x_min":-22,"x_max":914,"o":"m 167 894 l 678 894 q 851 841 789 894 q 914 697 914 788 q 908 644 914 681 q 862 531 896 579 q 779 454 828 483 q 844 402 822 433 q 865 322 865 371 q 860 268 865 294 q 745 69 833 138 q 497 0 657 0 l -22 0 l 167 894 m 524 544 q 590 562 568 544 q 619 617 613 579 q 622 638 622 631 q 550 689 622 689 l 407 689 l 376 544 l 524 544 m 457 204 q 526 222 503 204 q 558 282 549 240 q 561 301 561 296 q 486 354 561 354 l 336 354 l 304 204 l 457 204 z "},"C":{"ha":850,"x_min":32,"x_max":924,"o":"m 463 -14 q 149 76 265 -14 q 32 332 32 167 q 44 444 32 385 q 240 792 93 676 q 657 908 388 908 q 924 860 804 908 l 868 600 q 756 642 811 629 q 624 656 701 656 q 440 606 508 656 q 349 444 372 556 q 339 367 339 393 q 385 268 339 297 q 538 239 431 239 q 806 293 674 239 l 750 32 q 463 -14 613 -14 z "},"Ć":{"ha":850,"x_min":32,"x_max":954,"o":"m 724 1256 l 954 1256 l 750 956 l 532 956 l 724 1256 m 463 -14 q 149 76 265 -14 q 32 332 32 167 q 44 444 32 385 q 240 792 93 676 q 657 908 388 908 q 924 860 804 908 l 868 600 q 756 642 811 629 q 624 656 701 656 q 440 606 508 656 q 349 444 372 556 q 339 367 339 393 q 385 268 339 297 q 538 239 431 239 q 806 293 674 239 l 750 32 q 463 -14 613 -14 z "},"Č":{"ha":850,"x_min":32,"x_max":1021,"o":"m 388 1243 l 594 1243 l 664 1093 l 801 1243 l 1021 1243 l 731 954 l 556 954 l 388 1243 m 463 -14 q 149 76 265 -14 q 32 332 32 167 q 44 444 32 385 q 240 792 93 676 q 657 908 388 908 q 924 860 804 908 l 868 600 q 756 642 811 629 q 624 656 701 656 q 440 606 508 656 q 349 444 372 556 q 339 367 339 393 q 385 268 339 297 q 538 239 431 239 q 806 293 674 239 l 750 32 q 463 -14 613 -14 z "},"Ç":{"ha":850,"x_min":32,"x_max":924,"o":"m 364 -333 q 300 -330 338 -333 q 249 -322 263 -326 l 271 -218 q 350 -229 308 -229 q 431 -215 404 -229 q 458 -169 458 -200 q 444 -147 458 -153 q 403 -140 431 -140 l 307 -140 l 372 -8 q 122 99 213 11 q 32 332 32 186 q 44 444 32 385 q 240 792 93 676 q 657 908 388 908 q 924 860 804 908 l 868 600 q 756 642 811 629 q 624 656 701 656 q 440 606 508 656 q 349 444 372 556 q 339 367 339 393 q 385 268 339 297 q 538 239 431 239 q 806 293 674 239 l 750 32 q 525 -12 640 -6 l 500 -54 q 596 -81 564 -54 q 628 -156 628 -108 q 625 -186 628 -175 q 543 -294 610 -256 q 364 -333 476 -333 z "},"Ĉ":{"ha":850,"x_min":32,"x_max":924,"o":"m 578 1243 l 754 1243 l 922 954 l 719 954 l 646 1104 l 514 954 l 289 954 l 578 1243 m 463 -14 q 149 76 265 -14 q 32 332 32 167 q 44 444 32 385 q 240 792 93 676 q 657 908 388 908 q 924 860 804 908 l 868 600 q 756 642 811 629 q 624 656 701 656 q 440 606 508 656 q 349 444 372 556 q 339 367 339 393 q 385 268 339 297 q 538 239 431 239 q 806 293 674 239 l 750 32 q 463 -14 613 -14 z "},"Ċ":{"ha":850,"x_min":32,"x_max":924,"o":"m 576 1176 l 775 1176 l 738 994 l 539 994 l 576 1176 m 463 -14 q 149 76 265 -14 q 32 332 32 167 q 44 444 32 385 q 240 792 93 676 q 657 908 388 908 q 924 860 804 908 l 868 600 q 756 642 811 629 q 624 656 701 656 q 440 606 508 656 q 349 444 372 556 q 339 367 339 393 q 385 268 339 297 q 538 239 431 239 q 806 293 674 239 l 750 32 q 463 -14 613 -14 z "},"D":{"ha":944,"x_min":-22,"x_max":944,"o":"m 167 894 l 579 894 q 847 810 749 894 q 944 563 944 725 q 932 442 944 507 q 758 106 888 211 q 404 0 628 0 l -22 0 l 167 894 m 401 228 q 511 245 469 228 q 581 308 553 263 q 628 442 610 354 q 640 542 640 503 q 605 632 640 607 q 493 657 569 657 l 415 657 l 324 228 l 401 228 z "},"Ð":{"ha":1003,"x_min":21,"x_max":1001,"o":"m 106 339 l 21 339 l 64 536 l 147 536 l 224 894 l 636 894 q 903 810 806 894 q 1001 563 1001 725 q 989 442 1001 507 q 815 106 944 211 q 461 0 685 0 l 35 0 l 106 339 m 458 228 q 568 245 526 228 q 638 308 610 263 q 685 442 667 354 q 697 542 697 503 q 662 632 697 607 q 550 657 626 657 l 472 657 l 446 536 l 589 536 l 546 339 l 404 339 l 381 228 l 458 228 z "},"Ď":{"ha":944,"x_min":-22,"x_max":944,"o":"m 286 1243 l 493 1243 l 563 1093 l 700 1243 l 919 1243 l 629 954 l 454 954 l 286 1243 m 167 894 l 579 894 q 847 810 749 894 q 944 563 944 725 q 932 442 944 507 q 758 106 888 211 q 404 0 628 0 l -22 0 l 167 894 m 401 228 q 511 245 469 228 q 581 308 553 263 q 628 442 610 354 q 640 542 640 503 q 605 632 640 607 q 493 657 569 657 l 415 657 l 324 228 l 401 228 z "},"Đ":{"ha":1003,"x_min":21,"x_max":1001,"o":"m 106 339 l 21 339 l 64 536 l 147 536 l 224 894 l 636 894 q 903 810 806 894 q 1001 563 1001 725 q 989 442 1001 507 q 815 106 944 211 q 461 0 685 0 l 35 0 l 106 339 m 458 228 q 568 245 526 228 q 638 308 610 263 q 685 442 667 354 q 697 542 697 503 q 662 632 697 607 q 550 657 626 657 l 472 657 l 446 536 l 589 536 l 546 339 l 404 339 l 381 228 l 458 228 z "},"Ḍ":{"ha":944,"x_min":-22,"x_max":944,"o":"m 167 894 l 579 894 q 847 810 749 894 q 944 563 944 725 q 932 442 944 507 q 758 106 888 211 q 404 0 628 0 l -22 0 l 167 894 m 401 228 q 511 245 469 228 q 581 308 553 263 q 628 442 610 354 q 640 542 640 503 q 605 632 640 607 q 493 657 569 657 l 415 657 l 324 228 l 401 228 m 210 -104 l 408 -104 l 369 -285 l 171 -285 l 210 -104 z "},"Ḏ":{"ha":944,"x_min":-22,"x_max":944,"o":"m 167 894 l 579 894 q 847 810 749 894 q 944 563 944 725 q 932 442 944 507 q 758 106 888 211 q 404 0 628 0 l -22 0 l 167 894 m 401 228 q 511 245 469 228 q 581 308 553 263 q 628 442 610 354 q 640 542 640 503 q 605 632 640 607 q 493 657 569 657 l 415 657 l 324 228 l 401 228 m 83 -69 l 553 -69 l 515 -244 l 46 -244 l 83 -69 z "},"E":{"ha":765,"x_min":-22,"x_max":863,"o":"m 167 894 l 863 894 l 817 674 l 419 674 l 394 560 l 740 560 l 693 333 l 347 333 l 322 221 l 719 221 l 674 0 l -22 0 l 167 894 z "},"É":{"ha":765,"x_min":-22,"x_max":863,"o":"m 579 1256 l 810 1256 l 606 956 l 388 956 l 579 1256 m 167 894 l 863 894 l 817 674 l 419 674 l 394 560 l 740 560 l 693 333 l 347 333 l 322 221 l 719 221 l 674 0 l -22 0 l 167 894 z "},"Ĕ":{"ha":772,"x_min":-22,"x_max":876,"o":"m 531 956 q 361 1008 422 956 q 300 1160 300 1061 q 308 1239 300 1197 l 492 1239 q 486 1190 486 1215 q 503 1138 486 1157 q 558 1119 519 1119 q 639 1151 614 1119 q 676 1239 664 1182 l 876 1239 q 758 1028 847 1101 q 531 956 669 956 m 167 894 l 863 894 l 817 674 l 419 674 l 394 560 l 740 560 l 693 333 l 347 333 l 322 221 l 719 221 l 674 0 l -22 0 l 167 894 z "},"Ě":{"ha":774,"x_min":-22,"x_max":913,"o":"m 279 1243 l 486 1243 l 556 1093 l 693 1243 l 913 1243 l 622 954 l 447 954 l 279 1243 m 167 894 l 863 894 l 817 674 l 419 674 l 394 560 l 740 560 l 693 333 l 347 333 l 322 221 l 719 221 l 674 0 l -22 0 l 167 894 z "},"Ê":{"ha":774,"x_min":-21,"x_max":864,"o":"m 503 1244 l 679 1244 l 847 956 l 644 956 l 571 1106 l 439 956 l 214 956 l 503 1244 m 168 894 l 864 894 l 818 674 l 421 674 l 396 560 l 742 560 l 694 333 l 349 333 l 324 221 l 721 221 l 675 0 l -21 0 l 168 894 z "},"Ế":{"ha":765,"x_min":-22,"x_max":1108,"o":"m 890 1361 l 1108 1361 l 949 1133 l 742 1133 l 890 1361 m 458 1178 l 675 1178 l 835 956 l 608 956 l 549 1063 l 447 956 l 203 956 l 458 1178 m 167 894 l 863 894 l 817 674 l 419 674 l 394 560 l 740 560 l 693 333 l 347 333 l 322 221 l 719 221 l 674 0 l -22 0 l 167 894 z "},"Ệ":{"ha":783,"x_min":-18,"x_max":867,"o":"m 497 1244 l 674 1244 l 842 956 l 639 956 l 565 1106 l 433 956 l 208 956 l 497 1244 m 171 894 l 867 894 l 821 674 l 424 674 l 399 560 l 744 560 l 697 333 l 351 333 l 326 221 l 724 221 l 678 0 l -18 0 l 171 894 m 211 -64 l 410 -64 l 371 -244 l 172 -244 l 211 -64 z "},"Ề":{"ha":765,"x_min":-22,"x_max":863,"o":"m 108 1361 l 328 1361 l 381 1133 l 172 1133 l 108 1361 m 465 1178 l 683 1178 l 843 956 l 613 956 l 554 1063 l 450 956 l 210 956 l 465 1178 m 167 894 l 863 894 l 817 674 l 419 674 l 394 560 l 740 560 l 693 333 l 347 333 l 322 221 l 719 221 l 674 0 l -22 0 l 167 894 z "},"Ể":{"ha":765,"x_min":-22,"x_max":1079,"o":"m 771 1208 q 851 1221 829 1210 q 872 1251 872 1232 q 860 1267 872 1263 q 825 1271 849 1271 q 754 1260 796 1271 l 779 1374 q 931 1390 842 1390 q 1041 1364 1003 1390 q 1079 1292 1079 1338 q 1076 1267 1079 1283 q 953 1146 1054 1164 l 943 1101 l 749 1101 l 771 1208 m 457 1178 l 675 1178 l 835 956 l 608 956 l 549 1063 l 446 956 l 201 956 l 457 1178 m 167 894 l 863 894 l 817 674 l 419 674 l 394 560 l 740 560 l 693 333 l 347 333 l 322 221 l 719 221 l 674 0 l -22 0 l 167 894 z "},"Ễ":{"ha":772,"x_min":-22,"x_max":863,"o":"m 704 1192 q 646 1199 674 1192 q 578 1222 618 1207 q 520 1242 544 1235 q 471 1249 496 1249 q 328 1196 389 1249 l 360 1342 q 420 1374 383 1361 q 496 1386 457 1386 q 553 1378 526 1386 q 617 1357 579 1371 q 678 1336 653 1343 q 729 1329 703 1329 q 806 1344 771 1329 q 863 1383 840 1358 l 832 1236 q 778 1205 814 1218 q 704 1192 743 1192 m 464 1178 l 682 1178 l 842 956 l 608 956 l 549 1063 l 446 956 l 208 956 l 464 1178 m 167 894 l 863 894 l 817 674 l 419 674 l 394 560 l 740 560 l 693 333 l 347 333 l 322 221 l 719 221 l 674 0 l -22 0 l 167 894 z "},"Ë":{"ha":772,"x_min":-22,"x_max":863,"o":"m 325 1176 l 524 1176 l 486 994 l 288 994 l 325 1176 m 638 1176 l 836 1176 l 799 994 l 600 994 l 638 1176 m 167 894 l 863 894 l 817 674 l 419 674 l 394 560 l 740 560 l 693 333 l 347 333 l 322 221 l 719 221 l 674 0 l -22 0 l 167 894 z "},"Ė":{"ha":772,"x_min":-22,"x_max":863,"o":"m 469 1176 l 668 1176 l 631 994 l 432 994 l 469 1176 m 167 894 l 863 894 l 817 674 l 419 674 l 394 560 l 740 560 l 693 333 l 347 333 l 322 221 l 719 221 l 674 0 l -22 0 l 167 894 z "},"Ẹ":{"ha":772,"x_min":-22,"x_max":863,"o":"m 167 894 l 863 894 l 817 674 l 419 674 l 394 560 l 740 560 l 693 333 l 347 333 l 322 221 l 719 221 l 674 0 l -22 0 l 167 894 m 199 -64 l 397 -64 l 358 -244 l 160 -244 l 199 -64 z "},"È":{"ha":772,"x_min":-22,"x_max":863,"o":"m 367 1256 l 599 1256 l 663 956 l 443 956 l 367 1256 m 167 894 l 863 894 l 817 674 l 419 674 l 394 560 l 740 560 l 693 333 l 347 333 l 322 221 l 719 221 l 674 0 l -22 0 l 167 894 z "},"Ẻ":{"ha":772,"x_min":-22,"x_max":863,"o":"m 436 1068 q 540 1089 510 1072 q 571 1135 571 1106 q 503 1168 571 1168 q 419 1156 463 1168 l 444 1275 q 619 1294 514 1294 q 749 1263 704 1294 q 794 1178 794 1231 q 792 1150 794 1160 q 744 1058 779 1090 q 646 1008 710 1026 l 635 956 l 413 956 l 436 1068 m 167 894 l 863 894 l 817 674 l 419 674 l 394 560 l 740 560 l 693 333 l 347 333 l 322 221 l 719 221 l 674 0 l -22 0 l 167 894 z "},"Ē":{"ha":772,"x_min":-22,"x_max":863,"o":"m 324 1182 l 793 1182 l 756 1007 l 286 1007 l 324 1182 m 167 894 l 863 894 l 817 674 l 419 674 l 394 560 l 740 560 l 693 333 l 347 333 l 322 221 l 719 221 l 674 0 l -22 0 l 167 894 z "},"Ę":{"ha":772,"x_min":-22,"x_max":863,"o":"m 444 -306 q 320 -279 365 -306 q 275 -199 275 -253 q 279 -167 275 -183 q 328 -72 290 -115 q 418 0 365 -29 l -22 0 l 167 894 l 863 894 l 817 674 l 419 674 l 394 560 l 740 560 l 693 333 l 347 333 l 322 221 l 719 221 l 674 0 l 604 0 q 507 -115 521 -54 q 506 -129 506 -121 q 557 -164 506 -164 q 631 -149 600 -164 l 601 -282 q 532 -299 575 -292 q 444 -306 489 -306 z "},"Ẽ":{"ha":772,"x_min":-22,"x_max":863,"o":"m 674 964 q 611 972 640 964 q 536 996 582 979 q 472 1017 496 1010 q 421 1024 447 1024 q 268 968 338 1024 l 307 1147 q 372 1181 332 1167 q 453 1194 413 1194 q 515 1187 486 1194 q 583 1164 543 1179 q 648 1142 621 1150 q 706 1135 675 1135 q 788 1151 750 1135 q 849 1192 825 1167 l 810 1011 q 753 978 792 992 q 674 964 715 964 m 167 894 l 863 894 l 817 674 l 419 674 l 394 560 l 740 560 l 693 333 l 347 333 l 322 221 l 719 221 l 674 0 l -22 0 l 167 894 z "},"F":{"ha":749,"x_min":-22,"x_max":860,"o":"m 167 894 l 860 894 l 814 676 l 419 676 l 394 558 l 736 558 l 689 335 l 347 335 l 276 0 l -22 0 l 167 894 z "},"G":{"ha":913,"x_min":31,"x_max":942,"o":"m 450 -14 q 142 74 254 -14 q 31 328 31 163 q 43 443 31 381 q 249 790 92 671 q 668 908 407 908 q 942 868 829 908 l 888 614 q 635 656 790 656 q 442 606 513 656 q 347 443 371 556 q 336 353 336 388 q 374 264 336 289 q 503 239 413 239 q 611 253 564 239 l 631 344 l 468 344 l 507 526 l 918 526 l 821 71 q 662 9 756 32 q 450 -14 568 -14 z "},"Ğ":{"ha":913,"x_min":31,"x_max":1000,"o":"m 654 956 q 485 1008 546 956 q 424 1160 424 1061 q 432 1239 424 1197 l 615 1239 q 610 1190 610 1215 q 626 1138 610 1157 q 682 1119 643 1119 q 763 1151 738 1119 q 800 1239 788 1182 l 1000 1239 q 882 1028 971 1101 q 654 956 793 956 m 450 -14 q 142 74 254 -14 q 31 328 31 163 q 43 443 31 381 q 249 790 92 671 q 668 908 407 908 q 942 868 829 908 l 888 614 q 635 656 790 656 q 442 606 513 656 q 347 443 371 556 q 336 353 336 388 q 374 264 336 289 q 503 239 413 239 q 611 253 564 239 l 631 344 l 468 344 l 507 526 l 918 526 l 821 71 q 662 9 756 32 q 450 -14 568 -14 z "},"Ǧ":{"ha":913,"x_min":31,"x_max":1025,"o":"m 392 1244 l 599 1244 l 668 1094 l 806 1244 l 1025 1244 l 735 956 l 560 956 l 392 1244 m 450 -14 q 142 74 254 -14 q 31 328 31 163 q 43 443 31 381 q 249 790 92 671 q 668 908 407 908 q 942 868 829 908 l 888 614 q 635 656 790 656 q 442 606 513 656 q 347 443 371 556 q 336 353 336 388 q 374 264 336 289 q 503 239 413 239 q 611 253 564 239 l 631 344 l 468 344 l 507 526 l 918 526 l 821 71 q 662 9 756 32 q 450 -14 568 -14 z "},"Ĝ":{"ha":913,"x_min":31,"x_max":949,"o":"m 604 1243 l 781 1243 l 949 954 l 746 954 l 672 1104 l 540 954 l 315 954 l 604 1243 m 450 -14 q 142 74 254 -14 q 31 328 31 163 q 43 443 31 381 q 249 790 92 671 q 668 908 407 908 q 942 868 829 908 l 888 614 q 635 656 790 656 q 442 606 513 656 q 347 443 371 556 q 336 353 336 388 q 374 264 336 289 q 503 239 413 239 q 611 253 564 239 l 631 344 l 468 344 l 507 526 l 918 526 l 821 71 q 662 9 756 32 q 450 -14 568 -14 z "},"Ģ":{"ha":913,"x_min":31,"x_max":942,"o":"m 450 -14 q 142 74 254 -14 q 31 328 31 163 q 43 443 31 381 q 249 790 92 671 q 668 908 407 908 q 942 868 829 908 l 888 614 q 635 656 790 656 q 442 606 513 656 q 347 443 371 556 q 336 353 336 388 q 374 264 336 289 q 503 239 413 239 q 611 253 564 239 l 631 344 l 468 344 l 507 526 l 918 526 l 821 71 q 662 9 756 32 q 450 -14 568 -14 m 343 -51 l 574 -51 l 418 -381 l 225 -381 l 343 -51 z "},"Ġ":{"ha":913,"x_min":31,"x_max":942,"o":"m 617 1176 l 815 1176 l 778 994 l 579 994 l 617 1176 m 450 -14 q 142 74 254 -14 q 31 328 31 163 q 43 443 31 381 q 249 790 92 671 q 668 908 407 908 q 942 868 829 908 l 888 614 q 635 656 790 656 q 442 606 513 656 q 347 443 371 556 q 336 353 336 388 q 374 264 336 289 q 503 239 413 239 q 611 253 564 239 l 631 344 l 468 344 l 507 526 l 918 526 l 821 71 q 662 9 756 32 q 450 -14 568 -14 z "},"Ḡ":{"ha":913,"x_min":31,"x_max":942,"o":"m 469 1171 l 939 1171 l 901 996 l 432 996 l 469 1171 m 450 -14 q 142 74 254 -14 q 31 328 31 163 q 43 443 31 381 q 249 790 92 671 q 668 908 407 908 q 942 868 829 908 l 888 614 q 635 656 790 656 q 442 606 513 656 q 347 443 371 556 q 336 353 336 388 q 374 264 336 289 q 503 239 413 239 q 611 253 564 239 l 631 344 l 468 344 l 507 526 l 918 526 l 821 71 q 662 9 756 32 q 450 -14 568 -14 z "},"H":{"ha":974,"x_min":-22,"x_max":1029,"o":"m 167 894 l 465 894 l 400 582 l 665 582 l 731 894 l 1029 894 l 840 0 l 542 0 l 607 313 l 342 313 l 276 0 l -22 0 l 167 894 z "},"Ħ":{"ha":989,"x_min":-15,"x_max":1085,"o":"m 122 651 l 60 651 l 96 818 l 157 818 l 174 894 l 472 894 l 456 818 l 721 818 l 738 894 l 1036 894 l 1019 818 l 1085 818 l 1049 651 l 985 651 l 847 0 l 549 0 l 614 313 l 349 313 l 283 0 l -15 0 l 122 651 m 672 582 l 686 651 l 421 651 l 407 582 l 672 582 z "},"Ḫ":{"ha":974,"x_min":-22,"x_max":1029,"o":"m 167 894 l 465 894 l 400 582 l 665 582 l 731 894 l 1029 894 l 840 0 l 542 0 l 607 313 l 342 313 l 276 0 l -22 0 l 167 894 m 338 -346 q 167 -293 228 -346 q 106 -142 106 -240 q 114 -62 106 -104 l 297 -62 q 292 -111 292 -86 q 308 -163 292 -144 q 364 -182 325 -182 q 444 -151 419 -182 q 481 -62 468 -121 l 682 -62 q 564 -273 653 -200 q 338 -346 475 -346 z "},"Ĥ":{"ha":974,"x_min":-22,"x_max":1029,"o":"m 582 1243 l 758 1243 l 926 954 l 724 954 l 650 1104 l 518 954 l 293 954 l 582 1243 m 167 894 l 465 894 l 400 582 l 665 582 l 731 894 l 1029 894 l 840 0 l 542 0 l 607 313 l 342 313 l 276 0 l -22 0 l 167 894 z "},"Ḥ":{"ha":974,"x_min":-22,"x_max":1029,"o":"m 167 894 l 465 894 l 400 582 l 665 582 l 731 894 l 1029 894 l 840 0 l 542 0 l 607 313 l 342 313 l 276 0 l -22 0 l 167 894 m 296 -64 l 494 -64 l 456 -244 l 257 -244 l 296 -64 z "},"I":{"ha":410,"x_min":-22,"x_max":465,"o":"m 167 894 l 465 894 l 276 0 l -22 0 l 167 894 z "},"Ĳ":{"ha":1033,"x_min":-22,"x_max":1096,"o":"m 167 894 l 465 894 l 276 0 l -22 0 l 167 894 m 539 -14 q 328 18 433 -14 l 381 265 q 532 239 439 239 q 638 265 607 239 q 685 360 669 292 l 797 894 l 1096 894 l 969 299 q 828 63 936 139 q 539 -14 719 -14 z "},"Í":{"ha":410,"x_min":-22,"x_max":636,"o":"m 406 1256 l 636 1256 l 432 956 l 214 956 l 406 1256 m 167 894 l 465 894 l 276 0 l -22 0 l 167 894 z "},"Ĭ":{"ha":410,"x_min":-22,"x_max":682,"o":"m 336 988 q 167 1040 228 988 q 106 1192 106 1093 q 114 1271 106 1229 l 297 1271 q 292 1222 292 1247 q 308 1170 292 1189 q 364 1151 325 1151 q 444 1183 419 1151 q 482 1271 469 1214 l 682 1271 q 564 1060 653 1133 q 336 988 475 988 m 167 894 l 465 894 l 276 0 l -22 0 l 167 894 z "},"Ǐ":{"ha":410,"x_min":-22,"x_max":707,"o":"m 74 1244 l 281 1244 l 350 1094 l 488 1244 l 707 1244 l 417 956 l 242 956 l 74 1244 m 167 894 l 465 894 l 276 0 l -22 0 l 167 894 z "},"Î":{"ha":410,"x_min":-22,"x_max":646,"o":"m 301 1244 l 478 1244 l 646 956 l 443 956 l 369 1106 l 238 956 l 13 956 l 301 1244 m 167 894 l 465 894 l 276 0 l -22 0 l 167 894 z "},"Ï":{"ha":410,"x_min":-22,"x_max":633,"o":"m 122 1188 l 321 1188 l 283 1006 l 85 1006 l 122 1188 m 435 1188 l 633 1188 l 596 1006 l 397 1006 l 435 1188 m 167 894 l 465 894 l 276 0 l -22 0 l 167 894 z "},"İ":{"ha":410,"x_min":-22,"x_max":476,"o":"m 278 1188 l 476 1188 l 439 1006 l 240 1006 l 278 1188 m 167 894 l 465 894 l 276 0 l -22 0 l 167 894 z "},"Ị":{"ha":410,"x_min":-24,"x_max":465,"o":"m 167 894 l 465 894 l 276 0 l -22 0 l 167 894 m 15 -64 l 214 -64 l 175 -244 l -24 -244 l 15 -64 z "},"Ì":{"ha":410,"x_min":-22,"x_max":465,"o":"m 144 1256 l 376 1256 l 440 956 l 221 956 l 144 1256 m 167 894 l 465 894 l 276 0 l -22 0 l 167 894 z "},"Ỉ":{"ha":410,"x_min":-22,"x_max":593,"o":"m 235 1068 q 339 1089 308 1072 q 369 1135 369 1106 q 301 1168 369 1168 q 218 1156 261 1168 l 243 1275 q 418 1294 313 1294 q 548 1263 503 1294 q 593 1178 593 1231 q 590 1150 593 1160 q 543 1058 578 1090 q 444 1008 508 1026 l 433 956 l 211 956 l 235 1068 m 167 894 l 465 894 l 276 0 l -22 0 l 167 894 z "},"Ī":{"ha":410,"x_min":-22,"x_max":613,"o":"m 143 1182 l 613 1182 l 575 1007 l 106 1007 l 143 1182 m 167 894 l 465 894 l 276 0 l -22 0 l 167 894 z "},"Į":{"ha":410,"x_min":-110,"x_max":465,"o":"m 60 -306 q -65 -279 -19 -306 q -110 -199 -110 -253 q -106 -167 -110 -183 q -57 -72 -94 -115 q 33 0 -19 -29 l -22 0 l 167 894 l 465 894 l 276 0 l 219 0 q 122 -115 136 -54 q 121 -129 121 -121 q 172 -164 121 -164 q 246 -149 215 -164 l 217 -282 q 147 -299 190 -292 q 60 -306 104 -306 z "},"Ĩ":{"ha":410,"x_min":-22,"x_max":654,"o":"m 479 996 q 417 1003 446 996 q 342 1028 388 1011 q 277 1049 301 1042 q 226 1056 253 1056 q 74 1000 143 1056 l 113 1179 q 178 1213 138 1199 q 258 1226 218 1226 q 320 1219 292 1226 q 389 1196 349 1211 q 453 1174 426 1182 q 511 1167 481 1167 q 593 1183 556 1167 q 654 1224 631 1199 l 615 1043 q 559 1010 597 1024 q 479 996 521 996 m 167 894 l 465 894 l 276 0 l -22 0 l 167 894 z "},"J":{"ha":631,"x_min":-75,"x_max":693,"o":"m 136 -14 q -75 18 31 -14 l -22 265 q 129 239 36 239 q 235 265 204 239 q 282 360 267 292 l 394 894 l 693 894 l 567 299 q 425 63 533 139 q 136 -14 317 -14 z "},"Ĵ":{"ha":631,"x_min":-75,"x_max":869,"o":"m 525 1244 l 701 1244 l 869 956 l 667 956 l 593 1106 l 461 956 l 236 956 l 525 1244 m 136 -14 q -75 18 31 -14 l -22 265 q 129 239 36 239 q 235 265 204 239 q 282 360 267 292 l 394 894 l 693 894 l 567 299 q 425 63 533 139 q 136 -14 317 -14 z "},"K":{"ha":978,"x_min":-22,"x_max":1036,"o":"m 167 894 l 465 894 l 406 611 l 699 894 l 1036 894 l 649 525 l 872 0 l 556 0 l 425 336 l 328 246 l 276 0 l -22 0 l 167 894 z "},"Ķ":{"ha":978,"x_min":-22,"x_max":1036,"o":"m 167 894 l 465 894 l 406 611 l 699 894 l 1036 894 l 649 525 l 872 0 l 556 0 l 425 336 l 328 246 l 276 0 l -22 0 l 167 894 m 297 -51 l 528 -51 l 372 -381 l 179 -381 l 297 -51 z "},"L":{"ha":738,"x_min":-22,"x_max":707,"o":"m 167 894 l 465 894 l 324 228 l 707 228 l 660 0 l -22 0 l 167 894 z "},"Ĺ":{"ha":738,"x_min":-22,"x_max":707,"o":"m 410 1256 l 640 1256 l 436 956 l 218 956 l 410 1256 m 167 894 l 465 894 l 324 228 l 707 228 l 660 0 l -22 0 l 167 894 z "},"Ľ":{"ha":738,"x_min":-22,"x_max":707,"o":"m 333 1285 l 564 1285 l 408 956 l 215 956 l 333 1285 m 167 894 l 465 894 l 324 228 l 707 228 l 660 0 l -22 0 l 167 894 z "},"Ļ":{"ha":738,"x_min":-22,"x_max":707,"o":"m 167 894 l 465 894 l 324 228 l 707 228 l 660 0 l -22 0 l 167 894 m 232 -51 l 463 -51 l 307 -381 l 114 -381 l 232 -51 z "},"Ŀ":{"ha":738,"x_min":-22,"x_max":724,"o":"m 167 894 l 465 894 l 324 228 l 707 228 l 660 0 l -22 0 l 167 894 m 525 599 l 724 599 l 686 417 l 488 417 l 525 599 z "},"Ḷ":{"ha":738,"x_min":-22,"x_max":707,"o":"m 167 894 l 465 894 l 324 228 l 707 228 l 660 0 l -22 0 l 167 894 m 194 -62 l 393 -62 l 354 -243 l 156 -243 l 194 -62 z "},"Ḹ":{"ha":740,"x_min":-19,"x_max":710,"o":"m 140 1171 l 610 1171 l 572 996 l 103 996 l 140 1171 m 169 894 l 468 894 l 326 228 l 710 228 l 663 0 l -19 0 l 169 894 m 196 -62 l 394 -62 l 356 -243 l 157 -243 l 196 -62 z "},"Ḻ":{"ha":738,"x_min":-22,"x_max":707,"o":"m 167 894 l 465 894 l 324 228 l 707 228 l 660 0 l -22 0 l 167 894 m 58 -68 l 528 -68 l 490 -243 l 21 -243 l 58 -68 z "},"Ł":{"ha":767,"x_min":-35,"x_max":735,"o":"m 72 315 l -35 272 l 10 482 l 117 525 l 194 894 l 493 894 l 442 656 l 561 703 l 517 493 l 397 444 l 351 228 l 735 228 l 688 0 l 6 0 l 72 315 z "},"M":{"ha":1086,"x_min":-22,"x_max":1142,"o":"m 167 894 l 443 894 l 558 482 l 846 894 l 1142 894 l 953 0 l 654 0 l 735 381 l 575 153 l 419 153 l 357 381 l 276 0 l -22 0 l 167 894 z "},"Ṃ":{"ha":1086,"x_min":-22,"x_max":1142,"o":"m 167 894 l 443 894 l 558 482 l 846 894 l 1142 894 l 953 0 l 654 0 l 735 381 l 575 153 l 419 153 l 357 381 l 276 0 l -22 0 l 167 894 m 356 -64 l 554 -64 l 515 -244 l 317 -244 l 356 -64 z "},"N":{"ha":956,"x_min":-22,"x_max":1011,"o":"m 167 894 l 418 894 l 625 482 l 713 894 l 1011 894 l 822 0 l 568 0 l 363 411 l 276 0 l -22 0 l 167 894 z "},"Ń":{"ha":956,"x_min":-22,"x_max":1011,"o":"m 647 1256 l 878 1256 l 674 956 l 456 956 l 647 1256 m 167 894 l 418 894 l 625 482 l 713 894 l 1011 894 l 822 0 l 568 0 l 363 411 l 276 0 l -22 0 l 167 894 z "},"Ň":{"ha":956,"x_min":-22,"x_max":1011,"o":"m 340 1244 l 547 1244 l 617 1094 l 754 1244 l 974 1244 l 683 956 l 508 956 l 340 1244 m 167 894 l 418 894 l 625 482 l 713 894 l 1011 894 l 822 0 l 568 0 l 363 411 l 276 0 l -22 0 l 167 894 z "},"Ņ":{"ha":956,"x_min":-22,"x_max":1011,"o":"m 167 894 l 418 894 l 625 482 l 713 894 l 1011 894 l 822 0 l 568 0 l 363 411 l 276 0 l -22 0 l 167 894 m 293 -51 l 524 -51 l 368 -381 l 175 -381 l 293 -51 z "},"Ṅ":{"ha":956,"x_min":-22,"x_max":1011,"o":"m 546 1176 l 744 1176 l 707 994 l 508 994 l 546 1176 m 167 894 l 418 894 l 625 482 l 713 894 l 1011 894 l 822 0 l 568 0 l 363 411 l 276 0 l -22 0 l 167 894 z "},"Ṇ":{"ha":956,"x_min":-22,"x_max":1011,"o":"m 167 894 l 418 894 l 625 482 l 713 894 l 1011 894 l 822 0 l 568 0 l 363 411 l 276 0 l -22 0 l 167 894 m 292 -64 l 490 -64 l 451 -244 l 253 -244 l 292 -64 z "},"Ŋ":{"ha":956,"x_min":-22,"x_max":1011,"o":"m 485 -325 q 301 -292 375 -325 l 342 -103 q 422 -117 378 -117 q 485 -103 467 -117 q 511 -51 504 -89 l 535 64 l 363 411 l 276 0 l -22 0 l 167 894 l 418 894 l 624 482 l 711 894 l 1011 894 l 806 -72 q 706 -263 778 -201 q 485 -325 633 -325 z "},"Ṉ":{"ha":956,"x_min":-22,"x_max":1011,"o":"m 167 894 l 418 894 l 625 482 l 713 894 l 1011 894 l 822 0 l 568 0 l 363 411 l 276 0 l -22 0 l 167 894 m 153 -69 l 622 -69 l 585 -244 l 115 -244 l 153 -69 z "},"Ñ":{"ha":956,"x_min":-22,"x_max":1011,"o":"m 756 964 q 693 972 722 964 q 618 996 664 979 q 553 1017 578 1010 q 503 1024 529 1024 q 350 968 419 1024 l 389 1147 q 454 1181 414 1167 q 535 1194 494 1194 q 597 1187 568 1194 q 665 1164 625 1179 q 730 1142 703 1150 q 788 1135 757 1135 q 869 1151 832 1135 q 931 1192 907 1167 l 892 1011 q 835 978 874 992 q 756 964 797 964 m 167 894 l 418 894 l 625 482 l 713 894 l 1011 894 l 822 0 l 568 0 l 363 411 l 276 0 l -22 0 l 167 894 z "},"O":{"ha":992,"x_min":29,"x_max":996,"o":"m 414 -14 q 131 66 233 -14 q 29 310 29 146 q 44 446 29 378 q 152 714 81 613 q 335 862 224 815 q 611 908 447 908 q 894 827 793 908 q 996 582 996 746 q 981 446 996 515 q 874 180 944 281 q 692 33 804 79 q 414 -14 579 -14 m 468 239 q 603 288 554 239 q 675 446 651 336 q 688 543 688 504 q 657 628 688 603 q 557 654 626 654 q 420 607 468 654 q 349 446 372 560 q 336 351 336 390 q 367 265 336 292 q 468 239 399 239 z "},"Ó":{"ha":992,"x_min":29,"x_max":996,"o":"m 681 1256 l 911 1256 l 707 956 l 489 956 l 681 1256 m 414 -14 q 131 66 233 -14 q 29 310 29 146 q 44 446 29 378 q 152 714 81 613 q 335 862 224 815 q 611 908 447 908 q 894 827 793 908 q 996 582 996 746 q 981 446 996 515 q 874 180 944 281 q 692 33 804 79 q 414 -14 579 -14 m 468 239 q 603 288 554 239 q 675 446 651 336 q 688 543 688 504 q 657 628 688 603 q 557 654 626 654 q 420 607 468 654 q 349 446 372 560 q 336 351 336 390 q 367 265 336 292 q 468 239 399 239 z "},"Ŏ":{"ha":992,"x_min":29,"x_max":996,"o":"m 619 956 q 450 1008 511 956 q 389 1160 389 1061 q 397 1239 389 1197 l 581 1239 q 575 1190 575 1215 q 592 1138 575 1157 q 647 1119 608 1119 q 728 1151 703 1119 q 765 1239 753 1182 l 965 1239 q 847 1028 936 1101 q 619 956 758 956 m 414 -14 q 131 66 233 -14 q 29 310 29 146 q 44 446 29 378 q 152 714 81 613 q 335 862 224 815 q 611 908 447 908 q 894 827 793 908 q 996 582 996 746 q 981 446 996 515 q 874 180 944 281 q 692 33 804 79 q 414 -14 579 -14 m 468 239 q 603 288 554 239 q 675 446 651 336 q 688 543 688 504 q 657 628 688 603 q 557 654 626 654 q 420 607 468 654 q 349 446 372 560 q 336 351 336 390 q 367 265 336 292 q 468 239 399 239 z "},"Ǒ":{"ha":992,"x_min":29,"x_max":997,"o":"m 364 1244 l 571 1244 l 640 1094 l 778 1244 l 997 1244 l 707 956 l 532 956 l 364 1244 m 414 -14 q 131 66 233 -14 q 29 310 29 146 q 44 446 29 378 q 152 714 81 613 q 335 862 224 815 q 611 908 447 908 q 894 827 793 908 q 996 582 996 746 q 981 446 996 515 q 874 180 944 281 q 692 33 804 79 q 414 -14 579 -14 m 468 239 q 603 288 554 239 q 675 446 651 336 q 688 543 688 504 q 657 628 688 603 q 557 654 626 654 q 420 607 468 654 q 349 446 372 560 q 336 351 336 390 q 367 265 336 292 q 468 239 399 239 z "},"Ô":{"ha":992,"x_min":29,"x_max":996,"o":"m 593 1244 l 769 1244 l 938 956 l 735 956 l 661 1106 l 529 956 l 304 956 l 593 1244 m 414 -14 q 131 66 233 -14 q 29 310 29 146 q 44 446 29 378 q 152 714 81 613 q 335 862 224 815 q 611 908 447 908 q 894 827 793 908 q 996 582 996 746 q 981 446 996 515 q 874 180 944 281 q 692 33 804 79 q 414 -14 579 -14 m 468 239 q 603 288 554 239 q 675 446 651 336 q 688 543 688 504 q 657 628 688 603 q 557 654 626 654 q 420 607 468 654 q 349 446 372 560 q 336 351 336 390 q 367 265 336 292 q 468 239 399 239 z "},"Ố":{"ha":992,"x_min":29,"x_max":1207,"o":"m 989 1361 l 1207 1361 l 1047 1133 l 840 1133 l 989 1361 m 557 1178 l 774 1178 l 933 956 l 707 956 l 647 1063 l 546 956 l 301 956 l 557 1178 m 414 -14 q 131 66 233 -14 q 29 310 29 146 q 44 446 29 378 q 152 714 81 613 q 335 862 224 815 q 611 908 447 908 q 894 827 793 908 q 996 582 996 746 q 981 446 996 515 q 874 180 944 281 q 692 33 804 79 q 414 -14 579 -14 m 468 239 q 603 288 554 239 q 675 446 651 336 q 688 543 688 504 q 657 628 688 603 q 557 654 626 654 q 420 607 468 654 q 349 446 372 560 q 336 351 336 390 q 367 265 336 292 q 468 239 399 239 z "},"Ộ":{"ha":992,"x_min":29,"x_max":996,"o":"m 593 1244 l 769 1244 l 938 956 l 735 956 l 661 1106 l 529 956 l 304 956 l 593 1244 m 414 -14 q 131 66 233 -14 q 29 310 29 146 q 44 446 29 378 q 152 714 81 613 q 335 862 224 815 q 611 908 447 908 q 894 827 793 908 q 996 582 996 746 q 981 446 996 515 q 874 180 944 281 q 692 33 804 79 q 414 -14 579 -14 m 468 239 q 603 288 554 239 q 675 446 651 336 q 688 543 688 504 q 657 628 688 603 q 557 654 626 654 q 420 607 468 654 q 349 446 372 560 q 336 351 336 390 q 367 265 336 292 q 468 239 399 239 m 308 -64 l 507 -64 l 468 -244 l 269 -244 l 308 -64 z "},"Ồ":{"ha":992,"x_min":29,"x_max":996,"o":"m 204 1361 l 424 1361 l 476 1133 l 268 1133 l 204 1361 m 561 1178 l 779 1178 l 939 956 l 708 956 l 650 1063 l 546 956 l 306 956 l 561 1178 m 414 -14 q 131 66 233 -14 q 29 310 29 146 q 44 446 29 378 q 152 714 81 613 q 335 862 224 815 q 611 908 447 908 q 894 827 793 908 q 996 582 996 746 q 981 446 996 515 q 874 180 944 281 q 692 33 804 79 q 414 -14 579 -14 m 468 239 q 603 288 554 239 q 675 446 651 336 q 688 543 688 504 q 657 628 688 603 q 557 654 626 654 q 420 607 468 654 q 349 446 372 560 q 336 351 336 390 q 367 265 336 292 q 468 239 399 239 z "},"Ổ":{"ha":992,"x_min":29,"x_max":1178,"o":"m 869 1208 q 949 1221 928 1210 q 971 1251 971 1232 q 959 1267 971 1263 q 924 1271 947 1271 q 853 1260 894 1271 l 878 1374 q 1029 1390 940 1390 q 1140 1364 1101 1390 q 1178 1292 1178 1338 q 1175 1267 1178 1283 q 1051 1146 1153 1164 l 1042 1101 l 847 1101 l 869 1208 m 556 1178 l 774 1178 l 933 956 l 707 956 l 647 1063 l 544 956 l 300 956 l 556 1178 m 414 -14 q 131 66 233 -14 q 29 310 29 146 q 44 446 29 378 q 152 714 81 613 q 335 862 224 815 q 611 908 447 908 q 894 827 793 908 q 996 582 996 746 q 981 446 996 515 q 874 180 944 281 q 692 33 804 79 q 414 -14 579 -14 m 468 239 q 603 288 554 239 q 675 446 651 336 q 688 543 688 504 q 657 628 688 603 q 557 654 626 654 q 420 607 468 654 q 349 446 372 560 q 336 351 336 390 q 367 265 336 292 q 468 239 399 239 z "},"Ỗ":{"ha":992,"x_min":29,"x_max":996,"o":"m 811 1235 q 753 1242 781 1235 q 685 1265 725 1250 q 627 1285 651 1278 q 578 1292 603 1292 q 435 1239 496 1292 l 467 1385 q 526 1417 489 1404 q 603 1429 564 1429 q 660 1422 633 1429 q 724 1400 686 1414 q 785 1379 760 1386 q 836 1372 810 1372 q 913 1387 878 1372 q 969 1426 949 1401 l 939 1279 q 885 1248 921 1261 q 811 1235 850 1235 m 621 956 q 462 1003 521 956 q 403 1142 403 1050 q 410 1206 403 1167 l 572 1206 q 567 1164 567 1175 q 586 1115 567 1131 q 647 1100 606 1100 q 768 1206 750 1100 l 938 1206 q 621 956 886 956 m 414 -14 q 131 66 233 -14 q 29 310 29 146 q 44 446 29 378 q 152 714 81 613 q 335 862 224 815 q 611 908 447 908 q 894 827 793 908 q 996 582 996 746 q 981 446 996 515 q 874 180 944 281 q 692 33 804 79 q 414 -14 579 -14 m 468 239 q 603 288 554 239 q 675 446 651 336 q 688 543 688 504 q 657 628 688 603 q 557 654 626 654 q 420 607 468 654 q 349 446 372 560 q 336 351 336 390 q 367 265 336 292 q 468 239 399 239 z "},"Ö":{"ha":992,"x_min":29,"x_max":996,"o":"m 411 1176 l 610 1176 l 572 994 l 374 994 l 411 1176 m 724 1176 l 922 1176 l 885 994 l 686 994 l 724 1176 m 414 -14 q 131 66 233 -14 q 29 310 29 146 q 44 446 29 378 q 152 714 81 613 q 335 862 224 815 q 611 908 447 908 q 894 827 793 908 q 996 582 996 746 q 981 446 996 515 q 874 180 944 281 q 692 33 804 79 q 414 -14 579 -14 m 468 239 q 603 288 554 239 q 675 446 651 336 q 688 543 688 504 q 657 628 688 603 q 557 654 626 654 q 420 607 468 654 q 349 446 372 560 q 336 351 336 390 q 367 265 336 292 q 468 239 399 239 z "},"Ọ":{"ha":992,"x_min":29,"x_max":996,"o":"m 414 -14 q 131 66 233 -14 q 29 310 29 146 q 44 446 29 378 q 152 714 81 613 q 335 862 224 815 q 611 908 447 908 q 894 827 793 908 q 996 582 996 746 q 981 446 996 515 q 874 180 944 281 q 692 33 804 79 q 414 -14 579 -14 m 468 239 q 603 288 554 239 q 675 446 651 336 q 688 543 688 504 q 657 628 688 603 q 557 654 626 654 q 420 607 468 654 q 349 446 372 560 q 336 351 336 390 q 367 265 336 292 q 468 239 399 239 m 307 -64 l 506 -64 l 467 -244 l 268 -244 l 307 -64 z "},"Ò":{"ha":992,"x_min":29,"x_max":996,"o":"m 442 1256 l 674 1256 l 738 956 l 518 956 l 442 1256 m 414 -14 q 131 66 233 -14 q 29 310 29 146 q 44 446 29 378 q 152 714 81 613 q 335 862 224 815 q 611 908 447 908 q 894 827 793 908 q 996 582 996 746 q 981 446 996 515 q 874 180 944 281 q 692 33 804 79 q 414 -14 579 -14 m 468 239 q 603 288 554 239 q 675 446 651 336 q 688 543 688 504 q 657 628 688 603 q 557 654 626 654 q 420 607 468 654 q 349 446 372 560 q 336 351 336 390 q 367 265 336 292 q 468 239 399 239 z "},"Ỏ":{"ha":992,"x_min":29,"x_max":996,"o":"m 525 1068 q 629 1089 599 1072 q 660 1135 660 1106 q 592 1168 660 1168 q 508 1156 551 1168 l 533 1275 q 708 1294 603 1294 q 838 1263 793 1294 q 883 1178 883 1231 q 881 1150 883 1160 q 833 1058 868 1090 q 735 1008 799 1026 l 724 956 l 501 956 l 525 1068 m 414 -14 q 131 66 233 -14 q 29 310 29 146 q 44 446 29 378 q 152 714 81 613 q 335 862 224 815 q 611 908 447 908 q 894 827 793 908 q 996 582 996 746 q 981 446 996 515 q 874 180 944 281 q 692 33 804 79 q 414 -14 579 -14 m 468 239 q 603 288 554 239 q 675 446 651 336 q 688 543 688 504 q 657 628 688 603 q 557 654 626 654 q 420 607 468 654 q 349 446 372 560 q 336 351 336 390 q 367 265 336 292 q 468 239 399 239 z "},"Ơ":{"ha":1118,"x_min":29,"x_max":1229,"o":"m 414 -14 q 131 66 233 -14 q 29 310 29 146 q 44 446 29 378 q 152 714 81 613 q 335 862 224 815 q 611 908 447 908 q 903 819 801 908 q 997 853 965 822 q 1044 956 1029 883 l 1229 956 q 1144 755 1200 822 q 988 664 1088 688 q 996 579 996 625 q 981 446 996 522 q 874 180 944 281 q 692 33 804 79 q 414 -14 579 -14 m 468 239 q 603 288 554 239 q 675 446 651 336 q 688 543 688 504 q 657 628 688 603 q 557 654 626 654 q 420 607 468 654 q 349 446 372 560 q 336 351 336 390 q 367 265 336 292 q 468 239 399 239 z "},"Ớ":{"ha":1118,"x_min":29,"x_max":1229,"o":"m 703 1256 l 933 1256 l 729 956 l 511 956 l 703 1256 m 414 -14 q 131 66 233 -14 q 29 310 29 146 q 44 446 29 378 q 152 714 81 613 q 335 862 224 815 q 611 908 447 908 q 903 819 801 908 q 997 853 965 822 q 1044 956 1029 883 l 1229 956 q 1144 755 1200 822 q 988 664 1088 688 q 996 579 996 625 q 981 446 996 522 q 874 180 944 281 q 692 33 804 79 q 414 -14 579 -14 m 468 239 q 603 288 554 239 q 675 446 651 336 q 688 543 688 504 q 657 628 688 603 q 557 654 626 654 q 420 607 468 654 q 349 446 372 560 q 336 351 336 390 q 367 265 336 292 q 468 239 399 239 z "},"Ợ":{"ha":1118,"x_min":29,"x_max":1229,"o":"m 414 -14 q 131 66 233 -14 q 29 310 29 146 q 44 446 29 378 q 152 714 81 613 q 335 862 224 815 q 611 908 447 908 q 903 819 801 908 q 997 853 965 822 q 1044 956 1029 883 l 1229 956 q 1144 755 1200 822 q 988 664 1088 688 q 996 579 996 625 q 981 446 996 522 q 874 180 944 281 q 692 33 804 79 q 414 -14 579 -14 m 468 239 q 603 288 554 239 q 675 446 651 336 q 688 543 688 504 q 657 628 688 603 q 557 654 626 654 q 420 607 468 654 q 349 446 372 560 q 336 351 336 390 q 367 265 336 292 q 468 239 399 239 m 306 -64 l 504 -64 l 465 -244 l 267 -244 l 306 -64 z "},"Ờ":{"ha":1118,"x_min":29,"x_max":1229,"o":"m 453 1256 l 685 1256 l 749 956 l 529 956 l 453 1256 m 414 -14 q 131 66 233 -14 q 29 310 29 146 q 44 446 29 378 q 152 714 81 613 q 335 862 224 815 q 611 908 447 908 q 903 819 801 908 q 997 853 965 822 q 1044 956 1029 883 l 1229 956 q 1144 755 1200 822 q 988 664 1088 688 q 996 579 996 625 q 981 446 996 522 q 874 180 944 281 q 692 33 804 79 q 414 -14 579 -14 m 468 239 q 603 288 554 239 q 675 446 651 336 q 688 543 688 504 q 657 628 688 603 q 557 654 626 654 q 420 607 468 654 q 349 446 372 560 q 336 351 336 390 q 367 265 336 292 q 468 239 399 239 z "},"Ở":{"ha":1118,"x_min":29,"x_max":1229,"o":"m 528 1068 q 632 1089 601 1072 q 663 1135 663 1106 q 594 1168 663 1168 q 511 1156 554 1168 l 536 1275 q 711 1294 606 1294 q 841 1263 796 1294 q 886 1178 886 1231 q 883 1150 886 1160 q 836 1058 871 1090 q 738 1008 801 1026 l 726 956 l 504 956 l 528 1068 m 414 -14 q 131 66 233 -14 q 29 310 29 146 q 44 446 29 378 q 152 714 81 613 q 335 862 224 815 q 611 908 447 908 q 903 819 801 908 q 997 853 965 822 q 1044 956 1029 883 l 1229 956 q 1144 755 1200 822 q 988 664 1088 688 q 996 579 996 625 q 981 446 996 522 q 874 180 944 281 q 692 33 804 79 q 414 -14 579 -14 m 468 239 q 603 288 554 239 q 675 446 651 336 q 688 543 688 504 q 657 628 688 603 q 557 654 626 654 q 420 607 468 654 q 349 446 372 560 q 336 351 336 390 q 367 265 336 292 q 468 239 399 239 z "},"Ỡ":{"ha":1118,"x_min":29,"x_max":1229,"o":"m 764 958 q 701 966 731 958 q 626 990 672 974 q 562 1011 586 1004 q 511 1018 538 1018 q 358 963 428 1018 l 397 1142 q 463 1175 422 1161 q 543 1189 503 1189 q 605 1181 576 1189 q 674 1158 633 1174 q 738 1137 711 1144 q 796 1129 765 1129 q 878 1145 840 1129 q 939 1186 915 1161 l 900 1006 q 844 972 882 986 q 764 958 806 958 m 414 -14 q 131 66 233 -14 q 29 310 29 146 q 44 446 29 378 q 152 714 81 613 q 335 862 224 815 q 611 908 447 908 q 903 819 801 908 q 997 853 965 822 q 1044 956 1029 883 l 1229 956 q 1144 755 1200 822 q 988 664 1088 688 q 996 579 996 625 q 981 446 996 522 q 874 180 944 281 q 692 33 804 79 q 414 -14 579 -14 m 468 239 q 603 288 554 239 q 675 446 651 336 q 688 543 688 504 q 657 628 688 603 q 557 654 626 654 q 420 607 468 654 q 349 446 372 560 q 336 351 336 390 q 367 265 336 292 q 468 239 399 239 z "},"Ő":{"ha":992,"x_min":29,"x_max":1069,"o":"m 468 1225 l 719 1225 l 514 956 l 286 956 l 468 1225 m 817 1225 l 1069 1225 l 863 956 l 635 956 l 817 1225 m 414 -14 q 131 66 233 -14 q 29 310 29 146 q 44 446 29 378 q 152 714 81 613 q 335 862 224 815 q 611 908 447 908 q 894 827 793 908 q 996 582 996 746 q 981 446 996 515 q 874 180 944 281 q 692 33 804 79 q 414 -14 579 -14 m 468 239 q 603 288 554 239 q 675 446 651 336 q 688 543 688 504 q 657 628 688 603 q 557 654 626 654 q 420 607 468 654 q 349 446 372 560 q 336 351 336 390 q 367 265 336 292 q 468 239 399 239 z "},"Ō":{"ha":992,"x_min":29,"x_max":996,"o":"m 428 1183 l 897 1183 l 860 1008 l 390 1008 l 428 1183 m 414 -14 q 131 66 233 -14 q 29 310 29 146 q 44 446 29 378 q 152 714 81 613 q 335 862 224 815 q 611 908 447 908 q 894 827 793 908 q 996 582 996 746 q 981 446 996 515 q 874 180 944 281 q 692 33 804 79 q 414 -14 579 -14 m 468 239 q 603 288 554 239 q 675 446 651 336 q 688 543 688 504 q 657 628 688 603 q 557 654 626 654 q 420 607 468 654 q 349 446 372 560 q 336 351 336 390 q 367 265 336 292 q 468 239 399 239 z "},"Ø":{"ha":992,"x_min":29,"x_max":996,"o":"m 189 29 q 29 308 29 106 q 44 446 29 378 q 152 714 81 613 q 335 862 224 815 q 611 908 447 908 q 724 899 675 908 l 763 963 l 888 963 l 829 867 q 996 582 996 790 q 981 446 996 515 q 874 180 944 281 q 692 33 804 79 q 414 -14 579 -14 q 294 -4 344 -14 l 251 -74 l 126 -74 l 189 29 m 572 654 l 557 654 q 420 607 468 654 q 349 446 372 560 q 336 351 336 390 q 349 289 336 314 l 572 654 m 468 239 q 603 288 554 239 q 675 446 651 336 q 688 543 688 503 q 672 611 688 585 l 443 239 l 468 239 z "},"Ǿ":{"ha":992,"x_min":29,"x_max":996,"o":"m 667 1256 l 897 1256 l 693 956 l 475 956 l 667 1256 m 189 29 q 29 308 29 106 q 44 446 29 378 q 152 714 81 613 q 335 862 224 815 q 611 908 447 908 q 724 899 675 908 l 763 963 l 888 963 l 829 867 q 996 582 996 790 q 981 446 996 515 q 874 180 944 281 q 692 33 804 79 q 414 -14 579 -14 q 294 -4 344 -14 l 251 -74 l 126 -74 l 189 29 m 572 654 l 557 654 q 420 607 468 654 q 349 446 372 560 q 336 351 336 390 q 349 289 336 314 l 572 654 m 468 239 q 603 288 554 239 q 675 446 651 336 q 688 543 688 503 q 672 611 688 585 l 443 239 l 468 239 z "},"Õ":{"ha":992,"x_min":29,"x_max":996,"o":"m 768 989 q 706 997 735 989 q 631 1021 676 1004 q 566 1042 590 1035 q 515 1049 542 1049 q 363 993 432 1049 l 401 1172 q 467 1206 426 1192 q 547 1219 507 1219 q 609 1212 581 1219 q 678 1189 638 1204 q 742 1167 715 1175 q 800 1160 769 1160 q 882 1176 844 1160 q 943 1217 919 1192 l 904 1036 q 848 1003 886 1017 q 768 989 810 989 m 414 -14 q 131 66 233 -14 q 29 310 29 146 q 44 446 29 378 q 152 714 81 613 q 335 862 224 815 q 611 908 447 908 q 894 827 793 908 q 996 582 996 746 q 981 446 996 515 q 874 180 944 281 q 692 33 804 79 q 414 -14 579 -14 m 468 239 q 603 288 554 239 q 675 446 651 336 q 688 543 688 504 q 657 628 688 603 q 557 654 626 654 q 420 607 468 654 q 349 446 372 560 q 336 351 336 390 q 367 265 336 292 q 468 239 399 239 z "},"Œ":{"ha":1385,"x_min":32,"x_max":1468,"o":"m 417 -14 q 134 66 236 -14 q 32 310 32 146 q 47 446 32 378 q 155 714 83 613 q 338 862 226 815 q 614 908 450 908 q 772 894 675 908 l 1468 894 l 1422 674 l 1025 674 l 1000 560 l 1346 560 l 1299 333 l 953 333 l 928 221 l 1325 221 l 1279 0 l 583 0 q 417 -14 510 -14 m 471 239 q 606 288 557 239 q 678 446 654 336 q 690 543 690 504 q 660 628 690 603 q 560 654 629 654 q 423 607 471 654 q 351 446 375 560 q 339 351 339 390 q 370 265 339 292 q 471 239 401 239 z "},"P":{"ha":868,"x_min":-22,"x_max":917,"o":"m 167 894 l 632 894 q 843 822 769 894 q 917 632 917 749 q 908 556 917 596 q 775 308 878 396 q 500 219 672 219 l 322 219 l 276 0 l -22 0 l 167 894 m 481 451 q 565 478 536 451 q 604 556 593 504 q 608 594 608 576 q 531 663 608 663 l 417 663 l 372 451 l 481 451 z "},"Þ":{"ha":896,"x_min":-22,"x_max":894,"o":"m 167 894 l 465 894 l 442 781 l 625 781 q 825 715 756 781 q 894 533 894 649 q 885 446 894 500 q 750 203 854 294 q 478 113 646 113 l 300 113 l 276 0 l -22 0 l 167 894 m 457 343 q 541 369 513 343 q 581 446 569 396 q 585 483 585 467 q 507 550 585 550 l 393 550 l 349 343 l 457 343 z "},"Q":{"ha":992,"x_min":28,"x_max":996,"o":"m 507 -239 q 347 -192 403 -239 q 290 -58 290 -144 q 296 -4 290 -43 q 98 96 168 18 q 28 308 28 174 q 44 446 28 371 q 152 714 81 613 q 335 862 224 815 q 611 908 447 908 q 894 827 793 908 q 996 582 996 746 q 981 446 996 515 q 826 123 933 231 q 531 -7 719 15 q 529 -25 529 -14 q 543 -55 529 -47 q 593 -62 557 -62 q 689 -47 640 -62 l 653 -221 q 585 -234 625 -229 q 507 -239 544 -239 m 468 239 q 603 288 554 239 q 675 446 651 336 q 688 543 688 504 q 657 628 688 603 q 557 654 626 654 q 420 607 468 654 q 349 446 372 560 q 336 351 336 390 q 367 265 336 292 q 468 239 399 239 z "},"R":{"ha":896,"x_min":-22,"x_max":918,"o":"m 167 894 l 650 894 q 847 827 776 894 q 918 647 918 760 q 910 568 918 610 q 835 409 892 478 q 692 300 778 340 q 724 239 714 279 l 778 0 l 467 0 l 418 207 q 403 236 414 228 q 371 244 393 244 l 328 244 l 276 0 l -22 0 l 167 894 m 486 475 q 568 498 540 475 q 606 568 596 521 q 610 606 610 589 q 592 649 610 635 q 533 663 575 663 l 417 663 l 376 475 l 486 475 z "},"Ŕ":{"ha":896,"x_min":-22,"x_max":918,"o":"m 582 1256 l 813 1256 l 608 956 l 390 956 l 582 1256 m 167 894 l 650 894 q 847 827 776 894 q 918 647 918 760 q 910 568 918 610 q 835 409 892 478 q 692 300 778 340 q 724 239 714 279 l 778 0 l 467 0 l 418 207 q 403 236 414 228 q 371 244 393 244 l 328 244 l 276 0 l -22 0 l 167 894 m 486 475 q 568 498 540 475 q 606 568 596 521 q 610 606 610 589 q 592 649 610 635 q 533 663 575 663 l 417 663 l 376 475 l 486 475 z "},"Ř":{"ha":896,"x_min":-22,"x_max":918,"o":"m 265 1244 l 472 1244 l 542 1094 l 679 1244 l 899 1244 l 608 956 l 433 956 l 265 1244 m 167 894 l 650 894 q 847 827 776 894 q 918 647 918 760 q 910 568 918 610 q 835 409 892 478 q 692 300 778 340 q 724 239 714 279 l 778 0 l 467 0 l 418 207 q 403 236 414 228 q 371 244 393 244 l 328 244 l 276 0 l -22 0 l 167 894 m 486 475 q 568 498 540 475 q 606 568 596 521 q 610 606 610 589 q 592 649 610 635 q 533 663 575 663 l 417 663 l 376 475 l 486 475 z "},"Ŗ":{"ha":896,"x_min":-22,"x_max":918,"o":"m 167 894 l 650 894 q 847 827 776 894 q 918 647 918 760 q 910 568 918 610 q 835 409 892 478 q 692 300 778 340 q 724 239 714 279 l 778 0 l 467 0 l 418 207 q 403 236 414 228 q 371 244 393 244 l 328 244 l 276 0 l -22 0 l 167 894 m 486 475 q 568 498 540 475 q 606 568 596 521 q 610 606 610 589 q 592 649 610 635 q 533 663 575 663 l 417 663 l 376 475 l 486 475 m 239 -51 l 469 -51 l 314 -381 l 121 -381 l 239 -51 z "},"Ṛ":{"ha":896,"x_min":-22,"x_max":918,"o":"m 167 894 l 650 894 q 847 827 776 894 q 918 647 918 760 q 910 568 918 610 q 835 409 892 478 q 692 300 778 340 q 724 239 714 279 l 778 0 l 467 0 l 418 207 q 403 236 414 228 q 371 244 393 244 l 328 244 l 276 0 l -22 0 l 167 894 m 486 475 q 568 498 540 475 q 606 568 596 521 q 610 606 610 589 q 592 649 610 635 q 533 663 575 663 l 417 663 l 376 475 l 486 475 m 233 -62 l 432 -62 l 393 -243 l 194 -243 l 233 -62 z "},"Ṝ":{"ha":896,"x_min":-22,"x_max":918,"o":"m 325 1171 l 794 1171 l 757 996 l 288 996 l 325 1171 m 167 894 l 650 894 q 847 827 776 894 q 918 647 918 760 q 910 568 918 610 q 835 409 892 478 q 692 300 778 340 q 724 239 714 279 l 778 0 l 467 0 l 418 207 q 403 236 414 228 q 371 244 393 244 l 328 244 l 276 0 l -22 0 l 167 894 m 486 475 q 568 498 540 475 q 606 568 596 521 q 610 606 610 589 q 592 649 610 635 q 533 663 575 663 l 417 663 l 376 475 l 486 475 m 226 -62 l 425 -62 l 386 -243 l 188 -243 l 226 -62 z "},"Ṟ":{"ha":896,"x_min":-22,"x_max":918,"o":"m 167 894 l 650 894 q 847 827 776 894 q 918 647 918 760 q 910 568 918 610 q 835 409 892 478 q 692 300 778 340 q 724 239 714 279 l 778 0 l 467 0 l 418 207 q 403 236 414 228 q 371 244 393 244 l 328 244 l 276 0 l -22 0 l 167 894 m 486 475 q 568 498 540 475 q 606 568 596 521 q 610 606 610 589 q 592 649 610 635 q 533 663 575 663 l 417 663 l 376 475 l 486 475 m 96 -68 l 565 -68 l 528 -243 l 58 -243 l 96 -68 z "},"S":{"ha":774,"x_min":-32,"x_max":803,"o":"m 275 -14 q 102 1 183 -14 q -32 44 21 17 l 18 278 q 152 228 78 247 q 290 208 226 208 q 380 220 349 208 q 417 261 411 232 q 399 302 422 288 q 308 340 376 317 q 260 357 290 346 q 121 441 167 392 q 75 567 75 490 q 83 633 75 599 q 219 842 114 776 q 525 908 325 908 q 672 896 593 908 q 803 867 750 883 l 753 632 q 526 683 635 683 q 425 672 463 683 q 388 628 388 661 q 413 597 388 608 q 524 561 438 586 q 684 472 636 528 q 732 336 732 415 q 724 263 732 300 q 584 59 696 132 q 275 -14 472 -14 z "},"Ś":{"ha":774,"x_min":-32,"x_max":806,"o":"m 575 1256 l 806 1256 l 601 956 l 383 956 l 575 1256 m 275 -14 q 102 1 183 -14 q -32 44 21 17 l 18 278 q 152 228 78 247 q 290 208 226 208 q 380 220 349 208 q 417 261 411 232 q 399 302 422 288 q 308 340 376 317 q 260 357 290 346 q 121 441 167 392 q 75 567 75 490 q 83 633 75 599 q 219 842 114 776 q 525 908 325 908 q 672 896 593 908 q 803 867 750 883 l 753 632 q 526 683 635 683 q 425 672 463 683 q 388 628 388 661 q 413 597 388 608 q 524 561 438 586 q 684 472 636 528 q 732 336 732 415 q 724 263 732 300 q 584 59 696 132 q 275 -14 472 -14 z "},"Š":{"ha":774,"x_min":-32,"x_max":885,"o":"m 251 1244 l 458 1244 l 528 1094 l 665 1244 l 885 1244 l 594 956 l 419 956 l 251 1244 m 275 -14 q 102 1 183 -14 q -32 44 21 17 l 18 278 q 152 228 78 247 q 290 208 226 208 q 380 220 349 208 q 417 261 411 232 q 399 302 422 288 q 308 340 376 317 q 260 357 290 346 q 121 441 167 392 q 75 567 75 490 q 83 633 75 599 q 219 842 114 776 q 525 908 325 908 q 672 896 593 908 q 803 867 750 883 l 753 632 q 526 683 635 683 q 425 672 463 683 q 388 628 388 661 q 413 597 388 608 q 524 561 438 586 q 684 472 636 528 q 732 336 732 415 q 724 263 732 300 q 584 59 696 132 q 275 -14 472 -14 z "},"Ş":{"ha":774,"x_min":-32,"x_max":803,"o":"m 197 -333 q 133 -330 171 -333 q 82 -322 96 -326 l 104 -218 q 183 -229 142 -229 q 265 -215 238 -229 q 292 -169 292 -200 q 278 -147 292 -153 q 236 -140 264 -140 l 140 -140 l 204 -11 q -32 44 56 -3 l 18 278 q 152 228 78 247 q 290 208 226 208 q 380 220 349 208 q 417 261 411 232 q 399 302 422 288 q 308 340 376 317 q 260 357 290 346 q 121 441 167 392 q 75 567 75 490 q 83 633 75 599 q 219 842 114 776 q 525 908 325 908 q 672 896 593 908 q 803 867 750 883 l 753 632 q 526 683 635 683 q 425 672 463 683 q 388 628 388 661 q 413 597 388 608 q 524 561 438 586 q 684 472 636 528 q 732 336 732 415 q 724 263 732 300 q 608 76 699 147 q 360 -10 518 6 l 333 -54 q 429 -81 397 -54 q 461 -156 461 -108 q 458 -186 461 -175 q 376 -294 443 -256 q 197 -333 310 -333 z "},"Ŝ":{"ha":803,"x_min":-3,"x_max":839,"o":"m 494 1244 l 671 1244 l 839 956 l 636 956 l 563 1106 l 431 956 l 206 956 l 494 1244 m 304 -14 q 131 1 213 -14 q -3 44 50 17 l 47 278 q 181 228 107 247 q 319 208 256 208 q 409 220 378 208 q 446 261 440 232 q 428 302 451 288 q 338 340 406 317 q 289 357 319 346 q 150 441 196 392 q 104 567 104 490 q 113 633 104 599 q 249 842 143 776 q 554 908 354 908 q 700 896 621 908 q 832 867 779 883 l 782 632 q 556 683 664 683 q 454 672 492 683 q 417 628 417 661 q 442 597 417 608 q 553 561 467 586 q 713 472 665 528 q 761 336 761 415 q 753 263 761 300 q 613 59 725 132 q 304 -14 501 -14 z "},"Ș":{"ha":774,"x_min":-32,"x_max":803,"o":"m 275 -14 q 102 1 183 -14 q -32 44 21 17 l 18 278 q 152 228 78 247 q 290 208 226 208 q 380 220 349 208 q 417 261 411 232 q 399 302 422 288 q 308 340 376 317 q 260 357 290 346 q 121 441 167 392 q 75 567 75 490 q 83 633 75 599 q 219 842 114 776 q 525 908 325 908 q 672 896 593 908 q 803 867 750 883 l 753 632 q 526 683 635 683 q 425 672 463 683 q 388 628 388 661 q 413 597 388 608 q 524 561 438 586 q 684 472 636 528 q 732 336 732 415 q 724 263 732 300 q 584 59 696 132 q 275 -14 472 -14 m 188 -56 l 429 -56 l 304 -331 l 83 -331 l 188 -56 z "},"Ṡ":{"ha":774,"x_min":-32,"x_max":803,"o":"m 450 1176 l 649 1176 l 611 994 l 413 994 l 450 1176 m 275 -14 q 102 1 183 -14 q -32 44 21 17 l 18 278 q 152 228 78 247 q 290 208 226 208 q 380 220 349 208 q 417 261 411 232 q 399 302 422 288 q 308 340 376 317 q 260 357 290 346 q 121 441 167 392 q 75 567 75 490 q 83 633 75 599 q 219 842 114 776 q 525 908 325 908 q 672 896 593 908 q 803 867 750 883 l 753 632 q 526 683 635 683 q 425 672 463 683 q 388 628 388 661 q 413 597 388 608 q 524 561 438 586 q 684 472 636 528 q 732 336 732 415 q 724 263 732 300 q 584 59 696 132 q 275 -14 472 -14 z "},"Ṣ":{"ha":774,"x_min":-32,"x_max":803,"o":"m 275 -14 q 102 1 183 -14 q -32 44 21 17 l 18 278 q 152 228 78 247 q 290 208 226 208 q 380 220 349 208 q 417 261 411 232 q 399 302 422 288 q 308 340 376 317 q 260 357 290 346 q 121 441 167 392 q 75 567 75 490 q 83 633 75 599 q 219 842 114 776 q 525 908 325 908 q 672 896 593 908 q 803 867 750 883 l 753 632 q 526 683 635 683 q 425 672 463 683 q 388 628 388 661 q 413 597 388 608 q 524 561 438 586 q 684 472 636 528 q 732 336 732 415 q 724 263 732 300 q 584 59 696 132 q 275 -14 472 -14 m 190 -64 l 389 -64 l 350 -244 l 151 -244 l 190 -64 z "},"ẞ":{"ha":900,"x_min":-29,"x_max":889,"o":"m 486 -14 q 384 -6 432 -14 q 308 17 336 3 l 350 214 q 397 201 369 206 q 449 196 425 196 q 516 210 494 196 q 546 263 538 225 q 547 276 547 267 q 471 318 547 318 l 383 318 l 415 469 l 615 608 q 589 647 617 631 q 518 663 561 663 q 368 554 392 663 l 251 0 l -29 0 l 90 563 q 556 908 164 908 q 732 866 656 908 q 849 755 808 824 q 889 611 889 686 q 886 576 889 599 l 675 436 l 706 436 q 808 393 767 436 q 849 281 849 350 q 844 236 849 260 q 734 48 821 110 q 486 -14 647 -14 z "},"Ə":{"ha":967,"x_min":22,"x_max":965,"o":"m 394 -14 q 120 65 218 -14 q 22 289 22 144 q 33 393 22 343 l 67 554 l 701 554 l 703 579 q 681 658 703 631 q 605 699 658 686 q 453 711 551 711 q 285 692 381 711 q 132 651 189 674 l 174 843 q 351 890 250 872 q 560 908 453 908 q 775 865 683 908 q 916 740 867 821 q 965 549 965 658 q 953 433 965 494 q 767 104 907 222 q 394 -14 626 -14 m 435 171 q 587 219 533 171 q 661 360 640 267 l 286 360 l 278 324 q 271 275 271 296 q 309 198 271 225 q 435 171 347 171 z "},"T":{"ha":778,"x_min":65,"x_max":889,"o":"m 304 676 l 65 676 l 111 894 l 889 894 l 843 676 l 603 676 l 460 0 l 161 0 l 304 676 z "},"Ŧ":{"ha":778,"x_min":65,"x_max":889,"o":"m 235 350 l 119 350 l 161 544 l 276 544 l 304 676 l 65 676 l 111 894 l 889 894 l 843 676 l 603 676 l 575 544 l 694 544 l 653 350 l 533 350 l 460 0 l 161 0 l 235 350 z "},"Ť":{"ha":778,"x_min":65,"x_max":892,"o":"m 258 1244 l 465 1244 l 535 1094 l 672 1244 l 892 1244 l 601 956 l 426 956 l 258 1244 m 304 676 l 65 676 l 111 894 l 889 894 l 843 676 l 603 676 l 460 0 l 161 0 l 304 676 z "},"Ţ":{"ha":778,"x_min":65,"x_max":889,"o":"m 229 -333 q 165 -330 203 -333 q 114 -322 128 -326 l 136 -218 q 215 -229 174 -229 q 297 -215 269 -229 q 324 -169 324 -200 q 310 -147 324 -153 q 268 -140 296 -140 l 172 -140 l 242 0 l 161 0 l 304 676 l 65 676 l 111 894 l 889 894 l 843 676 l 603 676 l 460 0 l 397 0 l 365 -54 q 461 -81 429 -54 q 493 -156 493 -108 q 490 -186 493 -175 q 408 -294 475 -256 q 229 -333 342 -333 z "},"Ț":{"ha":761,"x_min":44,"x_max":872,"o":"m 288 676 l 49 676 l 94 894 l 872 894 l 826 676 l 586 676 l 443 0 l 144 0 l 288 676 m 163 -56 l 393 -56 l 238 -385 l 44 -385 l 163 -56 z "},"Ṭ":{"ha":778,"x_min":65,"x_max":889,"o":"m 304 676 l 65 676 l 111 894 l 889 894 l 843 676 l 603 676 l 460 0 l 161 0 l 304 676 m 201 -64 l 400 -64 l 361 -244 l 163 -244 l 201 -64 z "},"Ṯ":{"ha":778,"x_min":24,"x_max":889,"o":"m 304 676 l 65 676 l 111 894 l 889 894 l 843 676 l 603 676 l 460 0 l 161 0 l 304 676 m 61 -69 l 531 -69 l 493 -244 l 24 -244 l 61 -69 z "},"U":{"ha":967,"x_min":42,"x_max":1029,"o":"m 401 -14 q 213 25 294 -14 q 86 134 131 64 q 42 297 42 204 q 51 382 42 331 l 160 894 l 458 894 l 350 383 q 343 325 343 346 q 369 259 343 279 q 456 239 396 239 q 567 272 528 239 q 622 383 606 306 l 731 894 l 1029 894 l 914 349 q 743 79 876 172 q 401 -14 610 -14 z "},"Ú":{"ha":967,"x_min":42,"x_max":1029,"o":"m 690 1256 l 921 1256 l 717 956 l 499 956 l 690 1256 m 401 -14 q 213 25 294 -14 q 86 134 131 64 q 42 297 42 204 q 51 382 42 331 l 160 894 l 458 894 l 350 383 q 343 325 343 346 q 369 259 343 279 q 456 239 396 239 q 567 272 528 239 q 622 383 606 306 l 731 894 l 1029 894 l 914 349 q 743 79 876 172 q 401 -14 610 -14 z "},"Ŭ":{"ha":967,"x_min":42,"x_max":1029,"o":"m 607 956 q 438 1008 499 956 q 376 1160 376 1061 q 385 1239 376 1197 l 568 1239 q 563 1190 563 1215 q 579 1138 563 1157 q 635 1119 596 1119 q 715 1151 690 1119 q 753 1239 740 1182 l 953 1239 q 835 1028 924 1101 q 607 956 746 956 m 401 -14 q 213 25 294 -14 q 86 134 131 64 q 42 297 42 204 q 51 382 42 331 l 160 894 l 458 894 l 350 383 q 343 325 343 346 q 369 259 343 279 q 456 239 396 239 q 567 272 528 239 q 622 383 606 306 l 731 894 l 1029 894 l 914 349 q 743 79 876 172 q 401 -14 610 -14 z "},"Ǔ":{"ha":968,"x_min":43,"x_max":1031,"o":"m 353 1244 l 560 1244 l 629 1094 l 767 1244 l 986 1244 l 696 956 l 521 956 l 353 1244 m 403 -14 q 214 25 296 -14 q 88 134 132 64 q 43 297 43 204 q 53 382 43 331 l 161 894 l 460 894 l 351 383 q 344 325 344 346 q 371 259 344 279 q 457 239 397 239 q 568 272 529 239 q 624 383 607 306 l 732 894 l 1031 894 l 915 349 q 744 79 878 172 q 403 -14 611 -14 z "},"Û":{"ha":967,"x_min":42,"x_max":1029,"o":"m 581 1244 l 757 1244 l 925 956 l 722 956 l 649 1106 l 517 956 l 292 956 l 581 1244 m 401 -14 q 213 25 294 -14 q 86 134 131 64 q 42 297 42 204 q 51 382 42 331 l 160 894 l 458 894 l 350 383 q 343 325 343 346 q 369 259 343 279 q 456 239 396 239 q 567 272 528 239 q 622 383 606 306 l 731 894 l 1029 894 l 914 349 q 743 79 876 172 q 401 -14 610 -14 z "},"Ü":{"ha":967,"x_min":42,"x_max":1029,"o":"m 399 1176 l 597 1176 l 560 994 l 361 994 l 399 1176 m 711 1176 l 910 1176 l 872 994 l 674 994 l 711 1176 m 401 -14 q 213 25 294 -14 q 86 134 131 64 q 42 297 42 204 q 51 382 42 331 l 160 894 l 458 894 l 350 383 q 343 325 343 346 q 369 259 343 279 q 456 239 396 239 q 567 272 528 239 q 622 383 606 306 l 731 894 l 1029 894 l 914 349 q 743 79 876 172 q 401 -14 610 -14 z "},"Ǘ":{"ha":967,"x_min":42,"x_max":1029,"o":"m 669 1371 l 890 1371 l 749 1175 l 549 1175 l 669 1371 m 394 1136 l 589 1136 l 553 965 l 358 965 l 394 1136 m 703 1136 l 897 1136 l 861 965 l 667 965 l 703 1136 m 401 -14 q 213 25 294 -14 q 86 134 131 64 q 42 297 42 204 q 51 382 42 331 l 160 894 l 458 894 l 350 383 q 343 325 343 346 q 369 259 343 279 q 456 239 396 239 q 567 272 528 239 q 622 383 606 306 l 731 894 l 1029 894 l 914 349 q 743 79 876 172 q 401 -14 610 -14 z "},"Ǚ":{"ha":967,"x_min":42,"x_max":1029,"o":"m 403 1367 l 614 1367 l 668 1265 l 767 1367 l 988 1367 l 757 1174 l 553 1174 l 403 1367 m 390 1136 l 585 1136 l 549 965 l 354 965 l 390 1136 m 699 1136 l 892 1136 l 856 965 l 663 965 l 699 1136 m 401 -14 q 213 25 294 -14 q 86 134 131 64 q 42 297 42 204 q 51 382 42 331 l 160 894 l 458 894 l 350 383 q 343 325 343 346 q 369 259 343 279 q 456 239 396 239 q 567 272 528 239 q 622 383 606 306 l 731 894 l 1029 894 l 914 349 q 743 79 876 172 q 401 -14 610 -14 z "},"Ǜ":{"ha":967,"x_min":42,"x_max":1029,"o":"m 510 1407 l 731 1407 l 768 1211 l 568 1211 l 510 1407 m 403 1172 l 597 1172 l 561 1001 l 367 1001 l 403 1172 m 711 1172 l 906 1172 l 869 1001 l 675 1001 l 711 1172 m 401 -14 q 213 25 294 -14 q 86 134 131 64 q 42 297 42 204 q 51 382 42 331 l 160 894 l 458 894 l 350 383 q 343 325 343 346 q 369 259 343 279 q 456 239 396 239 q 567 272 528 239 q 622 383 606 306 l 731 894 l 1029 894 l 914 349 q 743 79 876 172 q 401 -14 610 -14 z "},"Ǖ":{"ha":967,"x_min":42,"x_max":1029,"o":"m 467 1397 l 936 1397 l 899 1222 l 429 1222 l 467 1397 m 393 1150 l 592 1150 l 554 968 l 356 968 l 393 1150 m 706 1150 l 904 1150 l 867 968 l 668 968 l 706 1150 m 401 -14 q 213 25 294 -14 q 86 134 131 64 q 42 297 42 204 q 51 382 42 331 l 160 894 l 458 894 l 350 383 q 343 325 343 346 q 369 259 343 279 q 456 239 396 239 q 567 272 528 239 q 622 383 606 306 l 731 894 l 1029 894 l 914 349 q 743 79 876 172 q 401 -14 610 -14 z "},"Ụ":{"ha":967,"x_min":42,"x_max":1029,"o":"m 401 -14 q 213 25 294 -14 q 86 134 131 64 q 42 297 42 204 q 51 382 42 331 l 160 894 l 458 894 l 350 383 q 343 325 343 346 q 369 259 343 279 q 456 239 396 239 q 567 272 528 239 q 622 383 606 306 l 731 894 l 1029 894 l 914 349 q 743 79 876 172 q 401 -14 610 -14 m 293 -64 l 492 -64 l 453 -244 l 254 -244 l 293 -64 z "},"Ù":{"ha":967,"x_min":42,"x_max":1029,"o":"m 426 1256 l 658 1256 l 722 956 l 503 956 l 426 1256 m 401 -14 q 213 25 294 -14 q 86 134 131 64 q 42 297 42 204 q 51 382 42 331 l 160 894 l 458 894 l 350 383 q 343 325 343 346 q 369 259 343 279 q 456 239 396 239 q 567 272 528 239 q 622 383 606 306 l 731 894 l 1029 894 l 914 349 q 743 79 876 172 q 401 -14 610 -14 z "},"Ủ":{"ha":967,"x_min":42,"x_max":1029,"o":"m 519 1068 q 624 1089 593 1072 q 654 1135 654 1106 q 586 1168 654 1168 q 503 1156 546 1168 l 528 1275 q 703 1294 597 1294 q 833 1263 788 1294 q 878 1178 878 1231 q 875 1150 878 1160 q 828 1058 863 1090 q 729 1008 793 1026 l 718 956 l 496 956 l 519 1068 m 401 -14 q 213 25 294 -14 q 86 134 131 64 q 42 297 42 204 q 51 382 42 331 l 160 894 l 458 894 l 350 383 q 343 325 343 346 q 369 259 343 279 q 456 239 396 239 q 567 272 528 239 q 622 383 606 306 l 731 894 l 1029 894 l 914 349 q 743 79 876 172 q 401 -14 610 -14 z "},"Ư":{"ha":1217,"x_min":44,"x_max":1328,"o":"m 397 -14 q 212 22 292 -14 q 88 123 132 57 q 44 275 44 189 q 53 351 44 313 l 167 894 l 428 894 l 317 372 q 308 307 308 335 q 340 231 308 254 q 444 208 372 208 q 576 248 531 208 q 640 372 622 288 l 751 894 l 1013 894 l 997 819 q 1097 850 1068 821 q 1143 956 1126 879 l 1328 956 q 1259 776 1303 842 q 1144 682 1215 711 q 961 650 1074 653 l 896 344 q 731 78 860 169 q 397 -14 603 -14 z "},"Ứ":{"ha":1217,"x_min":44,"x_max":1328,"o":"m 686 1256 l 917 1256 l 713 956 l 494 956 l 686 1256 m 397 -14 q 212 22 292 -14 q 88 123 132 57 q 44 275 44 189 q 53 351 44 313 l 167 894 l 428 894 l 317 372 q 308 307 308 335 q 340 231 308 254 q 444 208 372 208 q 576 248 531 208 q 640 372 622 288 l 751 894 l 1013 894 l 997 819 q 1097 850 1068 821 q 1143 956 1126 879 l 1328 956 q 1259 776 1303 842 q 1144 682 1215 711 q 961 650 1074 653 l 896 344 q 731 78 860 169 q 397 -14 603 -14 z "},"Ự":{"ha":1217,"x_min":44,"x_max":1328,"o":"m 397 -14 q 212 22 292 -14 q 88 123 132 57 q 44 275 44 189 q 53 351 44 313 l 167 894 l 428 894 l 317 372 q 308 307 308 335 q 340 231 308 254 q 444 208 372 208 q 576 248 531 208 q 640 372 622 288 l 751 894 l 1013 894 l 997 819 q 1097 850 1068 821 q 1143 956 1126 879 l 1328 956 q 1259 776 1303 842 q 1144 682 1215 711 q 961 650 1074 653 l 896 344 q 731 78 860 169 q 397 -14 603 -14 m 297 -64 l 496 -64 l 457 -244 l 258 -244 l 297 -64 z "},"Ừ":{"ha":1217,"x_min":44,"x_max":1328,"o":"m 432 1256 l 664 1256 l 728 956 l 508 956 l 432 1256 m 397 -14 q 212 22 292 -14 q 88 123 132 57 q 44 275 44 189 q 53 351 44 313 l 167 894 l 428 894 l 317 372 q 308 307 308 335 q 340 231 308 254 q 444 208 372 208 q 576 248 531 208 q 640 372 622 288 l 751 894 l 1013 894 l 997 819 q 1097 850 1068 821 q 1143 956 1126 879 l 1328 956 q 1259 776 1303 842 q 1144 682 1215 711 q 961 650 1074 653 l 896 344 q 731 78 860 169 q 397 -14 603 -14 z "},"Ử":{"ha":1217,"x_min":44,"x_max":1328,"o":"m 500 1068 q 604 1089 574 1072 q 635 1135 635 1106 q 567 1168 635 1168 q 483 1156 526 1168 l 508 1275 q 683 1294 578 1294 q 813 1263 768 1294 q 858 1178 858 1231 q 856 1150 858 1160 q 808 1058 843 1090 q 710 1008 774 1026 l 699 956 l 476 956 l 500 1068 m 397 -14 q 212 22 292 -14 q 88 123 132 57 q 44 275 44 189 q 53 351 44 313 l 167 894 l 428 894 l 317 372 q 308 307 308 335 q 340 231 308 254 q 444 208 372 208 q 576 248 531 208 q 640 372 622 288 l 751 894 l 1013 894 l 997 819 q 1097 850 1068 821 q 1143 956 1126 879 l 1328 956 q 1259 776 1303 842 q 1144 682 1215 711 q 961 650 1074 653 l 896 344 q 731 78 860 169 q 397 -14 603 -14 z "},"Ữ":{"ha":1217,"x_min":44,"x_max":1328,"o":"m 756 958 q 693 966 722 958 q 618 990 664 974 q 553 1011 578 1004 q 503 1018 529 1018 q 350 963 419 1018 l 389 1142 q 454 1175 414 1161 q 535 1189 494 1189 q 597 1181 568 1189 q 665 1158 625 1174 q 730 1137 703 1144 q 788 1129 757 1129 q 869 1145 832 1129 q 931 1186 907 1161 l 892 1006 q 835 972 874 986 q 756 958 797 958 m 397 -14 q 212 22 292 -14 q 88 123 132 57 q 44 275 44 189 q 53 351 44 313 l 167 894 l 428 894 l 317 372 q 308 307 308 335 q 340 231 308 254 q 444 208 372 208 q 576 248 531 208 q 640 372 622 288 l 751 894 l 1013 894 l 997 819 q 1097 850 1068 821 q 1143 956 1126 879 l 1328 956 q 1259 776 1303 842 q 1144 682 1215 711 q 961 650 1074 653 l 896 344 q 731 78 860 169 q 397 -14 603 -14 z "},"Ű":{"ha":967,"x_min":42,"x_max":1078,"o":"m 476 1225 l 728 1225 l 522 956 l 294 956 l 476 1225 m 825 1225 l 1078 1225 l 871 956 l 643 956 l 825 1225 m 401 -14 q 213 25 294 -14 q 86 134 131 64 q 42 297 42 204 q 51 382 42 331 l 160 894 l 458 894 l 350 383 q 343 325 343 346 q 369 259 343 279 q 456 239 396 239 q 567 272 528 239 q 622 383 606 306 l 731 894 l 1029 894 l 914 349 q 743 79 876 172 q 401 -14 610 -14 z "},"Ū":{"ha":967,"x_min":42,"x_max":1029,"o":"m 421 1182 l 890 1182 l 853 1007 l 383 1007 l 421 1182 m 401 -14 q 213 25 294 -14 q 86 134 131 64 q 42 297 42 204 q 51 382 42 331 l 160 894 l 458 894 l 350 383 q 343 325 343 346 q 369 259 343 279 q 456 239 396 239 q 567 272 528 239 q 622 383 606 306 l 731 894 l 1029 894 l 914 349 q 743 79 876 172 q 401 -14 610 -14 z "},"Ų":{"ha":967,"x_min":42,"x_max":1029,"o":"m 350 -306 q 226 -279 271 -306 q 181 -199 181 -253 q 217 -90 181 -140 q 313 -6 254 -39 q 115 97 188 17 q 42 296 42 176 q 51 382 42 342 l 160 894 l 458 894 l 350 383 q 343 325 343 346 q 369 259 343 279 q 456 239 396 239 q 567 272 528 239 q 622 383 606 306 l 731 894 l 1029 894 l 914 349 q 773 102 881 193 q 496 -8 665 11 q 413 -115 424 -60 q 411 -129 411 -121 q 463 -164 411 -164 q 536 -149 506 -164 l 507 -282 q 438 -299 481 -292 q 350 -306 394 -306 z "},"Ů":{"ha":967,"x_min":42,"x_max":1029,"o":"m 606 956 q 484 996 528 956 q 440 1103 440 1036 q 444 1146 440 1124 q 525 1285 463 1232 q 688 1338 588 1338 q 812 1297 768 1338 q 856 1192 856 1257 q 850 1146 856 1176 q 769 1008 832 1061 q 606 956 707 956 m 631 1074 q 699 1101 674 1074 q 725 1167 725 1129 q 663 1219 725 1219 q 594 1191 621 1219 q 567 1126 567 1163 q 631 1074 567 1074 m 401 -14 q 213 25 294 -14 q 86 134 131 64 q 42 297 42 204 q 51 382 42 331 l 160 894 l 458 894 l 350 383 q 343 325 343 346 q 369 259 343 279 q 456 239 396 239 q 567 272 528 239 q 622 383 606 306 l 731 894 l 1029 894 l 914 349 q 743 79 876 172 q 401 -14 610 -14 z "},"Ũ":{"ha":967,"x_min":42,"x_max":1029,"o":"m 750 964 q 688 972 717 964 q 613 996 658 979 q 548 1017 572 1010 q 497 1024 524 1024 q 344 968 414 1024 l 383 1147 q 449 1181 408 1167 q 529 1194 489 1194 q 591 1187 563 1194 q 660 1164 619 1179 q 724 1142 697 1150 q 782 1135 751 1135 q 864 1151 826 1135 q 925 1192 901 1167 l 886 1011 q 830 978 868 992 q 750 964 792 964 m 401 -14 q 213 25 294 -14 q 86 134 131 64 q 42 297 42 204 q 51 382 42 331 l 160 894 l 458 894 l 350 383 q 343 325 343 346 q 369 259 343 279 q 456 239 396 239 q 567 272 528 239 q 622 383 606 306 l 731 894 l 1029 894 l 914 349 q 743 79 876 172 q 401 -14 610 -14 z "},"V":{"ha":1056,"x_min":139,"x_max":1139,"o":"m 139 894 l 442 894 l 514 350 l 818 894 l 1139 894 l 606 0 l 293 0 l 139 894 z "},"W":{"ha":1251,"x_min":139,"x_max":1335,"o":"m 139 894 l 431 894 l 429 486 l 560 751 l 590 894 l 833 894 l 865 485 l 1043 894 l 1335 894 l 939 0 l 682 0 l 647 407 l 431 0 l 158 0 l 139 894 z "},"Ẃ":{"ha":1251,"x_min":139,"x_max":1335,"o":"m 801 1256 l 1032 1256 l 828 956 l 610 956 l 801 1256 m 139 894 l 431 894 l 429 486 l 560 751 l 590 894 l 833 894 l 865 485 l 1043 894 l 1335 894 l 939 0 l 682 0 l 647 407 l 431 0 l 158 0 l 139 894 z "},"Ŵ":{"ha":1251,"x_min":139,"x_max":1335,"o":"m 728 1244 l 904 1244 l 1072 956 l 869 956 l 796 1106 l 664 956 l 439 956 l 728 1244 m 139 894 l 431 894 l 429 486 l 560 751 l 590 894 l 833 894 l 865 485 l 1043 894 l 1335 894 l 939 0 l 682 0 l 647 407 l 431 0 l 158 0 l 139 894 z "},"Ẅ":{"ha":1251,"x_min":139,"x_max":1335,"o":"m 547 1176 l 746 1176 l 708 994 l 510 994 l 547 1176 m 860 1176 l 1058 1176 l 1021 994 l 822 994 l 860 1176 m 139 894 l 431 894 l 429 486 l 560 751 l 590 894 l 833 894 l 865 485 l 1043 894 l 1335 894 l 939 0 l 682 0 l 647 407 l 431 0 l 158 0 l 139 894 z "},"Ẁ":{"ha":1251,"x_min":139,"x_max":1335,"o":"m 546 1256 l 778 1256 l 842 956 l 622 956 l 546 1256 m 139 894 l 431 894 l 429 486 l 560 751 l 590 894 l 833 894 l 865 485 l 1043 894 l 1335 894 l 939 0 l 682 0 l 647 407 l 431 0 l 158 0 l 139 894 z "},"X":{"ha":1085,"x_min":-43,"x_max":1110,"o":"m 383 453 l 158 894 l 469 894 l 583 660 l 799 894 l 1110 894 l 699 453 l 933 0 l 618 0 l 496 243 l 272 0 l -43 0 l 383 453 z "},"Y":{"ha":1000,"x_min":139,"x_max":1083,"o":"m 340 326 l 139 894 l 442 894 l 538 583 l 764 894 l 1083 894 l 639 326 l 571 0 l 272 0 l 340 326 z "},"Ý":{"ha":1000,"x_min":139,"x_max":1083,"o":"m 704 1256 l 935 1256 l 731 956 l 513 956 l 704 1256 m 340 326 l 139 894 l 442 894 l 538 583 l 764 894 l 1083 894 l 639 326 l 571 0 l 272 0 l 340 326 z "},"Ŷ":{"ha":1000,"x_min":139,"x_max":1083,"o":"m 597 1244 l 774 1244 l 942 956 l 739 956 l 665 1106 l 533 956 l 308 956 l 597 1244 m 340 326 l 139 894 l 442 894 l 538 583 l 764 894 l 1083 894 l 639 326 l 571 0 l 272 0 l 340 326 z "},"Ÿ":{"ha":1000,"x_min":139,"x_max":1083,"o":"m 417 1176 l 615 1176 l 578 994 l 379 994 l 417 1176 m 729 1176 l 928 1176 l 890 994 l 692 994 l 729 1176 m 340 326 l 139 894 l 442 894 l 538 583 l 764 894 l 1083 894 l 639 326 l 571 0 l 272 0 l 340 326 z "},"Ẏ":{"ha":1000,"x_min":139,"x_max":1083,"o":"m 571 1176 l 769 1176 l 732 994 l 533 994 l 571 1176 m 340 326 l 139 894 l 442 894 l 538 583 l 764 894 l 1083 894 l 639 326 l 571 0 l 272 0 l 340 326 z "},"Ỵ":{"ha":1000,"x_min":139,"x_max":1083,"o":"m 340 326 l 139 894 l 442 894 l 538 583 l 764 894 l 1083 894 l 639 326 l 571 0 l 272 0 l 340 326 m 311 -62 l 510 -62 l 471 -243 l 272 -243 l 311 -62 z "},"Ỳ":{"ha":1000,"x_min":139,"x_max":1083,"o":"m 436 1256 l 668 1256 l 732 956 l 513 956 l 436 1256 m 340 326 l 139 894 l 442 894 l 538 583 l 764 894 l 1083 894 l 639 326 l 571 0 l 272 0 l 340 326 z "},"Ỷ":{"ha":1000,"x_min":139,"x_max":1083,"o":"m 535 1068 q 639 1089 608 1072 q 669 1135 669 1106 q 601 1168 669 1168 q 518 1156 561 1168 l 543 1275 q 718 1294 613 1294 q 848 1263 803 1294 q 893 1178 893 1231 q 890 1150 893 1160 q 843 1058 878 1090 q 744 1008 808 1026 l 733 956 l 511 956 l 535 1068 m 340 326 l 139 894 l 442 894 l 538 583 l 764 894 l 1083 894 l 639 326 l 571 0 l 272 0 l 340 326 z "},"Ỹ":{"ha":1000,"x_min":139,"x_max":1083,"o":"m 767 964 q 704 972 733 964 q 629 996 675 979 q 565 1017 589 1010 q 514 1024 540 1024 q 361 968 431 1024 l 400 1147 q 465 1181 425 1167 q 546 1194 506 1194 q 608 1187 579 1194 q 676 1164 636 1179 q 741 1142 714 1150 q 799 1135 768 1135 q 881 1151 843 1135 q 942 1192 918 1167 l 903 1011 q 847 978 885 992 q 767 964 808 964 m 340 326 l 139 894 l 442 894 l 538 583 l 764 894 l 1083 894 l 639 326 l 571 0 l 272 0 l 340 326 z "},"Z":{"ha":808,"x_min":-50,"x_max":890,"o":"m -19 147 l 447 657 l 108 657 l 158 894 l 890 894 l 856 731 l 394 228 l 757 228 l 710 0 l -50 0 l -19 147 z "},"Ź":{"ha":808,"x_min":-50,"x_max":890,"o":"m 594 1256 l 825 1256 l 621 956 l 403 956 l 594 1256 m -19 147 l 447 657 l 108 657 l 158 894 l 890 894 l 856 731 l 394 228 l 757 228 l 710 0 l -50 0 l -19 147 z "},"Ž":{"ha":811,"x_min":-50,"x_max":929,"o":"m 296 1244 l 503 1244 l 572 1094 l 710 1244 l 929 1244 l 639 956 l 464 956 l 296 1244 m -19 147 l 447 657 l 108 657 l 158 894 l 890 894 l 856 731 l 394 228 l 757 228 l 710 0 l -50 0 l -19 147 z "},"Ż":{"ha":811,"x_min":-50,"x_max":890,"o":"m 486 1176 l 685 1176 l 647 994 l 449 994 l 486 1176 m -19 147 l 447 657 l 108 657 l 158 894 l 890 894 l 856 731 l 394 228 l 757 228 l 710 0 l -50 0 l -19 147 z "},"Ẓ":{"ha":808,"x_min":-50,"x_max":890,"o":"m -19 147 l 447 657 l 108 657 l 158 894 l 890 894 l 856 731 l 394 228 l 757 228 l 710 0 l -50 0 l -19 147 m 226 -64 l 425 -64 l 386 -244 l 188 -244 l 226 -64 z "},"a":{"ha":857,"x_min":4,"x_max":863,"o":"m 246 -14 q 69 46 133 -14 q 4 215 4 106 q 14 303 4 260 q 156 577 50 482 q 410 672 263 672 q 557 624 508 672 l 564 658 l 863 658 l 724 0 l 465 0 l 461 47 q 363 1 414 17 q 246 -14 311 -14 m 386 200 q 474 231 443 200 l 515 429 q 449 457 494 457 q 366 418 397 457 q 318 303 335 379 q 313 261 313 269 q 331 214 313 228 q 386 200 349 200 z "},"á":{"ha":857,"x_min":4,"x_max":863,"o":"m 561 1025 l 792 1025 l 588 725 l 369 725 l 561 1025 m 246 -14 q 69 46 133 -14 q 4 215 4 106 q 14 303 4 260 q 156 577 50 482 q 410 672 263 672 q 557 624 508 672 l 564 658 l 863 658 l 724 0 l 465 0 l 461 47 q 363 1 414 17 q 246 -14 311 -14 m 386 200 q 474 231 443 200 l 515 429 q 449 457 494 457 q 366 418 397 457 q 318 303 335 379 q 313 261 313 269 q 331 214 313 228 q 386 200 349 200 z "},"ă":{"ha":857,"x_min":4,"x_max":863,"o":"m 489 725 q 319 778 381 725 q 258 929 258 831 q 267 1008 258 967 l 450 1008 q 444 960 444 985 q 461 908 444 926 q 517 889 478 889 q 597 920 572 889 q 635 1008 622 951 l 835 1008 q 717 798 806 871 q 489 725 628 725 m 246 -14 q 69 46 133 -14 q 4 215 4 106 q 14 303 4 260 q 156 577 50 482 q 410 672 263 672 q 557 624 508 672 l 564 658 l 863 658 l 724 0 l 465 0 l 461 47 q 363 1 414 17 q 246 -14 311 -14 m 386 200 q 474 231 443 200 l 515 429 q 449 457 494 457 q 366 418 397 457 q 318 303 335 379 q 313 261 313 269 q 331 214 313 228 q 386 200 349 200 z "},"ắ":{"ha":857,"x_min":4,"x_max":863,"o":"m 596 1214 l 792 1214 l 636 1008 l 458 1008 l 596 1214 m 489 725 q 330 772 389 725 q 271 911 271 819 q 278 975 271 936 l 440 975 q 435 933 435 944 q 454 885 435 900 q 515 869 474 869 q 636 975 618 869 l 806 975 q 489 725 754 725 m 246 -14 q 69 46 133 -14 q 4 215 4 106 q 14 303 4 260 q 156 577 50 482 q 410 672 263 672 q 557 624 508 672 l 564 658 l 863 658 l 724 0 l 465 0 l 461 47 q 363 1 414 17 q 246 -14 311 -14 m 386 200 q 474 231 443 200 l 515 429 q 449 457 494 457 q 366 418 397 457 q 318 303 335 379 q 313 261 313 269 q 331 214 313 228 q 386 200 349 200 z "},"ặ":{"ha":857,"x_min":4,"x_max":863,"o":"m 506 725 q 336 778 397 725 q 275 929 275 831 q 283 1008 275 967 l 467 1008 q 461 960 461 985 q 478 908 461 926 q 533 889 494 889 q 614 920 589 889 q 651 1008 639 951 l 851 1008 q 733 798 822 871 q 506 725 644 725 m 246 -14 q 69 46 133 -14 q 4 215 4 106 q 14 303 4 260 q 156 577 50 482 q 410 672 263 672 q 557 624 508 672 l 564 658 l 863 658 l 724 0 l 465 0 l 461 47 q 363 1 414 17 q 246 -14 311 -14 m 386 200 q 474 231 443 200 l 515 429 q 449 457 494 457 q 366 418 397 457 q 318 303 335 379 q 313 261 313 269 q 331 214 313 228 q 386 200 349 200 m 246 -64 l 444 -64 l 406 -244 l 207 -244 l 246 -64 z "},"ằ":{"ha":857,"x_min":4,"x_max":863,"o":"m 399 1214 l 594 1214 l 643 1008 l 465 1008 l 399 1214 m 493 725 q 334 772 393 725 q 275 911 275 819 q 282 975 275 936 l 444 975 q 439 933 439 944 q 458 885 439 900 q 519 869 478 869 q 640 975 622 869 l 810 975 q 493 725 758 725 m 246 -14 q 69 46 133 -14 q 4 215 4 106 q 14 303 4 260 q 156 577 50 482 q 410 672 263 672 q 557 624 508 672 l 564 658 l 863 658 l 724 0 l 465 0 l 461 47 q 363 1 414 17 q 246 -14 311 -14 m 386 200 q 474 231 443 200 l 515 429 q 449 457 494 457 q 366 418 397 457 q 318 303 335 379 q 313 261 313 269 q 331 214 313 228 q 386 200 349 200 z "},"ẳ":{"ha":857,"x_min":4,"x_max":863,"o":"m 478 1079 q 589 1133 589 1083 q 576 1154 589 1149 q 533 1160 563 1160 q 465 1146 501 1160 l 488 1246 q 556 1259 515 1254 q 635 1264 596 1264 q 740 1237 703 1264 q 776 1167 776 1210 q 774 1144 776 1158 q 736 1073 764 1099 q 653 1033 708 1047 l 644 994 l 460 994 l 478 1079 m 496 725 q 337 772 396 725 q 278 911 278 819 q 285 975 278 936 l 447 975 q 442 933 442 944 q 461 885 442 900 q 522 869 481 869 q 643 975 625 869 l 813 975 q 496 725 761 725 m 246 -14 q 69 46 133 -14 q 4 215 4 106 q 14 303 4 260 q 156 577 50 482 q 410 672 263 672 q 557 624 508 672 l 564 658 l 863 658 l 724 0 l 465 0 l 461 47 q 363 1 414 17 q 246 -14 311 -14 m 386 200 q 474 231 443 200 l 515 429 q 449 457 494 457 q 366 418 397 457 q 318 303 335 379 q 313 261 313 269 q 331 214 313 228 q 386 200 349 200 z "},"ẵ":{"ha":857,"x_min":4,"x_max":863,"o":"m 694 1004 q 636 1012 664 1004 q 568 1035 608 1019 q 510 1054 535 1047 q 461 1061 486 1061 q 318 1008 379 1061 l 350 1154 q 410 1186 372 1174 q 486 1199 447 1199 q 543 1191 517 1199 q 607 1169 569 1183 q 668 1149 643 1156 q 719 1142 693 1142 q 797 1156 761 1142 q 853 1196 832 1171 l 822 1049 q 769 1017 804 1031 q 694 1004 733 1004 m 504 725 q 345 772 404 725 q 286 911 286 819 q 293 975 286 936 l 456 975 q 450 933 450 944 q 469 885 450 900 q 531 869 489 869 q 651 975 633 869 l 821 975 q 504 725 769 725 m 246 -14 q 69 46 133 -14 q 4 215 4 106 q 14 303 4 260 q 156 577 50 482 q 410 672 263 672 q 557 624 508 672 l 564 658 l 863 658 l 724 0 l 465 0 l 461 47 q 363 1 414 17 q 246 -14 311 -14 m 386 200 q 474 231 443 200 l 515 429 q 449 457 494 457 q 366 418 397 457 q 318 303 335 379 q 313 261 313 269 q 331 214 313 228 q 386 200 349 200 z "},"ǎ":{"ha":857,"x_min":4,"x_max":863,"o":"m 229 1013 l 436 1013 l 506 863 l 643 1013 l 863 1013 l 572 724 l 397 724 l 229 1013 m 246 -14 q 69 46 133 -14 q 4 215 4 106 q 14 303 4 260 q 156 577 50 482 q 410 672 263 672 q 557 624 508 672 l 564 658 l 863 658 l 724 0 l 465 0 l 461 47 q 363 1 414 17 q 246 -14 311 -14 m 386 200 q 474 231 443 200 l 515 429 q 449 457 494 457 q 366 418 397 457 q 318 303 335 379 q 313 261 313 269 q 331 214 313 228 q 386 200 349 200 z "},"â":{"ha":857,"x_min":4,"x_max":863,"o":"m 461 1014 l 638 1014 l 806 725 l 603 725 l 529 875 l 397 725 l 172 725 l 461 1014 m 246 -14 q 69 46 133 -14 q 4 215 4 106 q 14 303 4 260 q 156 577 50 482 q 410 672 263 672 q 557 624 508 672 l 564 658 l 863 658 l 724 0 l 465 0 l 461 47 q 363 1 414 17 q 246 -14 311 -14 m 386 200 q 474 231 443 200 l 515 429 q 449 457 494 457 q 366 418 397 457 q 318 303 335 379 q 313 261 313 269 q 331 214 313 228 q 386 200 349 200 z "},"ấ":{"ha":857,"x_min":4,"x_max":1079,"o":"m 861 1131 l 1079 1131 l 919 903 l 713 903 l 861 1131 m 429 947 l 646 947 l 806 725 l 579 725 l 519 832 l 418 725 l 174 725 l 429 947 m 246 -14 q 69 46 133 -14 q 4 215 4 106 q 14 303 4 260 q 156 577 50 482 q 410 672 263 672 q 557 624 508 672 l 564 658 l 863 658 l 724 0 l 465 0 l 461 47 q 363 1 414 17 q 246 -14 311 -14 m 386 200 q 474 231 443 200 l 515 429 q 449 457 494 457 q 366 418 397 457 q 318 303 335 379 q 313 261 313 269 q 331 214 313 228 q 386 200 349 200 z "},"ậ":{"ha":857,"x_min":4,"x_max":863,"o":"m 465 1014 l 642 1014 l 810 725 l 607 725 l 533 875 l 401 725 l 176 725 l 465 1014 m 246 -14 q 69 46 133 -14 q 4 215 4 106 q 14 303 4 260 q 156 577 50 482 q 410 672 263 672 q 557 624 508 672 l 564 658 l 863 658 l 724 0 l 465 0 l 461 47 q 363 1 414 17 q 246 -14 311 -14 m 386 200 q 474 231 443 200 l 515 429 q 449 457 494 457 q 366 418 397 457 q 318 303 335 379 q 313 261 313 269 q 331 214 313 228 q 386 200 349 200 m 229 -64 l 428 -64 l 389 -244 l 190 -244 l 229 -64 z "},"ầ":{"ha":857,"x_min":4,"x_max":863,"o":"m 78 1131 l 297 1131 l 350 903 l 142 903 l 78 1131 m 435 947 l 653 947 l 813 725 l 582 725 l 524 832 l 419 725 l 179 725 l 435 947 m 246 -14 q 69 46 133 -14 q 4 215 4 106 q 14 303 4 260 q 156 577 50 482 q 410 672 263 672 q 557 624 508 672 l 564 658 l 863 658 l 724 0 l 465 0 l 461 47 q 363 1 414 17 q 246 -14 311 -14 m 386 200 q 474 231 443 200 l 515 429 q 449 457 494 457 q 366 418 397 457 q 318 303 335 379 q 313 261 313 269 q 331 214 313 228 q 386 200 349 200 z "},"ẩ":{"ha":857,"x_min":4,"x_max":1046,"o":"m 738 978 q 817 990 796 979 q 839 1021 839 1001 q 827 1036 839 1032 q 792 1040 815 1040 q 721 1029 763 1040 l 746 1143 q 897 1160 808 1160 q 1008 1133 969 1160 q 1046 1061 1046 1107 q 1043 1036 1046 1053 q 919 915 1021 933 l 910 871 l 715 871 l 738 978 m 424 947 l 642 947 l 801 725 l 575 725 l 515 832 l 413 725 l 168 725 l 424 947 m 246 -14 q 69 46 133 -14 q 4 215 4 106 q 14 303 4 260 q 156 577 50 482 q 410 672 263 672 q 557 624 508 672 l 564 658 l 863 658 l 724 0 l 465 0 l 461 47 q 363 1 414 17 q 246 -14 311 -14 m 386 200 q 474 231 443 200 l 515 429 q 449 457 494 457 q 366 418 397 457 q 318 303 335 379 q 313 261 313 269 q 331 214 313 228 q 386 200 349 200 z "},"ẫ":{"ha":857,"x_min":4,"x_max":863,"o":"m 664 960 q 606 967 633 960 q 538 990 578 975 q 480 1010 504 1003 q 431 1017 456 1017 q 288 964 349 1017 l 319 1110 q 380 1142 343 1129 q 456 1154 417 1154 q 513 1147 486 1154 q 576 1125 539 1139 q 638 1104 613 1111 q 689 1097 663 1097 q 765 1112 731 1097 q 822 1151 800 1126 l 792 1004 q 738 973 774 986 q 664 960 703 960 m 424 946 l 642 946 l 801 724 l 568 724 l 508 831 l 406 724 l 168 724 l 424 946 m 246 -14 q 69 46 133 -14 q 4 215 4 106 q 14 303 4 260 q 156 577 50 482 q 410 672 263 672 q 557 624 508 672 l 564 658 l 863 658 l 724 0 l 465 0 l 461 47 q 363 1 414 17 q 246 -14 311 -14 m 386 200 q 474 231 443 200 l 515 429 q 449 457 494 457 q 366 418 397 457 q 318 303 335 379 q 313 261 313 269 q 331 214 313 228 q 386 200 349 200 z "},"ä":{"ha":857,"x_min":4,"x_max":863,"o":"m 294 946 l 493 946 l 456 764 l 257 764 l 294 946 m 607 946 l 806 946 l 768 764 l 569 764 l 607 946 m 246 -14 q 69 46 133 -14 q 4 215 4 106 q 14 303 4 260 q 156 577 50 482 q 410 672 263 672 q 557 624 508 672 l 564 658 l 863 658 l 724 0 l 465 0 l 461 47 q 363 1 414 17 q 246 -14 311 -14 m 386 200 q 474 231 443 200 l 515 429 q 449 457 494 457 q 366 418 397 457 q 318 303 335 379 q 313 261 313 269 q 331 214 313 228 q 386 200 349 200 z "},"ạ":{"ha":857,"x_min":4,"x_max":863,"o":"m 246 -14 q 69 46 133 -14 q 4 215 4 106 q 14 303 4 260 q 156 577 50 482 q 410 672 263 672 q 557 624 508 672 l 564 658 l 863 658 l 724 0 l 465 0 l 461 47 q 363 1 414 17 q 246 -14 311 -14 m 386 200 q 474 231 443 200 l 515 429 q 449 457 494 457 q 366 418 397 457 q 318 303 335 379 q 313 261 313 269 q 331 214 313 228 q 386 200 349 200 m 228 -64 l 426 -64 l 388 -244 l 189 -244 l 228 -64 z "},"à":{"ha":857,"x_min":4,"x_max":863,"o":"m 307 1025 l 539 1025 l 603 725 l 383 725 l 307 1025 m 246 -14 q 69 46 133 -14 q 4 215 4 106 q 14 303 4 260 q 156 577 50 482 q 410 672 263 672 q 557 624 508 672 l 564 658 l 863 658 l 724 0 l 465 0 l 461 47 q 363 1 414 17 q 246 -14 311 -14 m 386 200 q 474 231 443 200 l 515 429 q 449 457 494 457 q 366 418 397 457 q 318 303 335 379 q 313 261 313 269 q 331 214 313 228 q 386 200 349 200 z "},"ả":{"ha":857,"x_min":4,"x_max":863,"o":"m 393 838 q 497 858 467 842 q 528 904 528 875 q 460 938 528 938 q 376 925 419 938 l 401 1044 q 576 1064 471 1064 q 706 1032 661 1064 q 751 947 751 1000 q 749 919 751 929 q 701 828 736 860 q 603 778 667 796 l 592 725 l 369 725 l 393 838 m 246 -14 q 69 46 133 -14 q 4 215 4 106 q 14 303 4 260 q 156 577 50 482 q 410 672 263 672 q 557 624 508 672 l 564 658 l 863 658 l 724 0 l 465 0 l 461 47 q 363 1 414 17 q 246 -14 311 -14 m 386 200 q 474 231 443 200 l 515 429 q 449 457 494 457 q 366 418 397 457 q 318 303 335 379 q 313 261 313 269 q 331 214 313 228 q 386 200 349 200 z "},"ɑ":{"ha":857,"x_min":4,"x_max":863,"o":"m 246 -14 q 69 46 133 -14 q 4 215 4 106 q 14 303 4 260 q 156 577 50 482 q 410 672 263 672 q 557 624 508 672 l 564 658 l 863 658 l 724 0 l 465 0 l 461 47 q 363 1 414 17 q 246 -14 311 -14 m 386 200 q 474 231 443 200 l 515 429 q 449 457 494 457 q 366 418 397 457 q 318 303 335 379 q 313 261 313 269 q 331 214 313 228 q 386 200 349 200 z "},"ā":{"ha":857,"x_min":4,"x_max":863,"o":"m 293 915 l 763 915 l 725 740 l 256 740 l 293 915 m 246 -14 q 69 46 133 -14 q 4 215 4 106 q 14 303 4 260 q 156 577 50 482 q 410 672 263 672 q 557 624 508 672 l 564 658 l 863 658 l 724 0 l 465 0 l 461 47 q 363 1 414 17 q 246 -14 311 -14 m 386 200 q 474 231 443 200 l 515 429 q 449 457 494 457 q 366 418 397 457 q 318 303 335 379 q 313 261 313 269 q 331 214 313 228 q 386 200 349 200 z "},"ą":{"ha":857,"x_min":4,"x_max":863,"o":"m 492 -306 q 367 -279 413 -306 q 322 -199 322 -253 q 326 -167 322 -183 q 375 -72 338 -115 q 465 0 413 -29 l 461 47 q 363 1 414 17 q 246 -14 311 -14 q 69 46 133 -14 q 4 215 4 106 q 14 303 4 260 q 156 577 50 482 q 410 672 263 672 q 557 624 508 672 l 564 658 l 863 658 l 724 0 l 651 0 q 554 -115 568 -54 q 553 -129 553 -121 q 604 -164 553 -164 q 678 -149 647 -164 l 649 -282 q 579 -299 622 -292 q 492 -306 536 -306 m 386 200 q 474 231 443 200 l 515 429 q 449 457 494 457 q 366 418 397 457 q 318 303 335 379 q 313 261 313 269 q 331 214 313 228 q 386 200 349 200 z "},"å":{"ha":857,"x_min":4,"x_max":863,"o":"m 506 725 q 384 765 428 725 q 340 872 340 806 q 344 915 340 893 q 425 1054 363 1001 q 588 1107 488 1107 q 712 1067 668 1107 q 756 961 756 1026 q 750 915 756 946 q 669 778 732 831 q 506 725 607 725 m 531 843 q 599 871 574 843 q 625 936 625 899 q 563 989 625 989 q 494 960 521 989 q 467 896 467 932 q 531 843 467 843 m 246 -14 q 69 46 133 -14 q 4 215 4 106 q 14 303 4 260 q 156 577 50 482 q 410 672 263 672 q 557 624 508 672 l 564 658 l 863 658 l 724 0 l 465 0 l 461 47 q 363 1 414 17 q 246 -14 311 -14 m 386 200 q 474 231 443 200 l 515 429 q 449 457 494 457 q 366 418 397 457 q 318 303 335 379 q 313 261 313 269 q 331 214 313 228 q 386 200 349 200 z "},"ǻ":{"ha":857,"x_min":4,"x_max":908,"o":"m 678 1368 l 908 1368 l 704 1129 l 486 1129 l 678 1368 m 504 725 q 383 765 426 725 q 339 872 339 806 q 343 915 339 893 q 424 1054 361 1001 q 586 1107 486 1107 q 710 1067 667 1107 q 754 961 754 1026 q 749 915 754 946 q 668 778 731 831 q 504 725 606 725 m 529 843 q 598 871 572 843 q 624 936 624 899 q 561 989 624 989 q 492 960 519 989 q 465 896 465 932 q 529 843 465 843 m 246 -14 q 69 46 133 -14 q 4 215 4 106 q 14 303 4 260 q 156 577 50 482 q 410 672 263 672 q 557 624 508 672 l 564 658 l 863 658 l 724 0 l 465 0 l 461 47 q 363 1 414 17 q 246 -14 311 -14 m 386 200 q 474 231 443 200 l 515 429 q 449 457 494 457 q 366 418 397 457 q 318 303 335 379 q 313 261 313 269 q 331 214 313 228 q 386 200 349 200 z "},"ã":{"ha":857,"x_min":4,"x_max":863,"o":"m 647 733 q 585 741 614 733 q 510 765 556 749 q 445 786 469 779 q 394 793 421 793 q 242 738 311 793 l 281 917 q 346 950 306 936 q 426 964 386 964 q 488 956 460 964 q 557 933 517 949 q 622 912 594 919 q 679 904 649 904 q 761 920 724 904 q 822 961 799 936 l 783 781 q 727 747 765 761 q 647 733 689 733 m 246 -14 q 69 46 133 -14 q 4 215 4 106 q 14 303 4 260 q 156 577 50 482 q 410 672 263 672 q 557 624 508 672 l 564 658 l 863 658 l 724 0 l 465 0 l 461 47 q 363 1 414 17 q 246 -14 311 -14 m 386 200 q 474 231 443 200 l 515 429 q 449 457 494 457 q 366 418 397 457 q 318 303 335 379 q 313 261 313 269 q 331 214 313 228 q 386 200 349 200 z "},"æ":{"ha":1229,"x_min":-14,"x_max":1207,"o":"m 215 -14 q 51 28 115 -14 q -14 153 -14 69 q -8 201 -14 179 q 94 367 15 311 q 321 424 174 424 l 481 424 l 483 433 q 485 446 485 438 q 457 479 485 468 q 364 490 429 490 q 128 456 249 490 l 164 624 q 301 659 219 646 q 461 672 383 672 q 664 611 592 672 q 777 656 711 639 q 908 672 843 672 q 1128 610 1050 672 q 1207 436 1207 549 q 1199 358 1207 400 l 1175 244 l 728 244 q 781 186 739 204 q 914 168 822 168 q 1031 178 971 168 q 1132 203 1092 189 l 1096 33 q 974 -3 1040 8 q 815 -14 907 -14 q 670 13 739 -14 q 565 85 601 40 q 421 10 501 35 q 215 -14 340 -14 m 953 400 l 956 418 q 957 432 957 424 q 879 489 957 489 q 761 400 779 489 l 953 400 m 322 154 q 432 193 386 154 l 447 267 l 369 267 q 298 255 321 267 q 268 210 275 243 q 267 194 267 204 q 322 154 267 154 z "},"ǽ":{"ha":1229,"x_min":-14,"x_max":1207,"o":"m 750 1025 l 981 1025 l 776 725 l 558 725 l 750 1025 m 215 -14 q 51 28 115 -14 q -14 153 -14 69 q -8 201 -14 179 q 94 367 15 311 q 321 424 174 424 l 481 424 l 483 433 q 485 446 485 438 q 457 479 485 468 q 364 490 429 490 q 128 456 249 490 l 164 624 q 301 659 219 646 q 461 672 383 672 q 664 611 592 672 q 777 656 711 639 q 908 672 843 672 q 1128 610 1050 672 q 1207 436 1207 549 q 1199 358 1207 400 l 1175 244 l 728 244 q 781 186 739 204 q 914 168 822 168 q 1031 178 971 168 q 1132 203 1092 189 l 1096 33 q 974 -3 1040 8 q 815 -14 907 -14 q 670 13 739 -14 q 565 85 601 40 q 421 10 501 35 q 215 -14 340 -14 m 953 400 l 956 418 q 957 432 957 424 q 879 489 957 489 q 761 400 779 489 l 953 400 m 322 154 q 432 193 386 154 l 447 267 l 369 267 q 298 255 321 267 q 268 210 275 243 q 267 194 267 204 q 322 154 267 154 z "},"b":{"ha":857,"x_min":-22,"x_max":835,"o":"m 446 -14 q 260 47 328 -14 l 236 0 l -22 0 l 176 936 l 475 936 l 411 640 q 488 663 443 654 q 574 672 533 672 q 766 615 697 672 q 835 440 835 557 q 822 335 835 393 q 690 72 783 158 q 446 -14 596 -14 m 399 200 q 473 230 444 200 q 517 331 501 260 q 524 389 524 360 q 506 441 524 425 q 453 457 489 457 q 367 429 404 457 l 325 231 q 399 200 353 200 z "},"c":{"ha":713,"x_min":11,"x_max":736,"o":"m 346 -14 q 106 53 200 -14 q 11 249 11 121 q 19 329 11 288 q 176 587 57 501 q 490 672 296 672 q 627 661 568 672 q 736 625 686 650 l 692 417 q 511 457 615 457 q 383 428 429 457 q 324 329 338 399 q 318 285 318 307 q 350 221 318 240 q 458 201 382 201 q 660 250 556 201 l 613 32 q 346 -14 500 -14 z "},"ć":{"ha":713,"x_min":11,"x_max":789,"o":"m 558 1025 l 789 1025 l 585 725 l 367 725 l 558 1025 m 346 -14 q 106 53 200 -14 q 11 249 11 121 q 19 329 11 288 q 176 587 57 501 q 490 672 296 672 q 627 661 568 672 q 736 625 686 650 l 692 417 q 511 457 615 457 q 383 428 429 457 q 324 329 338 399 q 318 285 318 307 q 350 221 318 240 q 458 201 382 201 q 660 250 556 201 l 613 32 q 346 -14 500 -14 z "},"č":{"ha":713,"x_min":11,"x_max":843,"o":"m 210 1013 l 417 1013 l 486 863 l 624 1013 l 843 1013 l 553 724 l 378 724 l 210 1013 m 346 -14 q 106 53 200 -14 q 11 249 11 121 q 19 329 11 288 q 176 587 57 501 q 490 672 296 672 q 627 661 568 672 q 736 625 686 650 l 692 417 q 511 457 615 457 q 383 428 429 457 q 324 329 338 399 q 318 285 318 307 q 350 221 318 240 q 458 201 382 201 q 660 250 556 201 l 613 32 q 346 -14 500 -14 z "},"ç":{"ha":713,"x_min":10,"x_max":736,"o":"m 249 -333 q 185 -330 222 -333 q 133 -322 147 -326 l 156 -218 q 235 -229 193 -229 q 316 -215 289 -229 q 343 -169 343 -200 q 329 -147 343 -153 q 288 -140 315 -140 l 192 -140 l 257 -7 q 78 76 146 11 q 10 249 10 142 q 19 329 10 278 q 176 587 57 501 q 490 672 296 672 q 627 661 568 672 q 736 625 686 650 l 692 417 q 511 457 615 457 q 383 428 429 457 q 324 329 338 399 q 318 285 318 307 q 350 221 318 240 q 458 201 382 201 q 660 250 556 201 l 613 32 q 410 -11 524 -4 l 385 -54 q 481 -81 449 -54 q 513 -156 513 -108 q 510 -186 513 -175 q 428 -294 494 -256 q 249 -333 361 -333 z "},"ĉ":{"ha":713,"x_min":11,"x_max":769,"o":"m 425 1013 l 601 1013 l 769 724 l 567 724 l 493 874 l 361 724 l 136 724 l 425 1013 m 346 -14 q 106 53 200 -14 q 11 249 11 121 q 19 329 11 288 q 176 587 57 501 q 490 672 296 672 q 627 661 568 672 q 736 625 686 650 l 692 417 q 511 457 615 457 q 383 428 429 457 q 324 329 338 399 q 318 285 318 307 q 350 221 318 240 q 458 201 382 201 q 660 250 556 201 l 613 32 q 346 -14 500 -14 z "},"ċ":{"ha":713,"x_min":11,"x_max":736,"o":"m 408 946 l 607 946 l 569 764 l 371 764 l 408 946 m 346 -14 q 106 53 200 -14 q 11 249 11 121 q 19 329 11 288 q 176 587 57 501 q 490 672 296 672 q 627 661 568 672 q 736 625 686 650 l 692 417 q 511 457 615 457 q 383 428 429 457 q 324 329 338 399 q 318 285 318 307 q 350 221 318 240 q 458 201 382 201 q 660 250 556 201 l 613 32 q 346 -14 500 -14 z "},"d":{"ha":857,"x_min":7,"x_max":922,"o":"m 254 -14 q 74 48 142 -14 q 7 228 7 110 q 18 326 7 268 q 153 589 56 506 q 411 672 251 672 q 494 663 450 672 q 560 640 538 654 l 624 936 l 922 936 l 724 0 l 465 0 l 461 47 q 254 -14 367 -14 m 386 200 q 474 231 432 200 l 515 429 q 440 457 489 457 q 364 426 390 457 q 322 324 338 396 q 314 263 314 286 q 331 214 314 228 q 386 200 349 200 z "},"ð":{"ha":844,"x_min":3,"x_max":907,"o":"m 329 -14 q 85 50 168 -14 q 3 219 3 114 q 10 282 3 247 q 133 497 40 428 q 390 567 226 567 q 482 555 435 567 q 556 525 529 543 l 561 550 q 572 628 572 597 q 569 656 572 647 l 418 596 l 435 674 l 522 708 q 431 722 488 722 q 211 678 324 722 l 251 867 q 375 899 313 889 q 517 908 438 908 q 667 882 603 908 q 771 807 731 856 l 907 861 l 890 782 l 808 749 q 838 601 838 685 q 828 503 838 550 l 797 354 q 647 75 758 164 q 329 -14 535 -14 m 368 179 q 460 207 426 179 q 507 297 493 235 l 518 353 q 411 386 461 386 q 318 360 350 386 q 275 282 286 333 q 271 251 271 265 q 368 179 271 179 z "},"ď":{"ha":1154,"x_min":6,"x_max":1349,"o":"m 1104 960 l 1349 960 l 1128 635 l 897 635 l 1104 960 m 254 -14 q 70 44 135 -14 q 6 217 6 101 q 18 326 6 267 q 159 588 57 503 q 411 672 261 672 q 492 663 451 672 q 560 640 533 654 l 624 936 l 922 936 l 724 0 l 465 0 l 461 47 q 254 -14 367 -14 m 386 200 q 474 231 432 200 l 515 429 q 440 457 489 457 q 367 426 396 457 q 322 324 338 394 q 315 267 315 296 q 333 215 315 231 q 386 200 350 200 z "},"đ":{"ha":860,"x_min":7,"x_max":954,"o":"m 254 -14 q 74 48 142 -14 q 7 228 7 110 q 18 326 7 268 q 153 589 56 506 q 411 672 251 672 q 494 663 450 672 q 560 640 538 654 l 575 714 l 406 714 l 439 876 l 610 876 l 624 936 l 922 936 l 910 876 l 954 876 l 921 714 l 875 714 l 724 0 l 465 0 l 461 47 q 254 -14 367 -14 m 386 200 q 474 231 432 200 l 515 429 q 440 457 489 457 q 364 426 390 457 q 322 324 338 396 q 314 263 314 286 q 331 214 314 228 q 386 200 349 200 z "},"ḍ":{"ha":857,"x_min":7,"x_max":922,"o":"m 254 -14 q 74 48 142 -14 q 7 228 7 110 q 18 326 7 268 q 153 589 56 506 q 411 672 251 672 q 494 663 450 672 q 560 640 538 654 l 624 936 l 922 936 l 724 0 l 465 0 l 461 47 q 254 -14 367 -14 m 386 200 q 474 231 432 200 l 515 429 q 440 457 489 457 q 364 426 390 457 q 322 324 338 396 q 314 263 314 286 q 331 214 314 228 q 386 200 349 200 m 240 -64 l 439 -64 l 400 -244 l 201 -244 l 240 -64 z "},"ḏ":{"ha":857,"x_min":7,"x_max":922,"o":"m 254 -14 q 74 48 142 -14 q 7 228 7 110 q 18 326 7 268 q 153 589 56 506 q 411 672 251 672 q 494 663 450 672 q 560 640 538 654 l 624 936 l 922 936 l 724 0 l 465 0 l 461 47 q 254 -14 367 -14 m 386 200 q 474 231 432 200 l 515 429 q 440 457 489 457 q 364 426 390 457 q 322 324 338 396 q 314 263 314 286 q 331 214 314 228 q 386 200 349 200 m 83 -69 l 553 -69 l 515 -244 l 46 -244 l 83 -69 z "},"e":{"ha":776,"x_min":10,"x_max":753,"o":"m 346 -14 q 103 55 196 -14 q 10 249 10 124 q 18 326 10 285 q 157 583 56 494 q 456 672 258 672 q 672 604 592 672 q 753 424 753 536 q 746 358 753 396 l 722 244 l 275 244 q 325 186 282 204 q 461 168 368 168 q 578 178 518 168 q 679 203 639 189 l 643 33 q 346 -14 535 -14 m 514 400 l 517 418 q 498 469 521 449 q 426 489 475 489 q 294 400 313 489 l 514 400 z "},"é":{"ha":776,"x_min":10,"x_max":792,"o":"m 561 1025 l 792 1025 l 588 725 l 369 725 l 561 1025 m 346 -14 q 103 55 196 -14 q 10 249 10 124 q 18 326 10 285 q 157 583 56 494 q 456 672 258 672 q 672 604 592 672 q 753 424 753 536 q 746 358 753 396 l 722 244 l 275 244 q 325 186 282 204 q 461 168 368 168 q 578 178 518 168 q 679 203 639 189 l 643 33 q 346 -14 535 -14 m 514 400 l 517 418 q 498 469 521 449 q 426 489 475 489 q 294 400 313 489 l 514 400 z "},"ĕ":{"ha":776,"x_min":10,"x_max":821,"o":"m 475 725 q 306 778 367 725 q 244 929 244 831 q 253 1008 244 967 l 436 1008 q 431 960 431 985 q 447 908 431 926 q 503 889 464 889 q 583 920 558 889 q 621 1008 608 951 l 821 1008 q 703 798 792 871 q 475 725 614 725 m 346 -14 q 103 55 196 -14 q 10 249 10 124 q 18 326 10 285 q 157 583 56 494 q 456 672 258 672 q 672 604 592 672 q 753 424 753 536 q 746 358 753 396 l 722 244 l 275 244 q 325 186 282 204 q 461 168 368 168 q 578 178 518 168 q 679 203 639 189 l 643 33 q 346 -14 535 -14 m 514 400 l 517 418 q 498 469 521 449 q 426 489 475 489 q 294 400 313 489 l 514 400 z "},"ě":{"ha":776,"x_min":10,"x_max":860,"o":"m 226 1013 l 433 1013 l 503 863 l 640 1013 l 860 1013 l 569 724 l 394 724 l 226 1013 m 346 -14 q 103 55 196 -14 q 10 249 10 124 q 18 326 10 285 q 157 583 56 494 q 456 672 258 672 q 672 604 592 672 q 753 424 753 536 q 746 358 753 396 l 722 244 l 275 244 q 325 186 282 204 q 461 168 368 168 q 578 178 518 168 q 679 203 639 189 l 643 33 q 346 -14 535 -14 m 514 400 l 517 418 q 498 469 521 449 q 426 489 475 489 q 294 400 313 489 l 514 400 z "},"ê":{"ha":776,"x_min":10,"x_max":789,"o":"m 444 1014 l 621 1014 l 789 725 l 586 725 l 513 875 l 381 725 l 156 725 l 444 1014 m 346 -14 q 103 55 196 -14 q 10 249 10 124 q 18 326 10 285 q 157 583 56 494 q 456 672 258 672 q 672 604 592 672 q 753 424 753 536 q 746 358 753 396 l 722 244 l 275 244 q 325 186 282 204 q 461 168 368 168 q 578 178 518 168 q 679 203 639 189 l 643 33 q 346 -14 535 -14 m 514 400 l 517 418 q 498 469 521 449 q 426 489 475 489 q 294 400 313 489 l 514 400 z "},"ế":{"ha":776,"x_min":10,"x_max":1065,"o":"m 847 1131 l 1065 1131 l 906 903 l 699 903 l 847 1131 m 415 947 l 632 947 l 792 725 l 565 725 l 506 832 l 404 725 l 160 725 l 415 947 m 346 -14 q 103 55 196 -14 q 10 249 10 124 q 18 326 10 285 q 157 583 56 494 q 456 672 258 672 q 672 604 592 672 q 753 424 753 536 q 746 358 753 396 l 722 244 l 275 244 q 325 186 282 204 q 461 168 368 168 q 578 178 518 168 q 679 203 639 189 l 643 33 q 346 -14 535 -14 m 514 400 l 517 418 q 498 469 521 449 q 426 489 475 489 q 294 400 313 489 l 514 400 z "},"ệ":{"ha":776,"x_min":10,"x_max":785,"o":"m 440 1014 l 617 1014 l 785 725 l 582 725 l 508 875 l 376 725 l 151 725 l 440 1014 m 346 -14 q 103 55 196 -14 q 10 249 10 124 q 18 326 10 285 q 157 583 56 494 q 456 672 258 672 q 672 604 592 672 q 753 424 753 536 q 746 358 753 396 l 722 244 l 275 244 q 325 186 282 204 q 461 168 368 168 q 578 178 518 168 q 679 203 639 189 l 643 33 q 346 -14 535 -14 m 514 400 l 517 418 q 498 469 521 449 q 426 489 475 489 q 294 400 313 489 l 514 400 m 203 -64 l 401 -64 l 363 -244 l 164 -244 l 203 -64 z "},"ề":{"ha":776,"x_min":10,"x_max":790,"o":"m 56 1131 l 275 1131 l 328 903 l 119 903 l 56 1131 m 413 947 l 631 947 l 790 725 l 560 725 l 501 832 l 397 725 l 157 725 l 413 947 m 346 -14 q 103 55 196 -14 q 10 249 10 124 q 18 326 10 285 q 157 583 56 494 q 456 672 258 672 q 672 604 592 672 q 753 424 753 536 q 746 358 753 396 l 722 244 l 275 244 q 325 186 282 204 q 461 168 368 168 q 578 178 518 168 q 679 203 639 189 l 643 33 q 346 -14 535 -14 m 514 400 l 517 418 q 498 469 521 449 q 426 489 475 489 q 294 400 313 489 l 514 400 z "},"ể":{"ha":776,"x_min":10,"x_max":1033,"o":"m 725 978 q 805 990 783 979 q 826 1021 826 1001 q 815 1036 826 1032 q 779 1040 803 1040 q 708 1029 750 1040 l 733 1143 q 885 1160 796 1160 q 995 1133 957 1160 q 1033 1061 1033 1107 q 1031 1036 1033 1053 q 907 915 1008 933 l 897 871 l 703 871 l 725 978 m 411 947 l 629 947 l 789 725 l 563 725 l 503 832 l 400 725 l 156 725 l 411 947 m 346 -14 q 103 55 196 -14 q 10 249 10 124 q 18 326 10 285 q 157 583 56 494 q 456 672 258 672 q 672 604 592 672 q 753 424 753 536 q 746 358 753 396 l 722 244 l 275 244 q 325 186 282 204 q 461 168 368 168 q 578 178 518 168 q 679 203 639 189 l 643 33 q 346 -14 535 -14 m 514 400 l 517 418 q 498 469 521 449 q 426 489 475 489 q 294 400 313 489 l 514 400 z "},"ễ":{"ha":776,"x_min":10,"x_max":810,"o":"m 651 961 q 593 969 621 961 q 525 992 565 976 q 467 1011 492 1004 q 418 1018 443 1018 q 275 965 336 1018 l 307 1111 q 367 1143 331 1131 q 443 1156 404 1156 q 500 1148 474 1156 q 564 1126 526 1140 q 625 1106 600 1113 q 676 1099 650 1099 q 753 1113 718 1099 q 810 1153 788 1128 l 779 1006 q 726 974 761 988 q 651 961 690 961 m 411 947 l 629 947 l 789 725 l 556 725 l 496 832 l 393 725 l 156 725 l 411 947 m 346 -14 q 103 55 196 -14 q 10 249 10 124 q 18 326 10 285 q 157 583 56 494 q 456 672 258 672 q 672 604 592 672 q 753 424 753 536 q 746 358 753 396 l 722 244 l 275 244 q 325 186 282 204 q 461 168 368 168 q 578 178 518 168 q 679 203 639 189 l 643 33 q 346 -14 535 -14 m 514 400 l 517 418 q 498 469 521 449 q 426 489 475 489 q 294 400 313 489 l 514 400 z "},"ë":{"ha":776,"x_min":10,"x_max":774,"o":"m 263 946 l 461 946 l 424 764 l 225 764 l 263 946 m 575 946 l 774 946 l 736 764 l 538 764 l 575 946 m 346 -14 q 103 55 196 -14 q 10 249 10 124 q 18 326 10 285 q 157 583 56 494 q 456 672 258 672 q 672 604 592 672 q 753 424 753 536 q 746 358 753 396 l 722 244 l 275 244 q 325 186 282 204 q 461 168 368 168 q 578 178 518 168 q 679 203 639 189 l 643 33 q 346 -14 535 -14 m 514 400 l 517 418 q 498 469 521 449 q 426 489 475 489 q 294 400 313 489 l 514 400 z "},"ė":{"ha":776,"x_min":10,"x_max":753,"o":"m 421 946 l 619 946 l 582 764 l 383 764 l 421 946 m 346 -14 q 103 55 196 -14 q 10 249 10 124 q 18 326 10 285 q 157 583 56 494 q 456 672 258 672 q 672 604 592 672 q 753 424 753 536 q 746 358 753 396 l 722 244 l 275 244 q 325 186 282 204 q 461 168 368 168 q 578 178 518 168 q 679 203 639 189 l 643 33 q 346 -14 535 -14 m 514 400 l 517 418 q 498 469 521 449 q 426 489 475 489 q 294 400 313 489 l 514 400 z "},"ẹ":{"ha":776,"x_min":10,"x_max":753,"o":"m 346 -14 q 103 55 196 -14 q 10 249 10 124 q 18 326 10 285 q 157 583 56 494 q 456 672 258 672 q 672 604 592 672 q 753 424 753 536 q 746 358 753 396 l 722 244 l 275 244 q 325 186 282 204 q 461 168 368 168 q 578 178 518 168 q 679 203 639 189 l 643 33 q 346 -14 535 -14 m 514 400 l 517 418 q 498 469 521 449 q 426 489 475 489 q 294 400 313 489 l 514 400 m 217 -64 l 415 -64 l 376 -244 l 178 -244 l 217 -64 z "},"è":{"ha":776,"x_min":10,"x_max":753,"o":"m 288 1025 l 519 1025 l 583 725 l 364 725 l 288 1025 m 346 -14 q 103 55 196 -14 q 10 249 10 124 q 18 326 10 285 q 157 583 56 494 q 456 672 258 672 q 672 604 592 672 q 753 424 753 536 q 746 358 753 396 l 722 244 l 275 244 q 325 186 282 204 q 461 168 368 168 q 578 178 518 168 q 679 203 639 189 l 643 33 q 346 -14 535 -14 m 514 400 l 517 418 q 498 469 521 449 q 426 489 475 489 q 294 400 313 489 l 514 400 z "},"ẻ":{"ha":776,"x_min":10,"x_max":753,"o":"m 386 838 q 490 858 460 842 q 521 904 521 875 q 453 938 521 938 q 369 925 413 938 l 394 1044 q 569 1064 464 1064 q 699 1032 654 1064 q 744 947 744 1000 q 742 919 744 929 q 694 828 729 860 q 596 778 660 796 l 585 725 l 363 725 l 386 838 m 346 -14 q 103 55 196 -14 q 10 249 10 124 q 18 326 10 285 q 157 583 56 494 q 456 672 258 672 q 672 604 592 672 q 753 424 753 536 q 746 358 753 396 l 722 244 l 275 244 q 325 186 282 204 q 461 168 368 168 q 578 178 518 168 q 679 203 639 189 l 643 33 q 346 -14 535 -14 m 514 400 l 517 418 q 498 469 521 449 q 426 489 475 489 q 294 400 313 489 l 514 400 z "},"ē":{"ha":776,"x_min":10,"x_max":753,"o":"m 282 951 l 751 951 l 714 776 l 244 776 l 282 951 m 346 -14 q 103 55 196 -14 q 10 249 10 124 q 18 326 10 285 q 157 583 56 494 q 456 672 258 672 q 672 604 592 672 q 753 424 753 536 q 746 358 753 396 l 722 244 l 275 244 q 325 186 282 204 q 461 168 368 168 q 578 178 518 168 q 679 203 639 189 l 643 33 q 346 -14 535 -14 m 514 400 l 517 418 q 498 469 521 449 q 426 489 475 489 q 294 400 313 489 l 514 400 z "},"ę":{"ha":776,"x_min":10,"x_max":753,"o":"m 364 -306 q 240 -279 285 -306 q 194 -199 194 -253 q 228 -94 194 -143 q 315 -12 261 -46 q 94 62 178 -6 q 10 249 10 129 q 18 326 10 285 q 157 583 56 494 q 456 672 258 672 q 672 604 592 672 q 753 424 753 536 q 746 358 753 396 l 722 244 l 275 244 q 325 186 282 204 q 461 168 368 168 q 578 178 518 168 q 679 203 639 189 l 643 33 q 521 -1 586 8 q 426 -115 439 -56 q 425 -129 425 -121 q 476 -164 425 -164 q 550 -149 519 -164 l 521 -282 q 451 -299 494 -292 q 364 -306 408 -306 m 514 400 l 517 418 q 498 469 521 449 q 426 489 475 489 q 294 400 313 489 l 514 400 z "},"ẽ":{"ha":776,"x_min":10,"x_max":801,"o":"m 626 733 q 564 741 593 733 q 489 765 535 749 q 424 786 449 779 q 374 793 400 793 q 221 738 290 793 l 260 917 q 325 950 285 936 q 406 964 365 964 q 467 956 439 964 q 536 933 496 949 q 601 912 574 919 q 658 904 628 904 q 740 920 703 904 q 801 961 778 936 l 763 781 q 706 747 744 761 q 626 733 668 733 m 346 -14 q 103 55 196 -14 q 10 249 10 124 q 18 326 10 285 q 157 583 56 494 q 456 672 258 672 q 672 604 592 672 q 753 424 753 536 q 746 358 753 396 l 722 244 l 275 244 q 325 186 282 204 q 461 168 368 168 q 578 178 518 168 q 679 203 639 189 l 643 33 q 346 -14 535 -14 m 514 400 l 517 418 q 498 469 521 449 q 426 489 475 489 q 294 400 313 489 l 514 400 z "},"f":{"ha":511,"x_min":3,"x_max":657,"o":"m 96 440 l 15 440 l 61 658 l 142 658 l 149 690 q 253 890 178 821 q 474 958 329 958 q 657 924 579 958 l 617 735 q 536 749 579 749 q 474 733 493 749 q 446 683 454 718 l 440 658 l 590 658 l 532 440 l 394 440 l 301 0 l 3 0 l 96 440 z "},"g":{"ha":857,"x_min":7,"x_max":863,"o":"m 207 -244 q 102 -240 169 -244 q 10 -231 35 -236 l 53 -29 q 124 -42 79 -36 q 203 -47 169 -47 q 367 -32 317 -47 q 428 19 418 -17 l 431 31 q 353 6 399 15 q 268 -4 308 -4 q 78 53 149 -4 q 7 226 7 110 q 17 317 7 269 q 150 581 51 490 q 408 672 249 672 q 581 611 517 672 l 604 658 l 863 658 l 744 103 q 660 -89 719 -12 q 491 -205 601 -165 q 207 -244 381 -244 m 388 203 q 474 231 436 203 l 515 426 q 485 450 501 443 q 446 457 469 457 q 365 424 393 457 q 321 318 338 392 q 314 263 314 281 q 331 215 314 228 q 388 203 349 203 z "},"ğ":{"ha":857,"x_min":7,"x_max":863,"o":"m 481 725 q 311 778 372 725 q 250 929 250 831 q 258 1008 250 967 l 442 1008 q 436 960 436 985 q 453 908 436 926 q 508 889 469 889 q 589 920 564 889 q 626 1008 614 951 l 826 1008 q 708 798 797 871 q 481 725 619 725 m 207 -244 q 102 -240 169 -244 q 10 -231 35 -236 l 53 -29 q 124 -42 79 -36 q 203 -47 169 -47 q 367 -32 317 -47 q 428 19 418 -17 l 431 31 q 353 6 399 15 q 268 -4 308 -4 q 78 53 149 -4 q 7 226 7 110 q 17 317 7 269 q 150 581 51 490 q 408 672 249 672 q 581 611 517 672 l 604 658 l 863 658 l 744 103 q 660 -89 719 -12 q 491 -205 601 -165 q 207 -244 381 -244 m 388 203 q 474 231 436 203 l 515 426 q 485 450 501 443 q 446 457 469 457 q 365 424 393 457 q 321 318 338 392 q 314 263 314 281 q 331 215 314 228 q 388 203 349 203 z "},"ǧ":{"ha":857,"x_min":7,"x_max":863,"o":"m 228 1013 l 435 1013 l 504 863 l 642 1013 l 861 1013 l 571 724 l 396 724 l 228 1013 m 207 -244 q 102 -240 169 -244 q 10 -231 35 -236 l 53 -29 q 124 -42 79 -36 q 203 -47 169 -47 q 367 -32 317 -47 q 428 19 418 -17 l 431 31 q 353 6 399 15 q 268 -4 308 -4 q 78 53 149 -4 q 7 226 7 110 q 17 317 7 269 q 150 581 51 490 q 408 672 249 672 q 581 611 517 672 l 604 658 l 863 658 l 744 103 q 660 -89 719 -12 q 491 -205 601 -165 q 207 -244 381 -244 m 388 203 q 474 231 436 203 l 515 426 q 485 450 501 443 q 446 457 469 457 q 365 424 393 457 q 321 318 338 392 q 314 263 314 281 q 331 215 314 228 q 388 203 349 203 z "},"ĝ":{"ha":857,"x_min":7,"x_max":863,"o":"m 457 1013 l 633 1013 l 801 724 l 599 724 l 525 874 l 393 724 l 168 724 l 457 1013 m 207 -244 q 102 -240 169 -244 q 10 -231 35 -236 l 53 -29 q 124 -42 79 -36 q 203 -47 169 -47 q 367 -32 317 -47 q 428 19 418 -17 l 431 31 q 353 6 399 15 q 268 -4 308 -4 q 78 53 149 -4 q 7 226 7 110 q 17 317 7 269 q 150 581 51 490 q 408 672 249 672 q 581 611 517 672 l 604 658 l 863 658 l 744 103 q 660 -89 719 -12 q 491 -205 601 -165 q 207 -244 381 -244 m 388 203 q 474 231 436 203 l 515 426 q 485 450 501 443 q 446 457 469 457 q 365 424 393 457 q 321 318 338 392 q 314 263 314 281 q 331 215 314 228 q 388 203 349 203 z "},"ģ":{"ha":857,"x_min":7,"x_max":863,"o":"m 508 1054 l 701 1054 l 583 725 l 353 725 l 508 1054 m 207 -244 q 102 -240 169 -244 q 10 -231 35 -236 l 53 -29 q 124 -42 79 -36 q 203 -47 169 -47 q 367 -32 317 -47 q 428 19 418 -17 l 431 31 q 353 6 399 15 q 268 -4 308 -4 q 78 53 149 -4 q 7 226 7 110 q 17 317 7 269 q 150 581 51 490 q 408 672 249 672 q 581 611 517 672 l 604 658 l 863 658 l 744 103 q 660 -89 719 -12 q 491 -205 601 -165 q 207 -244 381 -244 m 388 203 q 474 231 436 203 l 515 426 q 485 450 501 443 q 446 457 469 457 q 365 424 393 457 q 321 318 338 392 q 314 263 314 281 q 331 215 314 228 q 388 203 349 203 z "},"ġ":{"ha":857,"x_min":7,"x_max":863,"o":"m 410 921 l 608 921 l 571 739 l 372 739 l 410 921 m 207 -244 q 102 -240 169 -244 q 10 -231 35 -236 l 53 -29 q 124 -42 79 -36 q 203 -47 169 -47 q 367 -32 317 -47 q 428 19 418 -17 l 431 31 q 353 6 399 15 q 268 -4 308 -4 q 78 53 149 -4 q 7 226 7 110 q 17 317 7 269 q 150 581 51 490 q 408 672 249 672 q 581 611 517 672 l 604 658 l 863 658 l 744 103 q 660 -89 719 -12 q 491 -205 601 -165 q 207 -244 381 -244 m 388 203 q 474 231 436 203 l 515 426 q 485 450 501 443 q 446 457 469 457 q 365 424 393 457 q 321 318 338 392 q 314 263 314 281 q 331 215 314 228 q 388 203 349 203 z "},"ḡ":{"ha":857,"x_min":7,"x_max":863,"o":"m 276 940 l 746 940 l 708 765 l 239 765 l 276 940 m 207 -244 q 102 -240 169 -244 q 10 -231 35 -236 l 53 -29 q 124 -42 79 -36 q 203 -47 169 -47 q 367 -32 317 -47 q 428 19 418 -17 l 431 31 q 353 6 399 15 q 268 -4 308 -4 q 78 53 149 -4 q 7 226 7 110 q 17 317 7 269 q 150 581 51 490 q 408 672 249 672 q 581 611 517 672 l 604 658 l 863 658 l 744 103 q 660 -89 719 -12 q 491 -205 601 -165 q 207 -244 381 -244 m 388 203 q 474 231 436 203 l 515 426 q 485 450 501 443 q 446 457 469 457 q 365 424 393 457 q 321 318 338 392 q 314 263 314 281 q 331 215 314 228 q 388 203 349 203 z "},"h":{"ha":854,"x_min":-22,"x_max":822,"o":"m 176 936 l 475 936 l 408 625 q 498 659 446 646 q 603 672 550 672 q 767 624 711 672 q 822 485 822 575 q 814 410 822 450 l 728 0 l 428 0 l 510 386 q 513 411 513 406 q 501 442 513 433 q 461 451 489 451 q 409 441 436 451 q 364 414 382 431 l 276 0 l -22 0 l 176 936 z "},"ħ":{"ha":861,"x_min":-15,"x_max":829,"o":"m 138 719 l 71 719 l 101 864 l 168 864 l 183 936 l 482 936 l 467 864 l 618 864 l 588 719 l 435 719 l 415 625 q 505 659 453 646 q 610 672 557 672 q 774 624 718 672 q 829 485 829 575 q 821 410 829 450 l 735 0 l 435 0 l 517 386 q 519 411 519 406 q 508 442 519 433 q 468 451 496 451 q 416 441 443 451 q 371 414 389 431 l 283 0 l -15 0 l 138 719 z "},"ḫ":{"ha":854,"x_min":-22,"x_max":822,"o":"m 176 936 l 475 936 l 408 625 q 498 659 446 646 q 603 672 550 672 q 767 624 711 672 q 822 485 822 575 q 814 410 822 450 l 728 0 l 428 0 l 510 386 q 513 411 513 406 q 501 442 513 433 q 461 451 489 451 q 409 441 436 451 q 364 414 382 431 l 276 0 l -22 0 l 176 936 m 282 -346 q 111 -293 172 -346 q 50 -142 50 -240 q 58 -62 50 -104 l 242 -62 q 236 -111 236 -86 q 253 -163 236 -144 q 308 -182 269 -182 q 388 -151 364 -182 q 425 -62 413 -121 l 626 -62 q 508 -273 597 -200 q 282 -346 419 -346 z "},"ĥ":{"ha":854,"x_min":-22,"x_max":828,"o":"m 483 1274 l 660 1274 l 828 985 l 625 985 l 551 1135 l 419 985 l 194 985 l 483 1274 m 176 936 l 475 936 l 408 625 q 498 659 446 646 q 603 672 550 672 q 767 624 711 672 q 822 485 822 575 q 814 410 822 450 l 728 0 l 428 0 l 510 386 q 513 411 513 406 q 501 442 513 433 q 461 451 489 451 q 409 441 436 451 q 364 414 382 431 l 276 0 l -22 0 l 176 936 z "},"ḥ":{"ha":854,"x_min":-22,"x_max":822,"o":"m 176 936 l 475 936 l 408 625 q 498 659 446 646 q 603 672 550 672 q 767 624 711 672 q 822 485 822 575 q 814 410 822 450 l 728 0 l 428 0 l 510 386 q 513 411 513 406 q 501 442 513 433 q 461 451 489 451 q 409 441 436 451 q 364 414 382 431 l 276 0 l -22 0 l 176 936 m 238 -64 l 436 -64 l 397 -244 l 199 -244 l 238 -64 z "},"i":{"ha":503,"x_min":71,"x_max":568,"o":"m 247 939 l 568 939 l 524 729 l 203 729 l 247 939 m 164 442 l 71 442 l 142 658 l 508 658 l 369 0 l 71 0 l 164 442 z "},"ı":{"ha":503,"x_min":71,"x_max":508,"o":"m 164 442 l 71 442 l 142 658 l 508 658 l 369 0 l 71 0 l 164 442 z "},"í":{"ha":503,"x_min":71,"x_max":658,"o":"m 428 1025 l 658 1025 l 454 725 l 236 725 l 428 1025 m 164 442 l 71 442 l 142 658 l 508 658 l 369 0 l 71 0 l 164 442 z "},"ĭ":{"ha":503,"x_min":71,"x_max":679,"o":"m 333 725 q 163 778 224 725 q 101 929 101 831 q 110 1008 101 967 l 293 1008 q 288 964 288 978 q 360 889 288 889 q 478 1008 453 889 l 679 1008 q 558 799 650 874 q 333 725 465 725 m 164 442 l 71 442 l 142 658 l 508 658 l 369 0 l 71 0 l 164 442 z "},"ǐ":{"ha":503,"x_min":71,"x_max":719,"o":"m 86 1013 l 293 1013 l 363 863 l 500 1013 l 719 1013 l 429 724 l 254 724 l 86 1013 m 164 442 l 71 442 l 142 658 l 508 658 l 369 0 l 71 0 l 164 442 z "},"î":{"ha":503,"x_min":22,"x_max":656,"o":"m 311 1014 l 488 1014 l 656 725 l 453 725 l 379 875 l 247 725 l 22 725 l 311 1014 m 164 442 l 71 442 l 142 658 l 508 658 l 369 0 l 71 0 l 164 442 z "},"ï":{"ha":503,"x_min":71,"x_max":635,"o":"m 124 946 l 322 946 l 285 764 l 86 764 l 124 946 m 436 946 l 635 946 l 597 764 l 399 764 l 436 946 m 164 442 l 71 442 l 142 658 l 508 658 l 369 0 l 71 0 l 164 442 z "},"ị":{"ha":503,"x_min":67,"x_max":568,"o":"m 247 939 l 568 939 l 524 729 l 203 729 l 247 939 m 164 442 l 71 442 l 142 658 l 508 658 l 369 0 l 71 0 l 164 442 m 106 -64 l 304 -64 l 265 -244 l 67 -244 l 106 -64 z "},"ì":{"ha":503,"x_min":71,"x_max":508,"o":"m 179 1025 l 411 1025 l 475 725 l 256 725 l 179 1025 m 164 442 l 71 442 l 142 658 l 508 658 l 369 0 l 71 0 l 164 442 z "},"ỉ":{"ha":503,"x_min":71,"x_max":604,"o":"m 246 838 q 350 858 319 842 q 381 904 381 875 q 313 938 381 938 q 229 925 272 938 l 254 1044 q 429 1064 324 1064 q 559 1032 514 1064 q 604 947 604 1000 q 601 919 604 929 q 554 828 589 860 q 456 778 519 796 l 444 725 l 222 725 l 246 838 m 164 442 l 71 442 l 142 658 l 508 658 l 369 0 l 71 0 l 164 442 z "},"ĳ":{"ha":929,"x_min":71,"x_max":994,"o":"m 247 939 l 568 939 l 524 729 l 203 729 l 247 939 m 674 939 l 994 939 l 950 729 l 629 729 l 674 939 m 164 442 l 71 442 l 142 658 l 508 658 l 369 0 l 71 0 l 164 442 m 460 -325 q 276 -292 350 -325 l 317 -100 q 397 -114 357 -114 q 460 -100 442 -114 q 486 -51 479 -86 l 590 442 l 497 442 l 568 658 l 935 658 l 779 -72 q 677 -262 753 -199 q 460 -325 601 -325 z "},"ī":{"ha":503,"x_min":71,"x_max":622,"o":"m 153 986 l 622 986 l 585 811 l 115 811 l 153 986 m 164 442 l 71 442 l 142 658 l 508 658 l 369 0 l 71 0 l 164 442 z "},"į":{"ha":503,"x_min":-15,"x_max":568,"o":"m 247 939 l 568 939 l 524 729 l 203 729 l 247 939 m 154 -306 q 30 -279 75 -306 q -15 -199 -15 -253 q -11 -167 -15 -183 q 38 -72 0 -115 q 128 0 75 -29 l 71 0 l 164 442 l 71 442 l 142 658 l 508 658 l 369 0 l 314 0 q 217 -115 231 -54 q 215 -129 215 -121 q 267 -164 215 -164 q 340 -149 310 -164 l 311 -282 q 242 -299 285 -292 q 154 -306 199 -306 z "},"ĩ":{"ha":503,"x_min":71,"x_max":653,"o":"m 478 763 q 415 770 444 763 q 340 794 386 778 q 276 815 300 808 q 225 822 251 822 q 72 767 142 822 l 111 946 q 176 979 136 965 q 257 993 217 993 q 319 985 290 993 q 388 963 347 978 q 452 941 425 949 q 510 933 479 933 q 592 949 554 933 q 653 990 629 965 l 614 810 q 558 776 596 790 q 478 763 519 763 m 164 442 l 71 442 l 142 658 l 508 658 l 369 0 l 71 0 l 164 442 z "},"j":{"ha":501,"x_min":-150,"x_max":568,"o":"m 247 939 l 568 939 l 524 729 l 203 729 l 247 939 m 33 -325 q -150 -292 -76 -325 l -110 -100 q -29 -114 -69 -114 q 34 -100 15 -114 q 60 -51 53 -86 l 164 442 l 71 442 l 142 658 l 508 658 l 353 -72 q 251 -262 326 -199 q 33 -325 175 -325 z "},"ȷ":{"ha":501,"x_min":-150,"x_max":508,"o":"m 32 -325 q -150 -292 -76 -325 l -110 -100 q -29 -114 -72 -114 q 60 -51 46 -114 l 164 442 l 69 442 l 140 658 l 508 658 l 353 -72 q 249 -257 329 -189 q 32 -325 168 -325 z "},"ĵ":{"ha":501,"x_min":-150,"x_max":664,"o":"m 319 1013 l 496 1013 l 664 724 l 461 724 l 388 874 l 256 724 l 31 724 l 319 1013 m 32 -325 q -150 -292 -76 -325 l -110 -100 q -29 -114 -72 -114 q 60 -51 46 -114 l 164 442 l 69 442 l 140 658 l 508 658 l 353 -72 q 249 -257 329 -189 q 32 -325 168 -325 z "},"k":{"ha":885,"x_min":-22,"x_max":904,"o":"m 176 936 l 475 936 l 382 500 l 567 658 l 904 658 l 583 376 l 779 0 l 463 0 l 364 221 l 313 176 l 276 0 l -22 0 l 176 936 z "},"ķ":{"ha":885,"x_min":-22,"x_max":904,"o":"m 176 936 l 475 936 l 382 500 l 567 658 l 904 658 l 583 376 l 779 0 l 463 0 l 364 221 l 313 176 l 276 0 l -22 0 l 176 936 m 219 -51 l 450 -51 l 294 -381 l 101 -381 l 219 -51 z "},"ĸ":{"ha":885,"x_min":-22,"x_max":904,"o":"m 117 658 l 415 658 l 378 483 l 567 658 l 904 658 l 581 363 l 779 0 l 463 0 l 361 206 l 310 160 l 276 0 l -22 0 l 117 658 z "},"l":{"ha":476,"x_min":15,"x_max":475,"o":"m 217 -14 q 15 146 15 -14 q 22 211 15 182 l 176 936 l 475 936 l 329 249 q 326 225 326 232 q 336 203 326 210 q 368 197 346 197 q 438 208 408 197 l 397 18 q 314 -7 353 0 q 217 -14 275 -14 z "},"ĺ":{"ha":476,"x_min":15,"x_max":660,"o":"m 429 1343 l 660 1343 l 456 1043 l 238 1043 l 429 1343 m 217 -14 q 15 146 15 -14 q 22 211 15 182 l 176 936 l 475 936 l 329 249 q 326 225 326 232 q 336 203 326 210 q 368 197 346 197 q 438 208 408 197 l 397 18 q 314 -7 353 0 q 217 -14 275 -14 z "},"ľ":{"ha":476,"x_min":15,"x_max":586,"o":"m 356 1315 l 586 1315 l 431 986 l 238 986 l 356 1315 m 217 -14 q 15 146 15 -14 q 22 211 15 182 l 176 936 l 475 936 l 329 249 q 326 225 326 232 q 336 203 326 210 q 368 197 346 197 q 438 208 408 197 l 397 18 q 314 -7 353 0 q 217 -14 275 -14 z "},"ļ":{"ha":476,"x_min":-31,"x_max":475,"o":"m 217 -14 q 15 146 15 -14 q 22 211 15 182 l 176 936 l 475 936 l 329 249 q 326 225 326 232 q 336 203 326 210 q 368 197 346 197 q 438 208 408 197 l 397 18 q 314 -7 353 0 q 217 -14 275 -14 m 88 -51 l 318 -51 l 163 -381 l -31 -381 l 88 -51 z "},"ŀ":{"ha":588,"x_min":15,"x_max":693,"o":"m 217 -14 q 15 146 15 -14 q 22 211 15 182 l 176 936 l 475 936 l 329 249 q 326 225 326 232 q 336 203 326 210 q 368 197 346 197 q 438 208 408 197 l 397 18 q 314 -7 353 0 q 217 -14 275 -14 m 494 601 l 693 601 l 656 419 l 457 419 l 494 601 z "},"ḷ":{"ha":476,"x_min":15,"x_max":475,"o":"m 217 -14 q 15 146 15 -14 q 22 211 15 182 l 176 936 l 475 936 l 329 249 q 326 225 326 232 q 336 203 326 210 q 368 197 346 197 q 438 208 408 197 l 397 18 q 314 -7 353 0 q 217 -14 275 -14 m 81 -64 l 279 -64 l 240 -244 l 42 -244 l 81 -64 z "},"ḹ":{"ha":476,"x_min":15,"x_max":615,"o":"m 146 1185 l 615 1185 l 578 1010 l 108 1010 l 146 1185 m 217 -14 q 15 146 15 -14 q 22 211 15 182 l 176 936 l 475 936 l 329 249 q 326 225 326 232 q 336 203 326 210 q 368 197 346 197 q 438 208 408 197 l 397 18 q 314 -7 353 0 q 217 -14 275 -14 m 81 -64 l 279 -64 l 240 -244 l 42 -244 l 81 -64 z "},"ḻ":{"ha":476,"x_min":-106,"x_max":475,"o":"m 217 -14 q 15 146 15 -14 q 22 211 15 182 l 176 936 l 475 936 l 329 249 q 326 225 326 232 q 336 203 326 210 q 368 197 346 197 q 438 208 408 197 l 397 18 q 314 -7 353 0 q 217 -14 275 -14 m -68 -69 l 401 -69 l 364 -244 l -106 -244 l -68 -69 z "},"ł":{"ha":476,"x_min":-61,"x_max":526,"o":"m 217 -14 q 15 146 15 -14 q 22 211 15 182 l 47 329 l -61 286 l -17 496 l 92 539 l 176 936 l 475 936 l 418 669 l 526 713 l 481 503 l 374 460 l 329 249 q 326 225 326 232 q 336 203 326 210 q 368 197 346 197 q 438 208 408 197 l 397 18 q 314 -7 353 0 q 217 -14 275 -14 z "},"m":{"ha":1201,"x_min":-22,"x_max":1174,"o":"m 117 658 l 393 658 l 390 611 q 611 672 493 672 q 703 656 672 672 q 749 606 733 640 q 993 672 861 672 q 1127 626 1081 672 q 1174 499 1174 581 q 1165 425 1174 465 l 1075 0 l 782 0 l 864 390 q 867 415 867 400 q 856 443 867 435 q 819 451 844 451 q 781 444 801 451 q 744 424 760 436 q 735 347 744 396 l 661 0 l 385 0 l 468 396 q 471 421 471 415 q 462 444 471 436 q 432 451 453 451 q 391 442 413 451 q 353 415 369 432 l 265 0 l -22 0 l 117 658 z "},"ṃ":{"ha":1201,"x_min":-22,"x_max":1174,"o":"m 117 658 l 393 658 l 390 611 q 611 672 493 672 q 703 656 672 672 q 749 606 733 640 q 993 672 861 672 q 1127 626 1081 672 q 1174 499 1174 581 q 1165 425 1174 465 l 1075 0 l 782 0 l 864 390 q 867 415 867 400 q 856 443 867 435 q 819 451 844 451 q 781 444 801 451 q 744 424 760 436 q 735 347 744 396 l 661 0 l 385 0 l 468 396 q 471 421 471 415 q 462 444 471 436 q 432 451 453 451 q 391 442 413 451 q 353 415 369 432 l 265 0 l -22 0 l 117 658 m 418 -62 l 617 -62 l 578 -243 l 379 -243 l 418 -62 z "},"n":{"ha":854,"x_min":-22,"x_max":826,"o":"m 117 658 l 396 658 l 393 614 q 504 656 438 639 q 638 672 571 672 q 779 629 732 672 q 826 503 826 586 q 817 422 826 474 l 728 0 l 429 0 l 511 388 q 514 411 514 407 q 501 442 514 433 q 461 451 489 451 q 409 441 436 451 q 364 414 382 431 l 276 0 l -22 0 l 117 658 z "},"ń":{"ha":854,"x_min":-22,"x_max":826,"o":"m 538 1025 l 768 1025 l 564 725 l 346 725 l 538 1025 m 117 658 l 396 658 l 393 614 q 504 656 438 639 q 638 672 571 672 q 779 629 732 672 q 826 503 826 586 q 817 422 826 474 l 728 0 l 429 0 l 511 388 q 514 411 514 407 q 501 442 514 433 q 461 451 489 451 q 409 441 436 451 q 364 414 382 431 l 276 0 l -22 0 l 117 658 z "},"ŉ":{"ha":974,"x_min":-53,"x_max":946,"o":"m 65 890 l 296 890 l 140 561 l -53 561 l 65 890 m 236 658 l 515 658 l 513 614 q 624 656 557 639 q 757 672 690 672 q 899 629 851 672 q 946 503 946 586 q 936 422 946 474 l 847 0 l 549 0 l 631 388 q 633 411 633 407 q 621 442 633 433 q 581 451 608 451 q 528 441 556 451 q 483 414 501 431 l 396 0 l 97 0 l 236 658 z "},"ň":{"ha":854,"x_min":-22,"x_max":856,"o":"m 222 1013 l 429 1013 l 499 863 l 636 1013 l 856 1013 l 565 724 l 390 724 l 222 1013 m 117 658 l 396 658 l 393 614 q 504 656 438 639 q 638 672 571 672 q 779 629 732 672 q 826 503 826 586 q 817 422 826 474 l 728 0 l 429 0 l 511 388 q 514 411 514 407 q 501 442 514 433 q 461 451 489 451 q 409 441 436 451 q 364 414 382 431 l 276 0 l -22 0 l 117 658 z "},"ņ":{"ha":854,"x_min":-22,"x_max":826,"o":"m 117 658 l 396 658 l 393 614 q 504 656 438 639 q 638 672 571 672 q 779 629 732 672 q 826 503 826 586 q 817 422 826 474 l 728 0 l 429 0 l 511 388 q 514 411 514 407 q 501 442 514 433 q 461 451 489 451 q 409 441 436 451 q 364 414 382 431 l 276 0 l -22 0 l 117 658 m 242 -51 l 472 -51 l 317 -381 l 124 -381 l 242 -51 z "},"ṅ":{"ha":854,"x_min":-22,"x_max":826,"o":"m 446 946 l 644 946 l 607 764 l 408 764 l 446 946 m 117 658 l 396 658 l 393 614 q 504 656 438 639 q 638 672 571 672 q 779 629 732 672 q 826 503 826 586 q 817 422 826 474 l 728 0 l 429 0 l 511 388 q 514 411 514 407 q 501 442 514 433 q 461 451 489 451 q 409 441 436 451 q 364 414 382 431 l 276 0 l -22 0 l 117 658 z "},"ṇ":{"ha":854,"x_min":-22,"x_max":826,"o":"m 117 658 l 396 658 l 393 614 q 504 656 438 639 q 638 672 571 672 q 779 629 732 672 q 826 503 826 586 q 817 422 826 474 l 728 0 l 429 0 l 511 388 q 514 411 514 407 q 501 442 514 433 q 461 451 489 451 q 409 441 436 451 q 364 414 382 431 l 276 0 l -22 0 l 117 658 m 244 -64 l 443 -64 l 404 -244 l 206 -244 l 244 -64 z "},"ŋ":{"ha":854,"x_min":-22,"x_max":828,"o":"m 390 -325 q 207 -292 279 -325 l 247 -103 q 328 -117 283 -117 q 390 -103 371 -117 q 417 -51 408 -89 l 510 388 q 513 411 513 407 q 499 442 513 433 q 458 451 486 451 q 409 440 436 451 q 364 414 382 429 l 276 0 l -22 0 l 117 658 l 396 658 l 393 614 q 504 656 438 639 q 638 672 571 672 q 781 633 735 672 q 828 511 828 593 q 817 422 828 475 l 711 -72 q 609 -264 683 -203 q 390 -325 535 -325 z "},"ṉ":{"ha":854,"x_min":-22,"x_max":826,"o":"m 117 658 l 396 658 l 393 614 q 504 656 438 639 q 638 672 571 672 q 779 629 732 672 q 826 503 826 586 q 817 422 826 474 l 728 0 l 429 0 l 511 388 q 514 411 514 407 q 501 442 514 433 q 461 451 489 451 q 409 441 436 451 q 364 414 382 431 l 276 0 l -22 0 l 117 658 m 106 -69 l 575 -69 l 538 -244 l 68 -244 l 106 -69 z "},"ñ":{"ha":854,"x_min":-22,"x_max":826,"o":"m 643 733 q 581 741 610 733 q 506 765 551 749 q 441 786 465 779 q 390 793 417 793 q 238 738 307 793 l 276 917 q 342 950 301 936 q 422 964 382 964 q 484 956 456 964 q 553 933 513 949 q 617 912 590 919 q 675 904 644 904 q 757 920 719 904 q 818 961 794 936 l 779 781 q 723 747 761 761 q 643 733 685 733 m 117 658 l 396 658 l 393 614 q 504 656 438 639 q 638 672 571 672 q 779 629 732 672 q 826 503 826 586 q 817 422 826 474 l 728 0 l 429 0 l 511 388 q 514 411 514 407 q 501 442 514 433 q 461 451 489 451 q 409 441 436 451 q 364 414 382 431 l 276 0 l -22 0 l 117 658 z "},"o":{"ha":856,"x_min":10,"x_max":829,"o":"m 344 -14 q 95 51 181 -14 q 10 239 10 115 q 19 329 10 285 q 169 587 57 501 q 490 672 282 672 q 743 607 657 672 q 829 417 829 542 q 819 329 829 383 q 669 72 785 157 q 344 -14 554 -14 m 390 201 q 472 231 442 201 q 515 329 501 261 q 524 389 524 365 q 505 441 524 425 q 444 457 486 457 q 366 427 394 457 q 324 329 338 397 q 315 267 315 292 q 333 217 315 232 q 390 201 350 201 z "},"ó":{"ha":856,"x_min":10,"x_max":829,"o":"m 561 1025 l 792 1025 l 588 725 l 369 725 l 561 1025 m 344 -14 q 95 51 181 -14 q 10 239 10 115 q 19 329 10 285 q 169 587 57 501 q 490 672 282 672 q 743 607 657 672 q 829 417 829 542 q 819 329 829 383 q 669 72 785 157 q 344 -14 554 -14 m 390 201 q 472 231 442 201 q 515 329 501 261 q 524 389 524 365 q 505 441 524 425 q 444 457 486 457 q 366 427 394 457 q 324 329 338 397 q 315 267 315 292 q 333 217 315 232 q 390 201 350 201 z "},"ŏ":{"ha":856,"x_min":10,"x_max":847,"o":"m 501 725 q 332 778 393 725 q 271 929 271 831 q 279 1008 271 967 l 463 1008 q 457 960 457 985 q 474 908 457 926 q 529 889 490 889 q 610 920 585 889 q 647 1008 635 951 l 847 1008 q 729 798 818 871 q 501 725 640 725 m 344 -14 q 95 51 181 -14 q 10 239 10 115 q 19 329 10 285 q 169 587 57 501 q 490 672 282 672 q 743 607 657 672 q 829 417 829 542 q 819 329 829 383 q 669 72 785 157 q 344 -14 554 -14 m 390 201 q 472 231 442 201 q 515 329 501 261 q 524 389 524 365 q 505 441 524 425 q 444 457 486 457 q 366 427 394 457 q 324 329 338 397 q 315 267 315 292 q 333 217 315 232 q 390 201 350 201 z "},"ǒ":{"ha":856,"x_min":10,"x_max":881,"o":"m 247 1013 l 454 1013 l 524 863 l 661 1013 l 881 1013 l 590 724 l 415 724 l 247 1013 m 344 -14 q 95 51 181 -14 q 10 239 10 115 q 19 329 10 285 q 169 587 57 501 q 490 672 282 672 q 743 607 657 672 q 829 417 829 542 q 819 329 829 383 q 669 72 785 157 q 344 -14 554 -14 m 390 201 q 472 231 442 201 q 515 329 501 261 q 524 389 524 365 q 505 441 524 425 q 444 457 486 457 q 366 427 394 457 q 324 329 338 397 q 315 267 315 292 q 333 217 315 232 q 390 201 350 201 z "},"ô":{"ha":856,"x_min":10,"x_max":829,"o":"m 475 1014 l 651 1014 l 819 725 l 617 725 l 543 875 l 411 725 l 186 725 l 475 1014 m 344 -14 q 95 51 181 -14 q 10 239 10 115 q 19 329 10 285 q 169 587 57 501 q 490 672 282 672 q 743 607 657 672 q 829 417 829 542 q 819 329 829 383 q 669 72 785 157 q 344 -14 554 -14 m 390 201 q 472 231 442 201 q 515 329 501 261 q 524 389 524 365 q 505 441 524 425 q 444 457 486 457 q 366 427 394 457 q 324 329 338 397 q 315 267 315 292 q 333 217 315 232 q 390 201 350 201 z "},"ố":{"ha":856,"x_min":10,"x_max":1083,"o":"m 865 1131 l 1083 1131 l 924 903 l 717 903 l 865 1131 m 433 947 l 650 947 l 810 725 l 583 725 l 524 832 l 422 725 l 178 725 l 433 947 m 344 -14 q 95 51 181 -14 q 10 239 10 115 q 19 329 10 285 q 169 587 57 501 q 490 672 282 672 q 743 607 657 672 q 829 417 829 542 q 819 329 829 383 q 669 72 785 157 q 344 -14 554 -14 m 390 201 q 472 231 442 201 q 515 329 501 261 q 524 389 524 365 q 505 441 524 425 q 444 457 486 457 q 366 427 394 457 q 324 329 338 397 q 315 267 315 292 q 333 217 315 232 q 390 201 350 201 z "},"ộ":{"ha":856,"x_min":10,"x_max":829,"o":"m 476 1014 l 653 1014 l 821 725 l 618 725 l 544 875 l 413 725 l 188 725 l 476 1014 m 344 -14 q 95 51 181 -14 q 10 239 10 115 q 19 329 10 285 q 169 587 57 501 q 490 672 282 672 q 743 607 657 672 q 829 417 829 542 q 819 329 829 383 q 669 72 785 157 q 344 -14 554 -14 m 390 201 q 472 231 442 201 q 515 329 501 261 q 524 389 524 365 q 505 441 524 425 q 444 457 486 457 q 366 427 394 457 q 324 329 338 397 q 315 267 315 292 q 333 217 315 232 q 390 201 350 201 m 239 -64 l 438 -64 l 399 -244 l 200 -244 l 239 -64 z "},"ồ":{"ha":856,"x_min":10,"x_max":829,"o":"m 83 1131 l 303 1131 l 356 903 l 147 903 l 83 1131 m 440 947 l 658 947 l 818 725 l 588 725 l 529 832 l 425 725 l 185 725 l 440 947 m 344 -14 q 95 51 181 -14 q 10 239 10 115 q 19 329 10 285 q 169 587 57 501 q 490 672 282 672 q 743 607 657 672 q 829 417 829 542 q 819 329 829 383 q 669 72 785 157 q 344 -14 554 -14 m 390 201 q 472 231 442 201 q 515 329 501 261 q 524 389 524 365 q 505 441 524 425 q 444 457 486 457 q 366 427 394 457 q 324 329 338 397 q 315 267 315 292 q 333 217 315 232 q 390 201 350 201 z "},"ổ":{"ha":856,"x_min":10,"x_max":1056,"o":"m 747 978 q 827 990 806 979 q 849 1021 849 1001 q 837 1036 849 1032 q 801 1040 825 1040 q 731 1029 772 1040 l 756 1143 q 907 1160 818 1160 q 1017 1133 979 1160 q 1056 1061 1056 1107 q 1053 1036 1056 1053 q 929 915 1031 933 l 919 871 l 725 871 l 747 978 m 433 947 l 651 947 l 811 725 l 585 725 l 525 832 l 422 725 l 178 725 l 433 947 m 344 -14 q 95 51 181 -14 q 10 239 10 115 q 19 329 10 285 q 169 587 57 501 q 490 672 282 672 q 743 607 657 672 q 829 417 829 542 q 819 329 829 383 q 669 72 785 157 q 344 -14 554 -14 m 390 201 q 472 231 442 201 q 515 329 501 261 q 524 389 524 365 q 505 441 524 425 q 444 457 486 457 q 366 427 394 457 q 324 329 338 397 q 315 267 315 292 q 333 217 315 232 q 390 201 350 201 z "},"ỗ":{"ha":856,"x_min":10,"x_max":853,"o":"m 694 1004 q 636 1012 664 1004 q 568 1035 608 1019 q 510 1054 535 1047 q 461 1061 486 1061 q 318 1008 379 1061 l 350 1154 q 410 1186 372 1174 q 486 1199 447 1199 q 543 1191 517 1199 q 607 1169 569 1183 q 668 1149 643 1156 q 719 1142 693 1142 q 797 1156 761 1142 q 853 1196 832 1171 l 822 1049 q 769 1017 804 1031 q 694 1004 733 1004 m 504 725 q 345 772 404 725 q 286 911 286 819 q 293 975 286 936 l 456 975 q 450 933 450 944 q 469 885 450 900 q 531 869 489 869 q 651 975 633 869 l 821 975 q 504 725 769 725 m 344 -14 q 95 51 181 -14 q 10 239 10 115 q 19 329 10 285 q 169 587 57 501 q 490 672 282 672 q 743 607 657 672 q 829 417 829 542 q 819 329 829 383 q 669 72 785 157 q 344 -14 554 -14 m 390 201 q 472 231 442 201 q 515 329 501 261 q 524 389 524 365 q 505 441 524 425 q 444 457 486 457 q 366 427 394 457 q 324 329 338 397 q 315 267 315 292 q 333 217 315 232 q 390 201 350 201 z "},"ö":{"ha":856,"x_min":10,"x_max":829,"o":"m 293 946 l 492 946 l 454 764 l 256 764 l 293 946 m 606 946 l 804 946 l 767 764 l 568 764 l 606 946 m 344 -14 q 95 51 181 -14 q 10 239 10 115 q 19 329 10 285 q 169 587 57 501 q 490 672 282 672 q 743 607 657 672 q 829 417 829 542 q 819 329 829 383 q 669 72 785 157 q 344 -14 554 -14 m 390 201 q 472 231 442 201 q 515 329 501 261 q 524 389 524 365 q 505 441 524 425 q 444 457 486 457 q 366 427 394 457 q 324 329 338 397 q 315 267 315 292 q 333 217 315 232 q 390 201 350 201 z "},"ọ":{"ha":856,"x_min":10,"x_max":829,"o":"m 344 -14 q 95 51 181 -14 q 10 239 10 115 q 19 329 10 285 q 169 587 57 501 q 490 672 282 672 q 743 607 657 672 q 829 417 829 542 q 819 329 829 383 q 669 72 785 157 q 344 -14 554 -14 m 390 201 q 472 231 442 201 q 515 329 501 261 q 524 389 524 365 q 505 441 524 425 q 444 457 486 457 q 366 427 394 457 q 324 329 338 397 q 315 267 315 292 q 333 217 315 232 q 390 201 350 201 m 239 -64 l 438 -64 l 399 -244 l 200 -244 l 239 -64 z "},"ò":{"ha":856,"x_min":10,"x_max":829,"o":"m 315 1025 l 547 1025 l 611 725 l 392 725 l 315 1025 m 344 -14 q 95 51 181 -14 q 10 239 10 115 q 19 329 10 285 q 169 587 57 501 q 490 672 282 672 q 743 607 657 672 q 829 417 829 542 q 819 329 829 383 q 669 72 785 157 q 344 -14 554 -14 m 390 201 q 472 231 442 201 q 515 329 501 261 q 524 389 524 365 q 505 441 524 425 q 444 457 486 457 q 366 427 394 457 q 324 329 338 397 q 315 267 315 292 q 333 217 315 232 q 390 201 350 201 z "},"ỏ":{"ha":856,"x_min":10,"x_max":829,"o":"m 410 838 q 514 858 483 842 q 544 904 544 875 q 476 938 544 938 q 393 925 436 938 l 418 1044 q 593 1064 488 1064 q 723 1032 678 1064 q 768 947 768 1000 q 765 919 768 929 q 718 828 753 860 q 619 778 683 796 l 608 725 l 386 725 l 410 838 m 344 -14 q 95 51 181 -14 q 10 239 10 115 q 19 329 10 285 q 169 587 57 501 q 490 672 282 672 q 743 607 657 672 q 829 417 829 542 q 819 329 829 383 q 669 72 785 157 q 344 -14 554 -14 m 390 201 q 472 231 442 201 q 515 329 501 261 q 524 389 524 365 q 505 441 524 425 q 444 457 486 457 q 366 427 394 457 q 324 329 338 397 q 315 267 315 292 q 333 217 315 232 q 390 201 350 201 z "},"ơ":{"ha":1021,"x_min":10,"x_max":1086,"o":"m 344 -14 q 95 51 181 -14 q 10 239 10 115 q 19 329 10 285 q 169 587 57 501 q 490 672 282 672 q 751 599 663 672 q 853 633 821 600 q 901 744 885 667 l 1086 744 q 996 534 1057 606 q 828 439 935 463 q 819 329 831 381 q 669 72 785 157 q 344 -14 554 -14 m 390 201 q 472 231 442 201 q 515 329 501 261 q 524 389 524 365 q 505 441 524 425 q 444 457 486 457 q 366 427 394 457 q 324 329 338 397 q 315 267 315 292 q 333 217 315 232 q 390 201 350 201 z "},"ớ":{"ha":1021,"x_min":10,"x_max":1086,"o":"m 576 1025 l 807 1025 l 603 725 l 385 725 l 576 1025 m 344 -14 q 95 51 181 -14 q 10 239 10 115 q 19 329 10 285 q 169 587 57 501 q 490 672 282 672 q 751 599 663 672 q 853 633 821 600 q 901 744 885 667 l 1086 744 q 996 534 1057 606 q 828 439 935 463 q 819 329 831 381 q 669 72 785 157 q 344 -14 554 -14 m 390 201 q 472 231 442 201 q 515 329 501 261 q 524 389 524 365 q 505 441 524 425 q 444 457 486 457 q 366 427 394 457 q 324 329 338 397 q 315 267 315 292 q 333 217 315 232 q 390 201 350 201 z "},"ợ":{"ha":1021,"x_min":10,"x_max":1086,"o":"m 344 -14 q 95 51 181 -14 q 10 239 10 115 q 19 329 10 285 q 169 587 57 501 q 490 672 282 672 q 751 599 663 672 q 853 633 821 600 q 901 744 885 667 l 1086 744 q 996 534 1057 606 q 828 439 935 463 q 819 329 831 381 q 669 72 785 157 q 344 -14 554 -14 m 390 201 q 472 231 442 201 q 515 329 501 261 q 524 389 524 365 q 505 441 524 425 q 444 457 486 457 q 366 427 394 457 q 324 329 338 397 q 315 267 315 292 q 333 217 315 232 q 390 201 350 201 m 236 -64 l 435 -64 l 396 -244 l 197 -244 l 236 -64 z "},"ờ":{"ha":1021,"x_min":10,"x_max":1086,"o":"m 322 1025 l 554 1025 l 618 725 l 399 725 l 322 1025 m 344 -14 q 95 51 181 -14 q 10 239 10 115 q 19 329 10 285 q 169 587 57 501 q 490 672 282 672 q 751 599 663 672 q 853 633 821 600 q 901 744 885 667 l 1086 744 q 996 534 1057 606 q 828 439 935 463 q 819 329 831 381 q 669 72 785 157 q 344 -14 554 -14 m 390 201 q 472 231 442 201 q 515 329 501 261 q 524 389 524 365 q 505 441 524 425 q 444 457 486 457 q 366 427 394 457 q 324 329 338 397 q 315 267 315 292 q 333 217 315 232 q 390 201 350 201 z "},"ở":{"ha":1021,"x_min":10,"x_max":1086,"o":"m 408 838 q 513 858 482 842 q 543 904 543 875 q 475 938 543 938 q 392 925 435 938 l 417 1044 q 592 1064 486 1064 q 722 1032 676 1064 q 767 947 767 1000 q 764 919 767 929 q 717 828 751 860 q 618 778 682 796 l 607 725 l 385 725 l 408 838 m 344 -14 q 95 51 181 -14 q 10 239 10 115 q 19 329 10 285 q 169 587 57 501 q 490 672 282 672 q 751 599 663 672 q 853 633 821 600 q 901 744 885 667 l 1086 744 q 996 534 1057 606 q 828 439 935 463 q 819 329 831 381 q 669 72 785 157 q 344 -14 554 -14 m 390 201 q 472 231 442 201 q 515 329 501 261 q 524 389 524 365 q 505 441 524 425 q 444 457 486 457 q 366 427 394 457 q 324 329 338 397 q 315 267 315 292 q 333 217 315 232 q 390 201 350 201 z "},"ỡ":{"ha":1021,"x_min":10,"x_max":1086,"o":"m 651 728 q 589 735 618 728 q 514 760 560 743 q 449 781 474 774 q 399 788 425 788 q 246 732 315 788 l 285 911 q 350 944 310 931 q 431 958 390 958 q 492 951 464 958 q 561 928 521 943 q 626 906 599 914 q 683 899 653 899 q 765 915 728 899 q 826 956 803 931 l 788 775 q 731 742 769 756 q 651 728 693 728 m 344 -14 q 95 51 181 -14 q 10 239 10 115 q 19 329 10 285 q 169 587 57 501 q 490 672 282 672 q 751 599 663 672 q 853 633 821 600 q 901 744 885 667 l 1086 744 q 996 534 1057 606 q 828 439 935 463 q 819 329 831 381 q 669 72 785 157 q 344 -14 554 -14 m 390 201 q 472 231 442 201 q 515 329 501 261 q 524 389 524 365 q 505 441 524 425 q 444 457 486 457 q 366 427 394 457 q 324 329 338 397 q 315 267 315 292 q 333 217 315 232 q 390 201 350 201 z "},"ő":{"ha":856,"x_min":10,"x_max":958,"o":"m 357 993 l 608 993 l 403 724 l 175 724 l 357 993 m 706 993 l 958 993 l 751 724 l 524 724 l 706 993 m 344 -14 q 95 51 181 -14 q 10 239 10 115 q 19 329 10 285 q 169 587 57 501 q 490 672 282 672 q 743 607 657 672 q 829 417 829 542 q 819 329 829 383 q 669 72 785 157 q 344 -14 554 -14 m 390 201 q 472 231 442 201 q 515 329 501 261 q 524 389 524 365 q 505 441 524 425 q 444 457 486 457 q 366 427 394 457 q 324 329 338 397 q 315 267 315 292 q 333 217 315 232 q 390 201 350 201 z "},"ō":{"ha":856,"x_min":10,"x_max":829,"o":"m 308 951 l 778 951 l 740 776 l 271 776 l 308 951 m 344 -14 q 95 51 181 -14 q 10 239 10 115 q 19 329 10 285 q 169 587 57 501 q 490 672 282 672 q 743 607 657 672 q 829 417 829 542 q 819 329 829 383 q 669 72 785 157 q 344 -14 554 -14 m 390 201 q 472 231 442 201 q 515 329 501 261 q 524 389 524 365 q 505 441 524 425 q 444 457 486 457 q 366 427 394 457 q 324 329 338 397 q 315 267 315 292 q 333 217 315 232 q 390 201 350 201 z "},"ø":{"ha":856,"x_min":8,"x_max":829,"o":"m 165 13 q 49 98 89 40 q 8 239 8 156 q 19 329 8 278 q 169 587 57 501 q 490 672 282 672 q 565 668 529 672 l 606 733 l 726 733 l 672 644 q 790 558 750 615 q 829 415 829 500 q 819 329 829 383 q 669 72 785 157 q 344 -14 554 -14 q 269 -10 306 -14 l 231 -75 l 111 -75 l 165 13 m 447 475 q 301 329 332 475 q 293 267 293 294 q 299 231 293 246 l 447 475 m 389 183 q 538 329 507 183 q 544 390 544 368 q 539 428 544 413 l 389 183 z "},"ǿ":{"ha":856,"x_min":8,"x_max":829,"o":"m 525 1025 l 756 1025 l 551 725 l 333 725 l 525 1025 m 165 13 q 49 98 89 40 q 8 239 8 156 q 19 329 8 278 q 169 587 57 501 q 490 672 282 672 q 565 668 529 672 l 606 733 l 726 733 l 672 644 q 790 558 750 615 q 829 415 829 500 q 819 329 829 383 q 669 72 785 157 q 344 -14 554 -14 q 269 -10 306 -14 l 231 -75 l 111 -75 l 165 13 m 447 475 q 301 329 332 475 q 293 267 293 294 q 299 231 293 246 l 447 475 m 389 183 q 538 329 507 183 q 544 390 544 368 q 539 428 544 413 l 389 183 z "},"õ":{"ha":856,"x_min":10,"x_max":829,"o":"m 650 758 q 588 766 617 758 q 513 790 558 774 q 448 811 472 804 q 397 818 424 818 q 244 763 314 818 l 283 942 q 349 975 308 961 q 429 989 389 989 q 491 981 463 989 q 560 958 519 974 q 624 937 597 944 q 682 929 651 929 q 764 945 726 929 q 825 986 801 961 l 786 806 q 730 772 768 786 q 650 758 692 758 m 344 -14 q 95 51 181 -14 q 10 239 10 115 q 19 329 10 285 q 169 587 57 501 q 490 672 282 672 q 743 607 657 672 q 829 417 829 542 q 819 329 829 383 q 669 72 785 157 q 344 -14 554 -14 m 390 201 q 472 231 442 201 q 515 329 501 261 q 524 389 524 365 q 505 441 524 425 q 444 457 486 457 q 366 427 394 457 q 324 329 338 397 q 315 267 315 292 q 333 217 315 232 q 390 201 350 201 z "},"œ":{"ha":1310,"x_min":10,"x_max":1285,"o":"m 344 -14 q 95 51 181 -14 q 10 239 10 115 q 19 329 10 285 q 169 587 57 501 q 490 672 282 672 q 711 614 626 672 q 826 658 761 643 q 988 672 890 672 q 1204 604 1124 672 q 1285 424 1285 536 q 1278 358 1285 396 l 1254 244 l 807 244 q 857 186 814 204 q 993 168 900 168 q 1110 178 1050 168 q 1211 203 1171 189 l 1175 33 q 878 -14 1067 -14 q 639 51 729 -14 q 344 -14 525 -14 m 1046 400 l 1049 418 q 1030 469 1053 449 q 958 489 1007 489 q 828 408 850 489 l 828 400 l 1046 400 m 390 201 q 472 231 442 201 q 515 329 501 261 q 524 389 524 365 q 505 441 524 425 q 444 457 486 457 q 366 427 394 457 q 324 329 338 397 q 315 267 315 292 q 333 217 315 232 q 390 201 350 201 z "},"p":{"ha":857,"x_min":-83,"x_max":833,"o":"m 117 658 l 375 658 l 379 610 q 585 672 475 672 q 767 610 700 672 q 833 432 833 549 q 821 328 833 385 q 690 69 783 153 q 438 -14 596 -14 q 351 -6 396 -14 q 279 17 306 3 l 214 -289 l -83 -289 l 117 658 m 397 201 q 474 232 446 201 q 518 333 503 263 q 525 390 525 371 q 508 442 525 426 q 453 457 490 457 q 367 426 400 457 l 324 228 q 397 201 347 201 z "},"þ":{"ha":857,"x_min":-85,"x_max":832,"o":"m 183 972 l 482 972 l 411 640 q 490 663 443 654 q 579 672 538 672 q 765 610 697 672 q 832 429 832 547 q 821 328 832 376 q 688 69 785 153 q 426 -14 592 -14 q 347 -5 386 -14 q 279 17 307 4 l 213 -300 l -85 -300 l 183 972 m 397 201 q 473 232 443 201 q 518 333 503 263 q 525 390 525 371 q 508 442 525 426 q 453 457 490 457 q 367 426 407 457 l 324 228 q 356 208 340 214 q 397 201 372 201 z "},"q":{"ha":931,"x_min":8,"x_max":863,"o":"m 593 -336 q 448 -290 500 -336 q 396 -164 396 -244 q 401 -108 396 -135 l 428 17 q 351 -6 396 3 q 267 -14 307 -14 q 81 49 153 -14 q 8 231 8 111 q 19 328 8 272 q 153 589 57 506 q 404 672 249 672 q 508 656 464 672 q 579 610 553 639 l 604 658 l 863 658 l 708 -71 q 706 -94 706 -81 q 744 -126 706 -126 q 814 -114 781 -126 l 774 -304 q 690 -329 729 -322 q 593 -336 651 -336 m 388 201 q 472 228 436 201 l 515 426 q 444 457 493 457 q 368 429 397 457 q 325 333 339 401 q 317 268 317 294 q 333 217 317 232 q 388 201 350 201 z "},"r":{"ha":576,"x_min":-22,"x_max":640,"o":"m 117 658 l 407 658 l 404 613 q 515 653 450 636 q 640 672 579 671 l 594 451 q 471 438 538 449 q 364 413 404 428 l 276 0 l -22 0 l 117 658 z "},"ŕ":{"ha":576,"x_min":-22,"x_max":640,"o":"m 350 1025 l 581 1025 l 376 725 l 158 725 l 350 1025 m 117 658 l 407 658 l 404 613 q 515 653 450 636 q 640 672 579 671 l 594 451 q 471 438 538 449 q 364 413 404 428 l 276 0 l -22 0 l 117 658 z "},"ř":{"ha":576,"x_min":-22,"x_max":669,"o":"m 36 1013 l 243 1013 l 313 863 l 450 1013 l 669 1013 l 379 724 l 204 724 l 36 1013 m 117 658 l 407 658 l 404 613 q 515 653 450 636 q 640 672 579 671 l 594 451 q 471 438 538 449 q 364 413 404 428 l 276 0 l -22 0 l 117 658 z "},"ŗ":{"ha":576,"x_min":-119,"x_max":640,"o":"m 117 658 l 407 658 l 404 613 q 515 653 450 636 q 640 672 579 671 l 594 451 q 471 438 538 449 q 364 413 404 428 l 276 0 l -22 0 l 117 658 m -1 -51 l 229 -51 l 74 -381 l -119 -381 l -1 -51 z "},"ṛ":{"ha":576,"x_min":-25,"x_max":640,"o":"m 117 658 l 407 658 l 404 613 q 515 653 450 636 q 640 672 579 671 l 594 451 q 471 438 538 449 q 364 413 404 428 l 276 0 l -22 0 l 117 658 m 14 -64 l 213 -64 l 174 -244 l -25 -244 l 14 -64 z "},"ṝ":{"ha":576,"x_min":-25,"x_max":640,"o":"m 143 940 l 613 940 l 575 765 l 106 765 l 143 940 m 117 658 l 407 658 l 404 613 q 515 653 450 636 q 640 672 579 671 l 594 451 q 471 438 538 449 q 364 413 404 428 l 276 0 l -22 0 l 117 658 m 14 -64 l 213 -64 l 174 -244 l -25 -244 l 14 -64 z "},"ṟ":{"ha":576,"x_min":-157,"x_max":640,"o":"m 117 658 l 407 658 l 404 613 q 515 653 450 636 q 640 672 579 671 l 594 451 q 471 438 538 449 q 364 413 404 428 l 276 0 l -22 0 l 117 658 m -119 -69 l 350 -69 l 313 -244 l -157 -244 l -119 -69 z "},"s":{"ha":690,"x_min":-37,"x_max":678,"o":"m 243 -14 q 79 -1 156 -14 q -37 31 3 11 l 6 231 q 113 193 47 207 q 229 179 178 179 q 301 183 282 179 q 321 203 321 186 q 304 222 321 214 q 250 240 288 229 q 181 263 211 251 q 77 325 113 289 q 42 417 42 361 q 47 461 42 431 q 160 619 69 567 q 431 672 251 672 q 567 663 494 672 q 678 639 640 653 l 636 442 q 551 469 599 460 q 461 479 503 479 q 383 476 411 479 q 350 457 354 472 q 365 438 349 446 q 424 419 382 431 q 481 403 451 413 q 598 344 563 378 q 633 254 633 310 q 626 200 633 232 q 513 41 604 96 q 243 -14 421 -14 z "},"ś":{"ha":690,"x_min":-37,"x_max":703,"o":"m 472 1025 l 703 1025 l 499 725 l 281 725 l 472 1025 m 243 -14 q 79 -1 156 -14 q -37 31 3 11 l 6 231 q 113 193 47 207 q 229 179 178 179 q 301 183 282 179 q 321 203 321 186 q 304 222 321 214 q 250 240 288 229 q 181 263 211 251 q 77 325 113 289 q 42 417 42 361 q 47 461 42 431 q 160 619 69 567 q 431 672 251 672 q 567 663 494 672 q 678 639 640 653 l 636 442 q 551 469 599 460 q 461 479 503 479 q 383 476 411 479 q 350 457 354 472 q 365 438 349 446 q 424 419 382 431 q 481 403 451 413 q 598 344 563 378 q 633 254 633 310 q 626 200 633 232 q 513 41 604 96 q 243 -14 421 -14 z "},"š":{"ha":689,"x_min":-37,"x_max":783,"o":"m 150 1013 l 357 1013 l 426 863 l 564 1013 l 783 1013 l 493 724 l 318 724 l 150 1013 m 243 -14 q 79 -1 156 -14 q -37 31 3 11 l 6 231 q 113 193 47 207 q 229 179 178 179 q 301 183 282 179 q 321 203 321 186 q 304 222 321 214 q 250 240 288 229 q 181 263 211 251 q 77 325 113 289 q 42 417 42 361 q 47 461 42 431 q 160 619 69 567 q 431 672 251 672 q 567 663 494 672 q 678 639 640 653 l 636 442 q 551 469 599 460 q 461 479 503 479 q 383 476 411 479 q 350 457 354 472 q 365 438 349 446 q 424 419 382 431 q 481 403 451 413 q 598 344 563 378 q 633 254 633 310 q 626 200 633 232 q 513 41 604 96 q 243 -14 421 -14 z "},"ş":{"ha":690,"x_min":-37,"x_max":678,"o":"m 157 -333 q 93 -330 131 -333 q 42 -322 56 -326 l 64 -218 q 143 -229 101 -229 q 224 -215 197 -229 q 251 -169 251 -200 q 238 -147 251 -153 q 196 -140 224 -140 l 100 -140 l 164 -11 q -37 31 24 0 l 6 231 q 113 193 47 207 q 229 179 178 179 q 301 183 282 179 q 321 203 321 186 q 304 222 321 214 q 250 240 288 229 q 181 263 211 251 q 77 325 113 289 q 42 417 42 361 q 47 461 42 431 q 160 619 69 567 q 431 672 251 672 q 567 663 494 672 q 678 639 640 653 l 636 442 q 551 469 599 460 q 461 479 503 479 q 383 476 411 479 q 350 457 354 472 q 365 438 349 446 q 424 419 382 431 q 481 403 451 413 q 598 344 563 378 q 633 254 633 310 q 626 200 633 232 q 533 53 607 107 q 318 -11 458 0 l 293 -54 q 389 -81 357 -54 q 421 -156 421 -108 q 418 -186 421 -175 q 336 -294 403 -256 q 157 -333 269 -333 z "},"ŝ":{"ha":692,"x_min":-37,"x_max":744,"o":"m 400 1013 l 576 1013 l 744 724 l 542 724 l 468 874 l 336 724 l 111 724 l 400 1013 m 243 -14 q 79 -1 156 -14 q -37 31 3 11 l 6 231 q 113 193 47 207 q 229 179 178 179 q 301 183 282 179 q 321 203 321 186 q 304 222 321 214 q 250 240 288 229 q 181 263 211 251 q 77 325 113 289 q 42 417 42 361 q 47 461 42 431 q 160 619 69 567 q 431 672 251 672 q 567 663 494 672 q 678 639 640 653 l 636 442 q 551 469 599 460 q 461 479 503 479 q 383 476 411 479 q 350 457 354 472 q 365 438 349 446 q 424 419 382 431 q 481 403 451 413 q 598 344 563 378 q 633 254 633 310 q 626 200 633 232 q 513 41 604 96 q 243 -14 421 -14 z "},"ș":{"ha":690,"x_min":-37,"x_max":678,"o":"m 243 -14 q 79 -1 156 -14 q -37 31 3 11 l 6 231 q 113 193 47 207 q 229 179 178 179 q 301 183 282 179 q 321 203 321 186 q 304 222 321 214 q 250 240 288 229 q 181 263 211 251 q 77 325 113 289 q 42 417 42 361 q 47 461 42 431 q 160 619 69 567 q 431 672 251 672 q 567 663 494 672 q 678 639 640 653 l 636 442 q 551 469 599 460 q 461 479 503 479 q 383 476 411 479 q 350 457 354 472 q 365 438 349 446 q 424 419 382 431 q 481 403 451 413 q 598 344 563 378 q 633 254 633 310 q 626 200 633 232 q 513 41 604 96 q 243 -14 421 -14 m 142 -56 l 383 -56 l 258 -331 l 38 -331 l 142 -56 z "},"ṡ":{"ha":690,"x_min":-37,"x_max":678,"o":"m 344 946 l 543 946 l 506 764 l 307 764 l 344 946 m 243 -14 q 79 -1 156 -14 q -37 31 3 11 l 6 231 q 113 193 47 207 q 229 179 178 179 q 301 183 282 179 q 321 203 321 186 q 304 222 321 214 q 250 240 288 229 q 181 263 211 251 q 77 325 113 289 q 42 417 42 361 q 47 461 42 431 q 160 619 69 567 q 431 672 251 672 q 567 663 494 672 q 678 639 640 653 l 636 442 q 551 469 599 460 q 461 479 503 479 q 383 476 411 479 q 350 457 354 472 q 365 438 349 446 q 424 419 382 431 q 481 403 451 413 q 598 344 563 378 q 633 254 633 310 q 626 200 633 232 q 513 41 604 96 q 243 -14 421 -14 z "},"ṣ":{"ha":690,"x_min":-37,"x_max":678,"o":"m 243 -14 q 79 -1 156 -14 q -37 31 3 11 l 6 231 q 113 193 47 207 q 229 179 178 179 q 301 183 282 179 q 321 203 321 186 q 304 222 321 214 q 250 240 288 229 q 181 263 211 251 q 77 325 113 289 q 42 417 42 361 q 47 461 42 431 q 160 619 69 567 q 431 672 251 672 q 567 663 494 672 q 678 639 640 653 l 636 442 q 551 469 599 460 q 461 479 503 479 q 383 476 411 479 q 350 457 354 472 q 365 438 349 446 q 424 419 382 431 q 481 403 451 413 q 598 344 563 378 q 633 254 633 310 q 626 200 633 232 q 513 41 604 96 q 243 -14 421 -14 m 161 -64 l 360 -64 l 321 -244 l 122 -244 l 161 -64 z "},"ß":{"ha":906,"x_min":-29,"x_max":913,"o":"m 488 -14 q 385 -6 433 -14 q 310 17 338 3 l 354 222 q 400 210 372 214 q 454 206 428 206 q 554 285 536 206 q 557 306 557 301 q 538 344 557 332 q 476 356 518 356 l 394 356 l 436 551 l 503 551 q 578 572 553 551 q 614 636 604 592 q 617 656 617 650 q 594 702 617 685 q 526 719 572 719 q 429 692 463 719 q 382 603 396 665 l 254 0 l -29 0 l 103 622 q 251 879 136 786 q 567 972 367 972 q 760 937 682 972 q 875 842 838 901 q 913 711 913 783 q 906 651 913 686 q 858 535 892 585 q 776 458 824 486 q 861 313 861 417 q 857 268 861 292 q 742 58 836 129 q 488 -14 647 -14 z "},"ə":{"ha":776,"x_min":4,"x_max":749,"o":"m 303 -14 q 87 51 169 -14 q 4 229 4 115 q 13 299 4 261 l 38 413 l 485 413 q 435 472 474 454 q 307 489 397 489 q 183 479 247 489 q 81 456 119 469 l 117 624 q 413 672 229 672 q 655 601 561 672 q 749 404 749 529 q 740 331 749 368 q 603 74 704 163 q 303 -14 503 -14 m 332 168 q 451 258 433 168 l 260 258 l 256 240 q 253 221 253 226 q 332 168 253 168 z "},"t":{"ha":539,"x_min":15,"x_max":585,"o":"m 267 -14 q 103 37 160 -14 q 47 176 47 88 q 56 246 47 208 l 97 440 l 15 440 l 61 658 l 143 658 l 171 790 l 483 856 l 442 658 l 585 658 l 531 440 l 396 440 l 358 264 q 356 239 356 244 q 371 207 356 217 q 419 197 386 197 q 506 211 460 197 l 464 19 q 267 -14 376 -14 z "},"ŧ":{"ha":539,"x_min":-24,"x_max":585,"o":"m 267 -14 q 103 35 158 -14 q 47 174 47 85 q 56 246 47 208 l 57 256 l -24 256 l 10 414 l 90 414 l 100 457 l 18 457 l 61 658 l 143 658 l 171 790 l 483 856 l 442 658 l 585 658 l 533 457 l 399 457 l 389 414 l 533 414 l 500 256 l 356 256 q 354 239 354 250 q 369 207 354 217 q 419 197 383 197 q 506 211 460 197 l 464 19 q 267 -14 376 -14 z "},"ť":{"ha":751,"x_min":15,"x_max":917,"o":"m 686 1104 l 917 1104 l 761 775 l 568 775 l 686 1104 m 267 -14 q 103 37 160 -14 q 47 176 47 88 q 56 246 47 208 l 97 440 l 15 440 l 61 658 l 143 658 l 171 790 l 483 856 l 442 658 l 585 658 l 531 440 l 396 440 l 358 264 q 356 239 356 244 q 371 207 356 217 q 419 197 386 197 q 506 211 460 197 l 464 19 q 267 -14 376 -14 z "},"ţ":{"ha":543,"x_min":15,"x_max":585,"o":"m 182 -333 q 118 -330 156 -333 q 67 -322 81 -326 l 89 -218 q 168 -229 126 -229 q 249 -215 222 -229 q 276 -169 276 -200 q 263 -147 276 -153 q 221 -140 249 -140 l 125 -140 l 192 -6 q 83 57 119 10 q 47 175 47 104 q 56 246 47 208 l 97 440 l 15 440 l 61 658 l 143 658 l 171 790 l 483 856 l 442 658 l 585 658 l 531 440 l 396 440 l 358 264 q 356 239 356 244 q 371 207 356 217 q 419 197 386 197 q 506 211 460 197 l 464 19 q 344 -10 414 0 l 318 -54 q 414 -81 382 -54 q 446 -156 446 -108 q 443 -186 446 -175 q 361 -294 428 -256 q 182 -333 294 -333 z "},"ț":{"ha":539,"x_min":15,"x_max":585,"o":"m 267 -14 q 103 37 160 -14 q 47 176 47 88 q 56 246 47 208 l 97 440 l 15 440 l 61 658 l 143 658 l 171 790 l 483 856 l 442 658 l 585 658 l 531 440 l 396 440 l 358 264 q 356 239 356 244 q 371 207 356 217 q 419 197 386 197 q 506 211 460 197 l 464 19 q 267 -14 376 -14 m 133 -56 l 364 -56 l 208 -385 l 15 -385 l 133 -56 z "},"ẗ":{"ha":539,"x_min":15,"x_max":661,"o":"m 150 1076 l 349 1076 l 311 894 l 113 894 l 150 1076 m 463 1076 l 661 1076 l 624 894 l 425 894 l 463 1076 m 267 -14 q 103 37 160 -14 q 47 176 47 88 q 56 246 47 208 l 97 440 l 15 440 l 61 658 l 143 658 l 171 790 l 483 856 l 442 658 l 585 658 l 531 440 l 396 440 l 358 264 q 356 239 356 244 q 371 207 356 217 q 419 197 386 197 q 506 211 460 197 l 464 19 q 267 -14 376 -14 z "},"ṭ":{"ha":539,"x_min":15,"x_max":585,"o":"m 267 -14 q 103 37 160 -14 q 47 176 47 88 q 56 246 47 208 l 97 440 l 15 440 l 61 658 l 143 658 l 171 790 l 483 856 l 442 658 l 585 658 l 531 440 l 396 440 l 358 264 q 356 239 356 244 q 371 207 356 217 q 419 197 386 197 q 506 211 460 197 l 464 19 q 267 -14 376 -14 m 104 -64 l 303 -64 l 264 -244 l 65 -244 l 104 -64 z "},"ṯ":{"ha":539,"x_min":-97,"x_max":585,"o":"m 267 -14 q 103 37 160 -14 q 47 176 47 88 q 56 246 47 208 l 97 440 l 15 440 l 61 658 l 143 658 l 171 790 l 483 856 l 442 658 l 585 658 l 531 440 l 396 440 l 358 264 q 356 239 356 244 q 371 207 356 217 q 419 197 386 197 q 506 211 460 197 l 464 19 q 267 -14 376 -14 m -60 -69 l 410 -69 l 372 -244 l -97 -244 l -60 -69 z "},"u":{"ha":854,"x_min":14,"x_max":860,"o":"m 210 -14 q 66 36 118 -14 q 14 174 14 86 q 21 242 14 213 l 110 658 l 408 658 l 326 271 l 324 249 q 338 215 324 225 q 379 206 351 206 q 432 216 407 206 q 474 243 457 226 l 561 658 l 860 658 l 721 0 l 440 0 l 442 43 q 337 1 397 17 q 210 -14 276 -14 z "},"ú":{"ha":854,"x_min":14,"x_max":860,"o":"m 553 1025 l 783 1025 l 579 725 l 361 725 l 553 1025 m 210 -14 q 66 36 118 -14 q 14 174 14 86 q 21 242 14 213 l 110 658 l 408 658 l 326 271 l 324 249 q 338 215 324 225 q 379 206 351 206 q 432 216 407 206 q 474 243 457 226 l 561 658 l 860 658 l 721 0 l 440 0 l 442 43 q 337 1 397 17 q 210 -14 276 -14 z "},"ŭ":{"ha":854,"x_min":14,"x_max":860,"o":"m 503 724 q 333 776 394 724 q 272 928 272 829 q 281 1007 272 965 l 464 1007 q 458 958 458 983 q 475 906 458 925 q 531 888 492 888 q 611 919 586 888 q 649 1007 636 950 l 849 1007 q 731 797 819 869 q 503 724 642 724 m 210 -14 q 66 36 118 -14 q 14 174 14 86 q 21 242 14 213 l 110 658 l 408 658 l 326 271 l 324 249 q 338 215 324 225 q 379 206 351 206 q 432 216 407 206 q 474 243 457 226 l 561 658 l 860 658 l 721 0 l 440 0 l 442 43 q 337 1 397 17 q 210 -14 276 -14 z "},"ǔ":{"ha":854,"x_min":14,"x_max":878,"o":"m 244 1013 l 451 1013 l 521 863 l 658 1013 l 878 1013 l 588 724 l 413 724 l 244 1013 m 210 -14 q 66 36 118 -14 q 14 174 14 86 q 21 242 14 213 l 110 658 l 408 658 l 326 271 l 324 249 q 338 215 324 225 q 379 206 351 206 q 432 216 407 206 q 474 243 457 226 l 561 658 l 860 658 l 721 0 l 440 0 l 442 43 q 337 1 397 17 q 210 -14 276 -14 z "},"û":{"ha":854,"x_min":14,"x_max":860,"o":"m 469 1014 l 646 1014 l 814 725 l 611 725 l 538 875 l 406 725 l 181 725 l 469 1014 m 210 -14 q 66 36 118 -14 q 14 174 14 86 q 21 242 14 213 l 110 658 l 408 658 l 326 271 l 324 249 q 338 215 324 225 q 379 206 351 206 q 432 216 407 206 q 474 243 457 226 l 561 658 l 860 658 l 721 0 l 440 0 l 442 43 q 337 1 397 17 q 210 -14 276 -14 z "},"ü":{"ha":854,"x_min":14,"x_max":860,"o":"m 290 946 l 489 946 l 451 764 l 253 764 l 290 946 m 603 946 l 801 946 l 764 764 l 565 764 l 603 946 m 210 -14 q 66 36 118 -14 q 14 174 14 86 q 21 242 14 213 l 110 658 l 408 658 l 326 271 l 324 249 q 338 215 324 225 q 379 206 351 206 q 432 216 407 206 q 474 243 457 226 l 561 658 l 860 658 l 721 0 l 440 0 l 442 43 q 337 1 397 17 q 210 -14 276 -14 z "},"ǘ":{"ha":854,"x_min":14,"x_max":860,"o":"m 560 1169 l 781 1169 l 639 974 l 439 974 l 560 1169 m 285 935 l 479 935 l 443 764 l 249 764 l 285 935 m 593 935 l 788 935 l 751 764 l 557 764 l 593 935 m 210 -14 q 66 36 118 -14 q 14 174 14 86 q 21 242 14 213 l 110 658 l 408 658 l 326 271 l 324 249 q 338 215 324 225 q 379 206 351 206 q 432 216 407 206 q 474 243 457 226 l 561 658 l 860 658 l 721 0 l 440 0 l 442 43 q 337 1 397 17 q 210 -14 276 -14 z "},"ǚ":{"ha":854,"x_min":14,"x_max":881,"o":"m 296 1126 l 507 1126 l 561 1025 l 660 1126 l 881 1126 l 650 933 l 446 933 l 296 1126 m 283 896 l 478 896 l 442 725 l 247 725 l 283 896 m 592 896 l 785 896 l 749 725 l 556 725 l 592 896 m 210 -14 q 66 36 118 -14 q 14 174 14 86 q 21 242 14 213 l 110 658 l 408 658 l 326 271 l 324 249 q 338 215 324 225 q 379 206 351 206 q 432 216 407 206 q 474 243 457 226 l 561 658 l 860 658 l 721 0 l 440 0 l 442 43 q 337 1 397 17 q 210 -14 276 -14 z "},"ǜ":{"ha":854,"x_min":14,"x_max":860,"o":"m 403 1169 l 624 1169 l 661 974 l 461 974 l 403 1169 m 296 935 l 490 935 l 454 764 l 260 764 l 296 935 m 604 935 l 799 935 l 763 764 l 568 764 l 604 935 m 210 -14 q 66 36 118 -14 q 14 174 14 86 q 21 242 14 213 l 110 658 l 408 658 l 326 271 l 324 249 q 338 215 324 225 q 379 206 351 206 q 432 216 407 206 q 474 243 457 226 l 561 658 l 860 658 l 721 0 l 440 0 l 442 43 q 337 1 397 17 q 210 -14 276 -14 z "},"ǖ":{"ha":854,"x_min":14,"x_max":860,"o":"m 361 1168 l 831 1168 l 793 993 l 324 993 l 361 1168 m 286 921 l 485 921 l 447 739 l 249 739 l 286 921 m 599 921 l 797 921 l 760 739 l 561 739 l 599 921 m 210 -14 q 66 36 118 -14 q 14 174 14 86 q 21 242 14 213 l 110 658 l 408 658 l 326 271 l 324 249 q 338 215 324 225 q 379 206 351 206 q 432 216 407 206 q 474 243 457 226 l 561 658 l 860 658 l 721 0 l 440 0 l 442 43 q 337 1 397 17 q 210 -14 276 -14 z "},"ụ":{"ha":854,"x_min":14,"x_max":860,"o":"m 210 -14 q 66 36 118 -14 q 14 174 14 86 q 21 242 14 213 l 110 658 l 408 658 l 326 271 l 324 249 q 338 215 324 225 q 379 206 351 206 q 432 216 407 206 q 474 243 457 226 l 561 658 l 860 658 l 721 0 l 440 0 l 442 43 q 337 1 397 17 q 210 -14 276 -14 m 231 -64 l 429 -64 l 390 -244 l 192 -244 l 231 -64 z "},"ù":{"ha":854,"x_min":14,"x_max":860,"o":"m 342 1025 l 574 1025 l 638 725 l 418 725 l 342 1025 m 210 -14 q 66 36 118 -14 q 14 174 14 86 q 21 242 14 213 l 110 658 l 408 658 l 326 271 l 324 249 q 338 215 324 225 q 379 206 351 206 q 432 216 407 206 q 474 243 457 226 l 561 658 l 860 658 l 721 0 l 440 0 l 442 43 q 337 1 397 17 q 210 -14 276 -14 z "},"ủ":{"ha":854,"x_min":14,"x_max":860,"o":"m 414 838 q 518 858 488 842 q 549 904 549 875 q 481 938 549 938 q 397 925 440 938 l 422 1044 q 597 1064 492 1064 q 727 1032 682 1064 q 772 947 772 1000 q 769 919 772 929 q 722 828 757 860 q 624 778 688 796 l 613 725 l 390 725 l 414 838 m 210 -14 q 66 36 118 -14 q 14 174 14 86 q 21 242 14 213 l 110 658 l 408 658 l 326 271 l 324 249 q 338 215 324 225 q 379 206 351 206 q 432 216 407 206 q 474 243 457 226 l 561 658 l 860 658 l 721 0 l 440 0 l 442 43 q 337 1 397 17 q 210 -14 276 -14 z "},"ư":{"ha":1075,"x_min":14,"x_max":1140,"o":"m 210 -14 q 66 36 118 -14 q 14 174 14 86 q 21 242 14 213 l 110 658 l 408 658 l 326 271 l 324 249 q 338 215 324 225 q 379 206 351 206 q 432 216 407 206 q 474 243 457 226 l 561 658 l 860 658 l 847 603 q 923 642 901 613 q 956 744 944 672 l 1140 744 q 1031 513 1107 585 q 811 431 956 442 l 721 0 l 440 0 l 442 43 q 337 1 397 17 q 210 -14 276 -14 z "},"ứ":{"ha":1075,"x_min":14,"x_max":1140,"o":"m 568 1025 l 799 1025 l 594 725 l 376 725 l 568 1025 m 210 -14 q 66 36 118 -14 q 14 174 14 86 q 21 242 14 213 l 110 658 l 408 658 l 326 271 l 324 249 q 338 215 324 225 q 379 206 351 206 q 432 216 407 206 q 474 243 457 226 l 561 658 l 860 658 l 847 603 q 923 642 901 613 q 956 744 944 672 l 1140 744 q 1031 513 1107 585 q 811 431 956 442 l 721 0 l 440 0 l 442 43 q 337 1 397 17 q 210 -14 276 -14 z "},"ự":{"ha":1075,"x_min":14,"x_max":1140,"o":"m 210 -14 q 66 36 118 -14 q 14 174 14 86 q 21 242 14 213 l 110 658 l 408 658 l 326 271 l 324 249 q 338 215 324 225 q 379 206 351 206 q 432 216 407 206 q 474 243 457 226 l 561 658 l 860 658 l 847 603 q 923 642 901 613 q 956 744 944 672 l 1140 744 q 1031 513 1107 585 q 811 431 956 442 l 721 0 l 440 0 l 442 43 q 337 1 397 17 q 210 -14 276 -14 m 236 -64 l 435 -64 l 396 -244 l 197 -244 l 236 -64 z "},"ừ":{"ha":1075,"x_min":14,"x_max":1140,"o":"m 297 1025 l 529 1025 l 593 725 l 374 725 l 297 1025 m 210 -14 q 66 36 118 -14 q 14 174 14 86 q 21 242 14 213 l 110 658 l 408 658 l 326 271 l 324 249 q 338 215 324 225 q 379 206 351 206 q 432 216 407 206 q 474 243 457 226 l 561 658 l 860 658 l 847 603 q 923 642 901 613 q 956 744 944 672 l 1140 744 q 1031 513 1107 585 q 811 431 956 442 l 721 0 l 440 0 l 442 43 q 337 1 397 17 q 210 -14 276 -14 z "},"ử":{"ha":1075,"x_min":14,"x_max":1140,"o":"m 392 838 q 496 858 465 842 q 526 904 526 875 q 458 938 526 938 q 375 925 418 938 l 400 1044 q 575 1064 469 1064 q 705 1032 660 1064 q 750 947 750 1000 q 747 919 750 929 q 700 828 735 860 q 601 778 665 796 l 590 725 l 368 725 l 392 838 m 210 -14 q 66 36 118 -14 q 14 174 14 86 q 21 242 14 213 l 110 658 l 408 658 l 326 271 l 324 249 q 338 215 324 225 q 379 206 351 206 q 432 216 407 206 q 474 243 457 226 l 561 658 l 860 658 l 847 603 q 923 642 901 613 q 956 744 944 672 l 1140 744 q 1031 513 1107 585 q 811 431 956 442 l 721 0 l 440 0 l 442 43 q 337 1 397 17 q 210 -14 276 -14 z "},"ữ":{"ha":1075,"x_min":14,"x_max":1140,"o":"m 643 728 q 581 735 610 728 q 506 760 551 743 q 441 781 465 774 q 390 788 417 788 q 238 732 307 788 l 276 911 q 342 944 301 931 q 422 958 382 958 q 484 951 456 958 q 553 928 513 943 q 617 906 590 914 q 675 899 644 899 q 757 915 719 899 q 818 956 794 931 l 779 775 q 723 742 761 756 q 643 728 685 728 m 210 -14 q 66 36 118 -14 q 14 174 14 86 q 21 242 14 213 l 110 658 l 408 658 l 326 271 l 324 249 q 338 215 324 225 q 379 206 351 206 q 432 216 407 206 q 474 243 457 226 l 561 658 l 860 658 l 847 603 q 923 642 901 613 q 956 744 944 672 l 1140 744 q 1031 513 1107 585 q 811 431 956 442 l 721 0 l 440 0 l 442 43 q 337 1 397 17 q 210 -14 276 -14 z "},"ű":{"ha":854,"x_min":14,"x_max":982,"o":"m 381 993 l 632 993 l 426 724 l 199 724 l 381 993 m 729 993 l 982 993 l 775 724 l 547 724 l 729 993 m 210 -14 q 66 36 118 -14 q 14 174 14 86 q 21 242 14 213 l 110 658 l 408 658 l 326 271 l 324 249 q 338 215 324 225 q 379 206 351 206 q 432 216 407 206 q 474 243 457 226 l 561 658 l 860 658 l 721 0 l 440 0 l 442 43 q 337 1 397 17 q 210 -14 276 -14 z "},"ū":{"ha":854,"x_min":14,"x_max":860,"o":"m 314 951 l 783 951 l 746 776 l 276 776 l 314 951 m 210 -14 q 66 36 118 -14 q 14 174 14 86 q 21 242 14 213 l 110 658 l 408 658 l 326 271 l 324 249 q 338 215 324 225 q 379 206 351 206 q 432 216 407 206 q 474 243 457 226 l 561 658 l 860 658 l 721 0 l 440 0 l 442 43 q 337 1 397 17 q 210 -14 276 -14 z "},"ų":{"ha":854,"x_min":14,"x_max":860,"o":"m 467 -306 q 342 -279 388 -306 q 297 -199 297 -253 q 301 -167 297 -183 q 350 -72 313 -115 q 440 0 388 -29 l 442 43 q 337 1 397 17 q 210 -14 276 -14 q 66 36 118 -14 q 14 174 14 86 q 21 242 14 213 l 110 658 l 408 658 l 326 271 l 324 249 q 338 215 324 225 q 379 206 351 206 q 432 216 407 206 q 474 243 457 226 l 561 658 l 860 658 l 721 0 l 626 0 q 529 -115 543 -54 q 528 -129 528 -121 q 579 -164 528 -164 q 653 -149 622 -164 l 624 -282 q 554 -299 597 -292 q 467 -306 511 -306 z "},"ů":{"ha":854,"x_min":14,"x_max":860,"o":"m 496 724 q 374 764 418 724 q 331 871 331 804 q 335 914 331 892 q 415 1053 353 1000 q 578 1106 478 1106 q 702 1065 658 1106 q 746 960 746 1025 q 740 914 746 944 q 660 776 722 829 q 496 724 597 724 m 521 842 q 590 869 564 842 q 615 935 615 897 q 553 988 615 988 q 484 959 511 988 q 457 894 457 931 q 521 842 457 842 m 210 -14 q 66 36 118 -14 q 14 174 14 86 q 21 242 14 213 l 110 658 l 408 658 l 326 271 l 324 249 q 338 215 324 225 q 379 206 351 206 q 432 216 407 206 q 474 243 457 226 l 561 658 l 860 658 l 721 0 l 440 0 l 442 43 q 337 1 397 17 q 210 -14 276 -14 z "},"ũ":{"ha":854,"x_min":14,"x_max":860,"o":"m 639 733 q 576 741 606 733 q 501 765 547 749 q 437 786 461 779 q 386 793 413 793 q 233 738 303 793 l 272 917 q 338 950 297 936 q 418 964 378 964 q 480 956 451 964 q 549 933 508 949 q 613 912 586 919 q 671 904 640 904 q 753 920 715 904 q 814 961 790 936 l 775 781 q 719 747 757 761 q 639 733 681 733 m 210 -14 q 66 36 118 -14 q 14 174 14 86 q 21 242 14 213 l 110 658 l 408 658 l 326 271 l 324 249 q 338 215 324 225 q 379 206 351 206 q 432 216 407 206 q 474 243 457 226 l 561 658 l 860 658 l 721 0 l 440 0 l 442 43 q 337 1 397 17 q 210 -14 276 -14 z "},"v":{"ha":888,"x_min":89,"x_max":921,"o":"m 89 658 l 392 658 l 424 314 l 601 658 l 921 658 l 522 0 l 210 0 l 89 658 z "},"w":{"ha":1108,"x_min":89,"x_max":1142,"o":"m 89 658 l 375 658 l 383 382 l 479 560 l 500 658 l 717 658 l 733 382 l 856 658 l 1142 658 l 829 0 l 572 0 l 540 256 l 400 0 l 124 0 l 89 658 z "},"ẃ":{"ha":1108,"x_min":89,"x_max":1142,"o":"m 703 1025 l 933 1025 l 729 725 l 511 725 l 703 1025 m 89 658 l 375 658 l 383 382 l 479 560 l 500 658 l 717 658 l 733 382 l 856 658 l 1142 658 l 829 0 l 572 0 l 540 256 l 400 0 l 124 0 l 89 658 z "},"ŵ":{"ha":1108,"x_min":89,"x_max":1142,"o":"m 604 1013 l 781 1013 l 949 724 l 746 724 l 672 874 l 540 724 l 315 724 l 604 1013 m 89 658 l 375 658 l 383 382 l 479 560 l 500 658 l 717 658 l 733 382 l 856 658 l 1142 658 l 829 0 l 572 0 l 540 256 l 400 0 l 124 0 l 89 658 z "},"ẅ":{"ha":1108,"x_min":89,"x_max":1142,"o":"m 422 946 l 621 946 l 583 764 l 385 764 l 422 946 m 735 946 l 933 946 l 896 764 l 697 764 l 735 946 m 89 658 l 375 658 l 383 382 l 479 560 l 500 658 l 717 658 l 733 382 l 856 658 l 1142 658 l 829 0 l 572 0 l 540 256 l 400 0 l 124 0 l 89 658 z "},"ẁ":{"ha":1108,"x_min":89,"x_max":1142,"o":"m 435 1025 l 667 1025 l 731 725 l 511 725 l 435 1025 m 89 658 l 375 658 l 383 382 l 479 560 l 500 658 l 717 658 l 733 382 l 856 658 l 1142 658 l 829 0 l 572 0 l 540 256 l 400 0 l 124 0 l 89 658 z "},"x":{"ha":890,"x_min":-43,"x_max":878,"o":"m 282 335 l 106 658 l 389 658 l 463 519 l 596 658 l 878 658 l 567 335 l 750 0 l 464 0 l 383 147 l 242 0 l -43 0 l 282 335 z "},"y":{"ha":854,"x_min":10,"x_max":860,"o":"m 201 -244 q 101 -240 165 -244 q 10 -231 36 -236 l 53 -29 q 124 -42 79 -36 q 203 -47 169 -47 q 436 33 422 -47 l 440 57 q 214 0 343 0 q 69 49 121 0 q 17 185 17 97 q 25 256 17 218 l 110 658 l 408 658 l 329 285 q 326 258 326 275 q 340 228 326 238 q 382 219 353 219 q 431 231 404 219 q 476 257 458 242 l 561 658 l 860 658 l 742 103 q 581 -156 706 -67 q 201 -244 457 -244 z "},"ý":{"ha":854,"x_min":10,"x_max":860,"o":"m 572 1025 l 803 1025 l 599 725 l 381 725 l 572 1025 m 201 -244 q 101 -240 165 -244 q 10 -231 36 -236 l 53 -29 q 124 -42 79 -36 q 203 -47 169 -47 q 436 33 422 -47 l 440 57 q 214 0 343 0 q 69 49 121 0 q 17 185 17 97 q 25 256 17 218 l 110 658 l 408 658 l 329 285 q 326 258 326 275 q 340 228 326 238 q 382 219 353 219 q 431 231 404 219 q 476 257 458 242 l 561 658 l 860 658 l 742 103 q 581 -156 706 -67 q 201 -244 457 -244 z "},"ŷ":{"ha":854,"x_min":10,"x_max":860,"o":"m 468 1013 l 644 1013 l 813 724 l 610 724 l 536 874 l 404 724 l 179 724 l 468 1013 m 201 -244 q 101 -240 165 -244 q 10 -231 36 -236 l 53 -29 q 124 -42 79 -36 q 203 -47 169 -47 q 436 33 422 -47 l 440 57 q 214 0 343 0 q 69 49 121 0 q 17 185 17 97 q 25 256 17 218 l 110 658 l 408 658 l 329 285 q 326 258 326 275 q 340 228 326 238 q 382 219 353 219 q 431 231 404 219 q 476 257 458 242 l 561 658 l 860 658 l 742 103 q 581 -156 706 -67 q 201 -244 457 -244 z "},"ÿ":{"ha":854,"x_min":10,"x_max":860,"o":"m 292 979 l 490 979 l 453 797 l 254 797 l 292 979 m 604 979 l 803 979 l 765 797 l 567 797 l 604 979 m 201 -244 q 101 -240 165 -244 q 10 -231 36 -236 l 53 -29 q 124 -42 79 -36 q 203 -47 169 -47 q 436 33 422 -47 l 440 57 q 214 0 343 0 q 69 49 121 0 q 17 185 17 97 q 25 256 17 218 l 110 658 l 408 658 l 329 285 q 326 258 326 275 q 340 228 326 238 q 382 219 353 219 q 431 231 404 219 q 476 257 458 242 l 561 658 l 860 658 l 742 103 q 581 -156 706 -67 q 201 -244 457 -244 z "},"ẏ":{"ha":854,"x_min":10,"x_max":860,"o":"m 496 946 l 694 946 l 657 764 l 458 764 l 496 946 m 201 -244 q 101 -240 165 -244 q 10 -231 36 -236 l 53 -29 q 124 -42 79 -36 q 203 -47 169 -47 q 436 33 422 -47 l 440 57 q 214 0 343 0 q 69 49 121 0 q 17 185 17 97 q 25 256 17 218 l 110 658 l 408 658 l 329 285 q 326 258 326 275 q 340 228 326 238 q 382 219 353 219 q 431 231 404 219 q 476 257 458 242 l 561 658 l 860 658 l 742 103 q 581 -156 706 -67 q 201 -244 457 -244 z "},"ỵ":{"ha":854,"x_min":10,"x_max":889,"o":"m 201 -244 q 101 -240 165 -244 q 10 -231 36 -236 l 53 -29 q 124 -42 79 -36 q 203 -47 169 -47 q 436 33 422 -47 l 440 57 q 214 0 343 0 q 69 49 121 0 q 17 185 17 97 q 25 256 17 218 l 110 658 l 408 658 l 329 285 q 326 258 326 275 q 340 228 326 238 q 382 219 353 219 q 431 231 404 219 q 476 257 458 242 l 561 658 l 860 658 l 742 103 q 581 -156 706 -67 q 201 -244 457 -244 m 690 -64 l 889 -64 l 850 -244 l 651 -244 l 690 -64 z "},"ỳ":{"ha":854,"x_min":10,"x_max":860,"o":"m 332 1025 l 564 1025 l 628 725 l 408 725 l 332 1025 m 201 -244 q 101 -240 165 -244 q 10 -231 36 -236 l 53 -29 q 124 -42 79 -36 q 203 -47 169 -47 q 436 33 422 -47 l 440 57 q 214 0 343 0 q 69 49 121 0 q 17 185 17 97 q 25 256 17 218 l 110 658 l 408 658 l 329 285 q 326 258 326 275 q 340 228 326 238 q 382 219 353 219 q 431 231 404 219 q 476 257 458 242 l 561 658 l 860 658 l 742 103 q 581 -156 706 -67 q 201 -244 457 -244 z "},"ỷ":{"ha":854,"x_min":10,"x_max":860,"o":"m 410 838 q 514 858 483 842 q 544 904 544 875 q 476 938 544 938 q 393 925 436 938 l 418 1044 q 593 1064 488 1064 q 723 1032 678 1064 q 768 947 768 1000 q 765 919 768 929 q 718 828 753 860 q 619 778 683 796 l 608 725 l 386 725 l 410 838 m 201 -244 q 101 -240 165 -244 q 10 -231 36 -236 l 53 -29 q 124 -42 79 -36 q 203 -47 169 -47 q 436 33 422 -47 l 440 57 q 214 0 343 0 q 69 49 121 0 q 17 185 17 97 q 25 256 17 218 l 110 658 l 408 658 l 329 285 q 326 258 326 275 q 340 228 326 238 q 382 219 353 219 q 431 231 404 219 q 476 257 458 242 l 561 658 l 860 658 l 742 103 q 581 -156 706 -67 q 201 -244 457 -244 z "},"ỹ":{"ha":854,"x_min":10,"x_max":860,"o":"m 638 733 q 575 741 604 733 q 500 765 546 749 q 435 786 460 779 q 385 793 411 793 q 232 738 301 793 l 271 917 q 336 950 296 936 q 417 964 376 964 q 478 956 450 964 q 547 933 507 949 q 612 912 585 919 q 669 904 639 904 q 751 920 714 904 q 813 961 789 936 l 774 781 q 717 747 756 761 q 638 733 679 733 m 201 -244 q 101 -240 165 -244 q 10 -231 36 -236 l 53 -29 q 124 -42 79 -36 q 203 -47 169 -47 q 436 33 422 -47 l 440 57 q 214 0 343 0 q 69 49 121 0 q 17 185 17 97 q 25 256 17 218 l 110 658 l 408 658 l 329 285 q 326 258 326 275 q 340 228 326 238 q 382 219 353 219 q 431 231 404 219 q 476 257 458 242 l 561 658 l 860 658 l 742 103 q 581 -156 706 -67 q 201 -244 457 -244 z "},"z":{"ha":694,"x_min":-50,"x_max":718,"o":"m -17 160 l 289 429 l 49 429 l 97 658 l 718 658 l 682 488 l 386 221 l 635 221 l 589 0 l -50 0 l -17 160 z "},"ź":{"ha":694,"x_min":-50,"x_max":721,"o":"m 490 1025 l 721 1025 l 517 725 l 299 725 l 490 1025 m -17 160 l 289 429 l 49 429 l 97 658 l 718 658 l 682 488 l 386 221 l 635 221 l 589 0 l -50 0 l -17 160 z "},"ž":{"ha":694,"x_min":-50,"x_max":807,"o":"m 174 1013 l 381 1013 l 450 863 l 588 1013 l 807 1013 l 517 724 l 342 724 l 174 1013 m -17 160 l 289 429 l 49 429 l 97 658 l 718 658 l 682 488 l 386 221 l 635 221 l 589 0 l -50 0 l -17 160 z "},"ż":{"ha":694,"x_min":-50,"x_max":718,"o":"m 367 946 l 565 946 l 528 764 l 329 764 l 367 946 m -17 160 l 289 429 l 49 429 l 97 658 l 718 658 l 682 488 l 386 221 l 635 221 l 589 0 l -50 0 l -17 160 z "},"ẓ":{"ha":694,"x_min":-50,"x_max":718,"o":"m -17 160 l 289 429 l 49 429 l 97 658 l 718 658 l 682 488 l 386 221 l 635 221 l 589 0 l -50 0 l -17 160 m 139 -64 l 338 -64 l 299 -244 l 100 -244 l 139 -64 z "},"ﬁ":{"ha":833,"x_min":3,"x_max":839,"o":"m 96 440 l 15 440 l 61 658 l 142 658 l 147 685 q 263 883 172 806 q 521 960 353 960 q 719 929 646 960 l 678 733 q 638 744 663 740 q 589 749 613 749 q 484 731 515 749 q 444 679 453 714 l 440 658 l 839 658 l 700 0 l 401 0 l 494 440 l 394 440 l 301 0 l 3 0 l 96 440 z "},"ﬂ":{"ha":833,"x_min":3,"x_max":897,"o":"m 96 440 l 15 440 l 61 658 l 142 658 l 147 685 q 260 884 174 810 q 508 958 346 958 q 694 929 610 958 l 897 929 l 700 0 l 406 0 l 499 440 l 392 440 l 299 0 l 3 0 l 96 440 m 549 658 l 565 736 q 515 744 546 744 q 463 729 481 744 q 439 679 446 714 l 435 658 l 549 658 z "},"ª":{"ha":461,"x_min":85,"x_max":518,"o":"m 190 528 q 115 552 144 528 q 85 621 85 576 q 88 647 85 628 q 268 771 111 771 l 357 771 l 358 775 q 349 798 364 790 q 296 806 335 806 q 163 786 229 806 l 182 881 q 260 901 215 893 q 350 908 304 908 q 474 876 431 908 q 518 788 518 843 q 515 757 518 768 l 469 536 l 321 536 l 319 563 q 190 528 269 528 m 272 622 q 331 646 307 622 l 339 683 l 293 683 q 258 676 269 683 q 242 653 246 669 q 240 643 240 649 q 272 622 240 622 z "},"º":{"ha":500,"x_min":96,"x_max":551,"o":"m 282 528 q 145 564 194 528 q 96 671 96 600 q 101 718 96 696 q 184 862 124 815 q 364 908 244 908 q 502 872 453 908 q 551 768 551 836 q 546 718 551 742 q 463 574 525 621 q 282 528 401 528 m 308 649 q 351 665 336 649 q 374 718 367 681 q 379 753 379 746 q 369 778 379 771 q 338 786 360 786 q 296 771 311 786 q 272 718 281 756 q 268 685 268 697 q 277 657 268 665 q 308 649 286 649 z "},"ⁿ":{"ha":481,"x_min":71,"x_max":542,"o":"m 147 900 l 303 900 l 301 876 q 440 907 365 907 q 515 882 489 907 q 542 811 542 857 q 538 771 542 792 l 489 536 l 322 536 l 367 749 q 368 761 368 753 q 339 783 368 783 q 311 778 328 783 q 283 764 294 772 l 236 536 l 71 536 l 147 900 z "},"Δ":{"ha":881,"x_min":-50,"x_max":807,"o":"m -18 156 l 431 894 l 669 894 l 807 154 l 775 0 l -50 0 l -18 156 m 549 226 l 489 549 l 292 226 l 549 226 z "},"Ω":{"ha":1036,"x_min":-40,"x_max":1050,"o":"m 6 221 l 132 221 q 74 323 94 263 q 53 449 53 383 q 60 519 53 481 q 245 851 103 738 q 644 965 388 965 q 862 922 771 965 q 1001 800 953 879 q 1050 617 1050 721 q 1039 513 1050 571 q 968 342 1018 417 q 839 221 918 268 l 967 221 l 921 0 l 476 0 l 525 231 q 664 342 615 279 q 731 494 713 406 q 742 581 742 546 q 706 678 742 646 q 590 711 671 711 q 358 494 404 711 q 350 418 350 453 q 374 314 350 360 q 451 231 399 268 l 403 0 l -40 0 l 6 221 z "},"μ":{"ha":861,"x_min":-65,"x_max":867,"o":"m 117 658 l 415 658 l 333 271 l 331 249 q 344 215 331 225 q 386 206 358 206 q 435 217 408 206 q 481 243 463 228 l 568 658 l 867 658 l 728 0 l 447 0 l 449 43 q 394 1 426 17 q 325 -14 361 -14 q 275 -6 294 -14 l 233 -199 l -65 -199 l 117 658 z "},"π":{"ha":969,"x_min":18,"x_max":942,"o":"m 686 -14 q 524 39 579 -14 q 468 186 468 92 q 476 264 468 222 l 510 422 l 406 422 l 317 0 l 18 0 l 107 422 l 25 422 l 75 658 l 942 658 l 892 422 l 808 422 l 778 281 q 775 254 775 261 q 789 222 775 232 q 839 213 803 213 q 925 226 882 213 l 881 19 q 686 -14 792 -14 z "},"ก":{"ha":892,"x_min":-32,"x_max":861,"o":"m 17 235 q 65 331 29 288 q 151 392 100 375 l 42 432 l 85 638 q 282 728 172 692 q 510 764 392 764 q 772 696 683 764 q 861 515 861 628 q 854 451 861 489 l 758 0 l 453 0 l 544 436 q 550 483 550 460 q 527 537 550 522 q 447 551 504 551 q 376 542 411 551 q 313 519 340 533 l 311 513 l 442 464 l 415 338 q 352 301 375 326 q 319 229 329 275 l 271 0 l -32 0 l 17 235 z "},"ถ":{"ha":892,"x_min":-6,"x_max":861,"o":"m 115 0 q 27 30 60 0 q -6 108 -6 60 q -1 144 -6 126 l 17 235 q 65 331 29 288 q 151 392 100 375 l 42 432 l 85 638 q 277 728 165 692 q 510 764 389 764 q 773 692 685 764 q 861 511 861 621 q 854 451 861 483 l 758 0 l 453 0 l 544 436 q 551 486 551 468 q 528 537 551 522 q 447 551 504 551 q 376 542 411 551 q 313 519 340 533 l 311 513 l 442 464 l 415 338 q 353 304 375 326 q 322 244 331 282 l 317 221 q 315 206 315 215 q 343 182 315 182 l 392 182 l 354 0 l 115 0 z "},"ภ":{"ha":928,"x_min":-50,"x_max":897,"o":"m -11 189 l 21 189 q 67 228 58 189 l 72 253 q 110 339 83 304 q 188 392 138 374 l 78 432 l 121 638 q 318 728 208 692 q 546 764 428 764 q 808 697 719 764 q 897 518 897 631 q 890 451 897 490 l 794 0 l 489 0 l 581 436 q 588 486 588 468 q 565 536 588 521 q 485 551 542 551 q 349 519 413 551 l 347 513 l 478 464 l 451 338 q 401 306 417 326 q 376 243 385 285 l 357 154 q 295 39 340 78 q 167 0 250 0 l -50 0 l -11 189 z "},"ฤ":{"ha":892,"x_min":-6,"x_max":863,"o":"m 544 436 q 551 485 551 468 q 527 537 551 522 q 447 551 503 551 q 376 542 411 551 q 313 519 340 533 l 311 513 l 442 464 l 415 338 q 353 304 375 326 q 322 244 331 282 l 317 221 q 315 206 315 215 q 343 182 315 182 l 392 182 l 354 0 l 115 0 q 26 28 58 0 q -6 107 -6 57 q -1 144 -6 126 l 17 235 q 65 331 29 288 q 151 392 100 375 l 42 432 l 85 638 q 282 728 172 692 q 510 764 392 764 q 863 529 863 764 q 854 451 863 493 l 710 -222 l 404 -222 l 544 436 z "},"ฦ":{"ha":928,"x_min":-50,"x_max":897,"o":"m 581 436 q 586 482 586 460 q 563 535 586 519 q 485 551 539 551 q 349 519 413 551 l 347 513 l 478 464 l 451 338 q 401 306 417 326 q 376 243 385 285 l 357 154 q 167 0 324 0 l -50 0 l -11 189 l 21 189 q 67 228 60 189 l 72 253 q 110 340 83 306 q 188 392 138 374 l 78 432 l 121 638 q 546 764 326 764 q 809 696 721 764 q 897 517 897 628 q 890 451 897 489 l 746 -222 l 440 -222 l 581 436 z "},"ฎ":{"ha":928,"x_min":-50,"x_max":897,"o":"m 104 -65 q 219 -33 163 -43 q 346 -22 276 -22 q 422 -28 381 -22 q 479 -42 463 -35 l 581 436 q 588 486 588 468 q 565 537 588 522 q 485 551 542 551 q 349 519 413 551 l 347 513 l 478 464 l 451 338 q 401 306 417 326 q 376 243 385 285 l 357 154 q 161 0 324 0 l -50 0 l -11 189 l 21 189 q 67 228 60 189 l 72 253 q 110 340 83 306 q 188 392 138 374 l 78 432 l 121 638 q 318 728 208 692 q 546 764 428 764 q 810 694 722 764 q 897 514 897 625 q 890 451 897 486 l 736 -269 l 471 -269 q 390 -240 433 -249 q 286 -231 347 -231 q 169 -243 231 -231 q 58 -278 108 -256 l 104 -65 z "},"ฏ":{"ha":928,"x_min":-50,"x_max":897,"o":"m 490 -278 q 369 -260 419 -278 q 289 -215 318 -243 q 122 -269 228 -269 l -4 -269 l 53 -71 l 122 -71 q 177 -60 158 -71 q 206 -24 196 -50 l 382 -24 q 425 -72 382 -72 q 463 -59 447 -72 q 483 -22 478 -46 l 581 436 q 586 483 586 460 q 563 535 586 519 q 485 551 540 551 q 349 519 413 551 l 347 513 l 478 464 l 451 338 q 401 306 417 326 q 376 243 385 285 l 357 154 q 289 38 340 76 q 161 0 238 0 l -50 0 l -11 189 l 21 189 q 51 197 42 189 q 67 228 61 204 l 72 253 q 110 340 83 306 q 188 392 138 374 l 78 432 l 121 638 q 318 728 208 692 q 546 764 428 764 q 808 694 718 764 q 897 513 897 624 q 890 451 897 486 l 790 -19 q 692 -212 763 -147 q 490 -278 622 -278 z "},"ญ":{"ha":1349,"x_min":-6,"x_max":1372,"o":"m 844 -119 q 648 -100 740 -119 q 510 -51 556 -81 l 550 139 q 688 89 594 110 q 849 68 781 68 q 971 81 933 68 q 1014 118 1008 94 q 1015 128 1015 121 q 1008 151 1015 142 q 850 125 942 125 q 610 189 703 125 q 518 363 518 253 q 528 432 518 389 l 531 443 q 538 492 538 475 q 515 538 538 524 q 440 551 493 551 q 313 519 374 551 l 311 513 l 442 464 l 415 338 q 353 304 375 326 q 322 244 331 282 l 317 221 q 314 203 314 207 q 340 182 314 182 l 392 182 l 354 0 l 115 0 q 26 29 58 0 q -6 110 -6 58 q -1 144 -6 126 l 17 235 q 63 331 28 288 q 151 392 99 375 l 42 432 l 85 638 q 501 764 290 764 q 756 699 676 764 q 835 528 835 635 q 828 458 835 497 l 825 444 q 819 404 819 414 q 838 361 819 374 q 899 349 856 349 q 974 372 950 349 q 1010 444 999 394 l 1074 750 l 1372 750 l 1308 446 q 1271 333 1293 376 q 1210 256 1249 290 q 1249 147 1249 210 q 1243 99 1249 121 q 1126 -67 1219 -14 q 844 -119 1032 -119 z "},"ข":{"ha":856,"x_min":19,"x_max":881,"o":"m 339 -14 q 168 15 240 -14 q 58 97 96 44 q 19 215 19 149 q 26 274 19 242 l 33 304 q 64 377 43 346 q 119 447 85 408 q 151 483 140 469 q 164 510 161 497 q 165 524 165 515 q 132 546 165 546 l 65 546 l 132 750 l 376 750 q 466 724 435 750 q 497 651 497 699 q 474 559 497 597 q 407 472 451 521 q 351 404 371 432 q 325 342 332 376 l 315 297 q 313 269 313 288 q 331 229 313 242 q 389 217 350 217 q 469 239 444 217 q 503 306 493 261 l 597 750 l 881 750 l 781 279 q 640 61 750 136 q 339 -14 529 -14 z "},"ฃ":{"ha":875,"x_min":35,"x_max":900,"o":"m 358 -14 q 117 42 200 -14 q 35 196 35 97 q 39 244 35 219 l 43 267 q 90 359 53 317 q 186 450 126 401 q 212 472 192 454 q 242 502 232 490 q 254 524 253 514 q 256 533 256 528 q 238 550 256 550 q 208 536 222 550 l 196 483 l 51 483 l 108 750 l 272 750 l 264 711 q 331 738 290 726 q 408 750 372 750 q 498 723 465 750 q 531 646 531 696 q 528 614 531 625 q 492 526 518 563 q 419 442 465 489 q 366 380 385 406 q 340 325 347 354 l 335 300 q 331 271 331 283 q 350 229 331 242 q 408 217 369 217 q 486 238 461 217 q 521 306 511 258 l 615 750 l 900 750 l 800 279 q 658 58 768 129 q 358 -14 549 -14 z "},"ช":{"ha":868,"x_min":22,"x_max":894,"o":"m 350 -14 q 112 50 201 -14 q 22 222 22 114 q 26 269 22 244 l 32 300 q 63 378 40 344 q 121 449 86 413 q 149 481 136 465 q 164 510 161 497 q 165 524 165 515 q 132 546 165 546 l 65 546 l 132 750 l 363 750 q 456 725 425 750 q 488 653 488 700 q 483 614 488 635 q 453 539 474 571 q 399 465 433 507 q 349 401 367 429 q 324 339 331 374 l 315 297 q 313 272 313 278 q 332 230 313 243 q 394 217 351 217 q 513 300 496 217 l 524 347 q 528 372 528 363 q 479 414 528 414 l 454 414 l 511 617 l 522 617 q 574 634 558 617 q 599 701 589 651 l 611 764 l 894 764 l 885 713 q 842 592 871 639 q 758 517 813 544 q 813 399 813 472 q 806 342 813 376 l 793 282 q 653 63 763 140 q 350 -14 544 -14 z "},"ซ":{"ha":869,"x_min":28,"x_max":896,"o":"m 351 -14 q 115 40 201 -14 q 28 196 28 94 q 32 244 28 219 l 36 267 q 81 358 46 317 q 174 450 117 400 q 223 496 208 481 q 240 524 238 511 q 242 535 242 528 q 224 550 242 550 q 194 536 208 550 l 182 483 l 44 483 l 101 750 l 265 750 l 257 711 q 322 738 283 726 q 397 750 360 750 q 482 722 451 750 q 513 646 513 693 q 508 614 513 631 q 470 515 496 554 q 401 428 444 475 q 355 372 371 394 q 333 322 339 349 l 328 297 q 325 272 325 278 q 401 217 325 217 q 480 238 456 217 q 514 306 504 260 l 525 357 q 529 385 529 374 q 492 422 529 422 l 472 422 l 529 617 l 539 617 q 576 629 565 617 q 594 681 588 642 l 611 764 l 896 764 l 886 713 q 842 592 872 640 q 758 517 813 544 q 799 465 785 497 q 813 393 813 432 q 807 342 813 364 l 793 279 q 651 61 761 136 q 351 -14 540 -14 z "},"ค":{"ha":883,"x_min":-15,"x_max":853,"o":"m 79 444 q 222 690 117 617 q 529 764 328 764 q 767 697 682 764 q 853 514 853 629 q 844 444 853 482 l 750 0 l 489 0 l 585 451 q 590 494 590 482 q 566 553 590 533 q 489 574 542 574 q 388 544 421 574 q 342 451 354 514 l 324 368 q 374 388 344 381 q 432 394 403 394 l 504 394 l 468 190 l 386 190 q 281 168 325 190 l 246 0 l -15 0 l 79 444 z "},"ฅ":{"ha":883,"x_min":-15,"x_max":874,"o":"m 99 540 q 182 708 122 653 q 354 764 242 764 q 507 693 457 764 q 707 764 582 764 q 874 619 874 764 q 864 540 874 581 l 750 0 l 489 0 l 597 513 q 601 543 601 532 q 594 567 601 560 q 569 574 588 574 q 539 564 551 574 q 513 536 526 554 l 450 536 q 438 564 446 554 q 414 574 431 574 q 354 513 367 574 l 324 368 q 374 388 344 381 q 432 394 403 394 l 504 394 l 468 190 l 386 190 q 281 168 325 190 l 246 0 l -15 0 l 99 540 z "},"ศ":{"ha":914,"x_min":-15,"x_max":981,"o":"m 79 444 q 222 690 117 617 q 529 764 328 764 q 651 750 592 764 l 981 750 l 928 560 l 835 560 q 847 489 847 528 q 840 426 847 464 l 750 0 l 489 0 l 585 451 q 590 494 590 482 q 566 553 590 533 q 489 574 542 574 q 388 544 421 574 q 342 451 354 514 l 324 368 q 374 388 344 381 q 432 394 403 394 l 504 394 l 468 190 l 386 190 q 281 168 325 190 l 246 0 l -15 0 l 79 444 z "},"ด":{"ha":921,"x_min":11,"x_max":888,"o":"m 276 -14 q 84 50 157 -14 q 11 242 11 114 q 22 346 11 296 q 188 660 65 557 q 544 764 310 764 q 732 730 654 764 q 849 637 810 696 q 888 504 888 578 q 881 443 888 478 l 788 0 l 497 0 l 585 413 q 589 454 589 436 q 567 508 589 490 q 492 526 544 526 q 381 485 418 526 q 326 346 344 444 q 318 274 318 303 q 338 214 318 231 q 400 197 357 197 q 478 208 446 197 l 438 14 q 276 -14 371 -14 z "},"ต":{"ha":931,"x_min":10,"x_max":921,"o":"m 276 -14 q 83 50 157 -14 q 10 240 10 114 q 22 346 10 288 q 156 660 67 557 q 393 764 246 764 q 476 747 444 764 q 533 693 508 731 q 631 746 572 728 q 743 764 689 764 q 874 720 828 764 q 921 606 921 676 q 915 560 921 590 l 797 0 l 506 0 l 603 464 q 607 494 607 483 q 578 526 607 526 q 531 492 551 526 l 456 492 q 444 518 451 510 q 422 526 438 526 q 367 477 392 526 q 326 346 343 428 q 317 269 317 290 q 336 213 317 228 q 400 197 356 197 q 478 208 446 197 l 438 14 q 276 -14 371 -14 z "},"ท":{"ha":892,"x_min":-22,"x_max":871,"o":"m 136 750 l 413 750 l 411 699 q 527 745 461 726 q 660 764 593 764 q 815 711 758 764 q 871 568 871 658 q 864 503 871 531 l 758 0 l 460 0 l 557 463 q 561 493 561 479 q 545 532 561 519 q 493 544 529 544 q 433 533 465 544 q 383 504 401 521 l 276 0 l -22 0 l 136 750 z "},"ฑ":{"ha":886,"x_min":7,"x_max":868,"o":"m 53 219 q 97 321 64 274 q 185 426 131 368 q 235 485 219 465 q 254 524 250 506 q 256 533 256 528 q 238 550 256 550 q 208 536 222 550 l 196 483 l 51 483 l 108 750 l 272 750 l 264 711 q 396 750 329 750 q 451 742 425 750 q 493 717 476 733 q 574 751 526 738 q 668 764 621 764 q 817 717 767 764 q 868 583 868 669 q 860 507 868 549 l 753 0 l 456 0 l 563 507 l 565 524 q 538 550 565 550 q 503 536 519 550 q 474 448 493 483 q 424 367 456 413 q 377 293 393 324 q 351 219 361 263 l 306 0 l 7 0 l 53 219 z "},"น":{"ha":892,"x_min":22,"x_max":917,"o":"m 233 -14 q 81 36 139 -14 q 22 178 22 86 q 29 246 22 217 l 136 750 l 435 750 l 336 286 q 333 258 333 275 q 349 218 333 231 q 401 206 365 206 q 461 217 429 206 q 511 246 493 229 l 618 750 l 917 750 l 758 0 l 482 0 l 482 51 q 368 4 433 22 q 233 -14 303 -14 z "},"ม":{"ha":892,"x_min":-22,"x_max":917,"o":"m 492 -14 q 368 3 424 -14 q 274 51 313 21 l 254 0 l -22 0 l 136 750 l 435 750 l 328 246 q 367 217 339 229 q 421 206 394 206 q 488 224 465 206 q 519 286 511 243 l 618 750 l 917 750 l 810 246 q 701 51 782 117 q 492 -14 619 -14 z "},"ฌ":{"ha":1329,"x_min":-6,"x_max":1354,"o":"m 935 -14 q 728 51 813 -14 l 708 0 l 436 0 l 528 436 q 535 489 535 471 q 514 537 535 522 q 440 551 493 551 q 313 519 374 551 l 311 513 l 442 464 l 415 338 q 353 304 375 326 q 322 244 331 282 l 317 221 q 315 206 315 215 q 343 182 315 182 l 392 182 l 354 0 l 115 0 q 27 30 60 0 q -6 108 -6 60 q -1 144 -6 126 l 17 235 q 65 331 29 288 q 151 392 100 375 l 42 432 l 85 638 q 501 764 290 764 q 753 699 672 764 q 835 524 835 633 q 826 451 835 489 l 782 246 q 816 217 794 228 q 867 206 838 206 q 930 224 911 206 q 957 286 949 242 l 1056 750 l 1354 750 l 1247 246 q 1140 57 1222 128 q 935 -14 1057 -14 z "},"ณ":{"ha":1335,"x_min":-6,"x_max":1360,"o":"m 690 -14 q 538 38 596 -14 q 481 181 481 89 q 488 246 481 217 l 528 436 q 535 492 535 474 q 514 538 535 525 q 440 551 493 551 q 313 519 374 551 l 311 513 l 442 464 l 415 338 q 353 304 375 326 q 322 244 332 282 l 317 221 l 314 204 q 344 182 314 182 l 392 182 l 354 0 l 115 0 q 26 29 58 0 q -6 110 -6 58 q -1 144 -6 126 l 17 235 q 63 333 28 293 q 151 392 97 374 l 42 432 l 85 638 q 501 764 290 764 q 755 699 672 764 q 838 525 838 633 q 829 451 838 489 l 793 286 q 789 253 789 268 q 803 217 789 228 q 851 206 818 206 q 906 217 876 206 q 954 246 936 229 l 1061 750 l 1360 750 l 1201 0 l 924 0 l 924 51 q 690 -14 811 -14 z "},"ฒ":{"ha":1389,"x_min":14,"x_max":1414,"o":"m 276 -14 q 87 57 160 -14 q 14 256 14 128 q 24 351 14 303 q 153 664 65 564 q 392 764 242 764 q 474 747 443 764 q 531 693 506 731 q 739 764 619 764 q 867 719 821 764 q 914 604 914 674 q 908 560 914 590 l 842 246 q 877 217 853 229 q 926 206 901 206 q 988 223 968 206 q 1017 286 1007 240 l 1115 750 l 1414 750 l 1307 246 q 1199 53 1279 119 q 994 -14 1119 -14 q 788 51 872 -14 l 768 0 l 500 0 l 597 464 q 603 499 603 492 q 596 520 603 514 q 574 526 589 526 q 525 492 546 526 l 454 492 q 443 518 450 510 q 421 526 436 526 q 326 351 365 526 q 315 274 315 303 q 336 215 315 233 q 400 197 357 197 q 478 208 446 197 l 438 14 q 276 -14 371 -14 z "},"ฆ":{"ha":892,"x_min":-19,"x_max":917,"o":"m 492 -14 q 278 51 360 -14 l 258 0 l -19 0 l 31 242 q 80 338 42 292 q 179 439 118 383 q 232 490 214 469 q 254 524 250 510 q 256 535 256 528 q 238 550 256 550 q 208 536 222 550 l 196 483 l 51 483 l 108 750 l 288 750 l 279 711 q 344 738 304 726 q 422 750 385 750 q 508 723 478 750 q 539 647 539 696 q 535 610 539 631 q 490 496 519 539 q 413 400 461 453 q 363 344 379 365 q 342 296 347 322 l 331 246 q 369 217 342 229 q 425 206 396 206 q 493 223 472 206 q 524 286 514 240 l 622 750 l 917 750 l 810 246 q 699 51 782 117 q 492 -14 617 -14 z "},"ธ":{"ha":775,"x_min":-28,"x_max":779,"o":"m 313 -14 q 121 4 213 -14 q -28 51 29 22 l 26 304 l 279 304 l 257 201 q 294 193 268 196 q 342 190 319 190 q 416 203 390 190 q 447 243 442 215 q 412 290 453 274 q 265 331 371 307 l 236 338 q 60 501 60 378 q 64 539 60 521 q 183 706 85 649 q 483 764 282 764 q 658 754 579 764 q 779 729 738 744 l 736 526 q 619 555 697 544 q 485 565 540 565 q 398 560 428 565 q 364 535 368 554 q 392 508 360 519 q 492 479 424 496 q 568 460 524 472 q 687 397 649 436 q 725 292 725 357 q 719 236 725 263 q 594 49 697 113 q 313 -14 490 -14 z "},"ร":{"ha":701,"x_min":-37,"x_max":711,"o":"m 249 -14 q 81 -1 160 -14 q -37 31 3 11 l 7 240 q 117 201 53 217 q 233 186 182 186 q 314 195 290 186 q 338 228 338 204 q 317 257 338 244 q 246 289 297 269 l 197 308 q 90 377 124 339 q 56 474 56 415 q 61 528 56 501 q 456 764 111 764 q 597 754 524 764 q 711 731 671 744 l 668 524 q 575 552 628 542 q 479 563 522 563 q 393 553 422 563 q 364 518 364 544 q 382 492 364 501 q 446 465 400 482 q 499 446 494 447 q 616 377 582 413 q 650 286 650 342 q 642 218 650 256 q 520 47 618 108 q 249 -14 422 -14 z "},"จ":{"ha":803,"x_min":-1,"x_max":790,"o":"m 308 -14 q 133 15 213 -14 l 100 231 l -1 231 l 56 447 l 313 447 l 351 207 q 472 379 440 238 q 481 446 481 417 q 443 528 481 503 q 317 553 406 553 q 195 543 263 553 q 65 517 128 533 l 107 713 q 273 751 185 738 q 436 764 361 764 q 702 694 614 764 q 790 492 790 624 q 776 378 790 435 q 680 163 749 251 q 515 31 611 75 q 308 -14 419 -14 z "},"ว":{"ha":756,"x_min":-43,"x_max":742,"o":"m 238 -14 q -43 39 61 -14 l 8 278 q 108 238 53 253 q 214 224 163 224 q 359 258 311 224 q 425 375 407 293 q 431 425 431 399 q 395 503 431 479 q 281 526 360 526 q 165 515 225 526 q 53 481 106 503 l 101 711 q 404 764 244 764 q 655 695 568 764 q 742 488 742 626 q 729 375 742 438 q 570 78 686 169 q 238 -14 454 -14 z "},"ง":{"ha":871,"x_min":60,"x_max":858,"o":"m 349 -14 q 244 -6 299 -14 q 153 15 189 1 l 60 521 l 343 521 l 403 193 q 489 256 453 204 q 543 394 525 307 q 551 456 551 431 q 527 515 551 497 q 449 533 503 533 l 397 533 l 443 750 l 560 750 q 781 684 703 750 q 858 492 858 618 q 849 396 858 444 q 349 -14 768 -14 z "},"ฐ":{"ha":865,"x_min":-104,"x_max":918,"o":"m 308 -14 q 133 15 213 -14 l 100 231 l -1 231 l 56 447 l 313 447 l 351 207 q 472 379 440 238 q 481 446 481 417 q 443 528 481 503 q 317 553 406 553 q 195 543 263 553 q 65 517 128 533 l 107 713 q 273 751 185 738 q 436 764 361 764 q 579 749 514 764 l 918 749 l 860 539 l 769 539 q 783 443 783 497 q 776 378 783 415 q 680 163 749 251 q 515 31 611 75 q 308 -14 419 -14 m 357 -307 q 185 -244 240 -307 q 32 -303 124 -303 l -104 -303 l -51 -104 l 44 -104 q 96 -94 81 -104 q 125 -57 111 -85 l 299 -57 q 356 -110 299 -110 q 402 -97 383 -110 q 426 -60 421 -83 l 433 -29 l 664 -29 l 657 -62 q 556 -239 635 -171 q 357 -307 476 -307 z "},"ฉ":{"ha":857,"x_min":-1,"x_max":819,"o":"m 201 -14 q 53 37 108 -14 q -1 176 -1 88 q 6 242 -1 213 l 43 417 l 342 417 l 315 289 q 311 251 311 268 q 326 217 311 228 q 374 206 340 206 q 433 217 404 206 q 476 246 461 228 l 508 394 q 517 461 517 435 q 480 533 517 513 q 349 553 443 553 q 206 542 292 553 q 58 515 119 532 l 100 711 q 279 750 181 736 q 469 764 378 764 q 733 696 647 764 q 819 499 819 628 q 807 393 819 450 l 724 0 l 447 0 l 447 51 q 335 3 399 21 q 201 -14 272 -14 z "},"ล":{"ha":851,"x_min":-8,"x_max":821,"o":"m 207 -14 q 52 33 113 -14 q -8 171 -8 79 q -1 231 -8 193 q 113 415 24 353 q 351 478 201 478 l 528 478 l 531 496 q 506 541 535 526 q 401 556 478 556 q 132 515 274 556 l 175 713 q 328 750 242 736 q 507 764 415 764 q 738 699 656 764 q 821 521 821 635 q 813 447 821 488 l 718 0 l 426 0 l 488 292 l 389 292 q 325 278 346 292 q 297 231 304 265 q 294 210 294 214 q 308 182 294 190 q 349 174 321 174 q 410 181 382 174 l 374 8 q 207 -14 310 -14 z "},"ส":{"ha":881,"x_min":-8,"x_max":947,"o":"m 207 -14 q 52 33 113 -14 q -8 171 -8 79 q -1 231 -8 193 q 113 415 24 353 q 351 478 201 478 l 528 478 l 531 496 q 506 541 535 526 q 401 556 478 556 q 132 515 274 556 l 175 713 q 328 750 242 736 q 507 764 415 764 q 633 750 574 764 l 947 750 l 888 539 l 811 539 q 817 492 817 521 q 813 447 817 471 l 718 0 l 426 0 l 488 292 l 389 292 q 325 278 346 292 q 297 231 304 265 q 294 210 294 214 q 308 182 294 190 q 349 174 321 174 q 410 181 382 174 l 374 8 q 207 -14 310 -14 z "},"บ":{"ha":908,"x_min":39,"x_max":933,"o":"m 372 -14 q 199 18 275 -14 q 81 111 124 50 q 39 254 39 172 q 47 329 39 290 l 136 750 l 435 750 l 346 331 q 339 281 339 299 q 358 231 339 246 q 422 217 378 217 q 505 243 476 217 q 546 331 533 269 l 635 750 l 933 750 l 844 329 q 690 71 807 156 q 372 -14 572 -14 z "},"ป":{"ha":908,"x_min":39,"x_max":981,"o":"m 372 -14 q 199 18 275 -14 q 81 111 124 50 q 39 254 39 172 q 47 329 39 290 l 136 750 l 435 750 l 346 331 q 339 281 339 299 q 358 231 339 246 q 422 217 378 217 q 505 243 476 217 q 546 331 533 269 l 682 972 l 981 972 l 844 329 q 691 71 808 156 q 372 -14 574 -14 z "}}}
